<svg width="24095" height="5599" viewBox="0 0 24095 5599" fill="none" xmlns="http://www.w3.org/2000/svg">
<path d="M8373.56 2694.01C8373.56 2784.75 8334.67 2860.37 8256.89 2920.87C8181.27 2981.37 8081.88 3011.62 7958.72 3011.62C7835.57 3011.62 7738.34 2983.53 7667.04 2927.35C7595.74 2871.18 7560.09 2789.07 7560.09 2681.04V1183.73C7560.09 1075.7 7596.82 991.438 7670.28 930.941C7743.74 870.443 7842.05 840.195 7965.2 840.195C8090.52 840.195 8189.91 868.283 8263.37 924.459C8336.83 978.474 8373.56 1049.77 8373.56 1138.36V1540.24C8373.56 1579.13 8345.47 1606.13 8289.3 1621.26C8259.05 1629.9 8228.8 1634.22 8198.55 1634.22C8168.3 1634.22 8138.05 1630.98 8107.81 1624.5C8114.29 1572.64 8117.53 1517.55 8117.53 1459.21V1183.73C8117.53 1142.68 8103.48 1111.35 8075.4 1089.75C8047.31 1065.98 8010.58 1054.1 7965.2 1054.1C7919.83 1054.1 7883.1 1065.98 7855.01 1089.75C7829.09 1111.35 7816.12 1142.68 7816.12 1183.73V2668.08C7816.12 2706.97 7829.09 2738.3 7855.01 2762.07C7883.1 2785.83 7919.83 2797.72 7965.2 2797.72C8010.58 2797.72 8047.31 2786.91 8075.4 2765.31C8103.48 2741.54 8117.53 2709.13 8117.53 2668.08V2596.78L8107.81 2431.49C8138.05 2425.01 8168.3 2421.77 8198.55 2421.77C8228.8 2421.77 8259.05 2426.09 8289.3 2434.73C8345.47 2449.86 8373.56 2476.86 8373.56 2515.76V2694.01ZM8563.31 2681.04V1702.28C8563.31 1594.25 8596.8 1509.99 8663.78 1449.49C8730.76 1388.99 8821.5 1358.74 8936.02 1358.74C9050.53 1358.74 9139.11 1386.83 9201.77 1443.01C9266.59 1499.18 9299 1581.29 9299 1689.32V2668.08C9299 2776.11 9264.43 2860.37 9195.29 2920.87C9128.31 2981.37 9037.56 3011.62 8923.05 3011.62C8808.54 3011.62 8719.95 2983.53 8657.3 2927.35C8594.64 2871.18 8563.31 2789.07 8563.31 2681.04ZM8806.38 1689.32V2681.04C8806.38 2717.77 8818.26 2749.1 8842.03 2775.03C8865.8 2798.8 8894.96 2810.68 8929.53 2810.68C8966.26 2810.68 8996.51 2798.8 9020.28 2775.03C9044.05 2749.1 9055.93 2717.77 9055.93 2681.04V1689.32C9055.93 1652.59 9044.05 1622.34 9020.28 1598.57C8996.51 1572.64 8966.26 1559.68 8929.53 1559.68C8894.96 1559.68 8865.8 1572.64 8842.03 1598.57C8818.26 1622.34 8806.38 1652.59 8806.38 1689.32ZM9522.67 969.832C9522.67 920.138 9512.95 854.239 9493.51 772.135C9558.32 737.565 9627.46 720.28 9700.93 720.28C9744.14 720.28 9765.74 736.485 9765.74 768.894V2710.21C9765.74 2755.58 9773.31 2787.99 9788.43 2807.44C9805.72 2826.89 9837.04 2836.61 9882.42 2836.61C9884.58 2892.78 9869.45 2936 9837.04 2966.25C9806.8 2996.49 9761.42 3011.62 9700.93 3011.62C9640.43 3011.62 9595.06 2993.25 9564.81 2956.52C9536.72 2919.79 9522.67 2859.29 9522.67 2775.03V969.832ZM10531.4 1656.91C10531.4 1574.81 10523.9 1486.22 10508.7 1391.15C10573.5 1382.51 10643.8 1378.19 10719.4 1378.19C10756.1 1378.19 10774.5 1394.39 10774.5 1426.8V2710.21C10774.5 2755.58 10782 2787.99 10797.2 2807.44C10814.5 2826.89 10845.8 2836.61 10891.2 2836.61C10893.3 2892.78 10878.2 2936 10845.8 2966.25C10815.5 2996.49 10771.2 3011.62 10712.9 3011.62C10626.5 3011.62 10571.4 2978.13 10547.6 2911.15C10480.6 2978.13 10405 3011.62 10320.8 3011.62C10236.5 3011.62 10168.4 2983.53 10116.6 2927.35C10064.7 2869.02 10038.8 2786.91 10038.8 2681.04V1660.15C10038.8 1614.78 10030.2 1582.37 10012.9 1562.92C9997.74 1543.48 9967.49 1533.75 9922.12 1533.75C9919.96 1479.74 9935.08 1437.61 9967.49 1407.36C10002.1 1374.95 10049.6 1358.74 10110.1 1358.74C10170.6 1358.74 10213.8 1376.03 10239.7 1410.6C10267.8 1445.17 10281.9 1502.42 10281.9 1582.37V2677.8C10281.9 2753.42 10313.2 2791.23 10375.8 2791.23C10408.3 2791.23 10438.5 2779.35 10466.6 2755.58C10496.8 2729.66 10518.5 2702.65 10531.4 2674.56V1656.91ZM11301.3 2713.45C11301.3 2819.32 11308.8 2907.91 11324 2979.21C11259.2 2987.85 11188.9 2992.17 11113.3 2992.17C11076.6 2992.17 11058.2 2975.97 11058.2 2943.56V1660.15C11058.2 1614.78 11049.6 1582.37 11032.3 1562.92C11017.2 1543.48 10986.9 1533.75 10941.5 1533.75C10939.4 1477.58 10953.4 1434.37 10983.7 1404.12C11016.1 1373.87 11066.9 1358.74 11136 1358.74C11207.3 1358.74 11257 1392.23 11285.1 1459.21C11352.1 1392.23 11432 1358.74 11524.9 1358.74C11620 1358.74 11691.3 1400.88 11738.8 1485.14C11812.3 1400.88 11893.3 1358.74 11981.9 1358.74C12072.6 1358.74 12141.8 1385.75 12189.3 1439.77C12236.8 1493.78 12260.6 1570.48 12260.6 1669.87V2710.21C12260.6 2755.58 12268.2 2787.99 12283.3 2807.44C12300.6 2826.89 12331.9 2836.61 12377.3 2836.61C12379.4 2892.78 12364.3 2936 12331.9 2966.25C12301.7 2996.49 12256.3 3011.62 12195.8 3011.62C12135.3 3011.62 12089.9 2993.25 12059.7 2956.52C12031.6 2919.79 12017.5 2859.29 12017.5 2775.03V1689.32C12017.5 1618.02 11984 1582.37 11917.1 1582.37C11858.7 1582.37 11813.4 1615.86 11780.9 1682.84V2713.45C11780.9 2819.32 11788.5 2907.91 11803.6 2979.21C11738.8 2987.85 11668.6 2992.17 11593 2992.17C11556.2 2992.17 11537.9 2975.97 11537.9 2943.56V1689.32C11537.9 1618.02 11504.4 1582.37 11437.4 1582.37C11379.1 1582.37 11333.7 1615.86 11301.3 1682.84V2713.45ZM12510.3 969.832C12510.3 905.013 12500.6 839.114 12481.2 772.135C12546 737.565 12615.1 720.28 12688.6 720.28C12731.8 720.28 12753.4 736.485 12753.4 768.894V1443.01C12820.4 1386.83 12889.5 1358.74 12960.8 1358.74C13151 1358.74 13246 1468.94 13246 1689.32V2635.67C13246 2743.7 13212.5 2827.97 13145.6 2888.46C13078.6 2948.96 12987.8 2979.21 12873.3 2979.21H12510.3V969.832ZM12753.4 2771.79H12879.8C12916.5 2771.79 12945.7 2760.99 12967.3 2739.38C12991.1 2715.61 13003 2685.36 13003 2648.63V1692.56C13003 1619.1 12970.5 1582.37 12905.7 1582.37C12840.9 1582.37 12790.1 1615.86 12753.4 1682.84V2771.79ZM13612 1096.23C13519.1 1096.23 13472.6 1034.65 13472.6 911.495C13472.6 788.34 13519.1 726.762 13612 726.762C13704.9 726.762 13751.4 788.34 13751.4 911.495C13751.4 1034.65 13704.9 1096.23 13612 1096.23ZM13411.1 1391.15H13735.2V2710.21C13735.2 2755.58 13742.7 2787.99 13757.8 2807.44C13775.1 2826.89 13806.5 2836.61 13851.8 2836.61C13854 2892.78 13838.9 2936 13806.5 2966.25C13776.2 2996.49 13730.8 3011.62 13670.3 3011.62C13609.8 3011.62 13564.5 2993.25 13534.2 2956.52C13506.1 2919.79 13492.1 2859.29 13492.1 2775.03V1585.61L13391.6 1601.81C13376.5 1545.64 13368.9 1497.02 13368.9 1455.97C13368.9 1412.76 13383 1391.15 13411.1 1391.15ZM14309.1 2386.12C14237.8 2433.65 14202.1 2513.6 14202.1 2625.95C14202.1 2736.14 14235.6 2791.23 14302.6 2791.23C14371.7 2791.23 14425.7 2752.34 14464.6 2674.56V2282.41L14309.1 2386.12ZM14344.7 1358.74C14586.7 1358.74 14707.7 1465.69 14707.7 1679.6V2710.21C14707.7 2755.58 14715.3 2787.99 14730.4 2807.44C14747.7 2826.89 14779 2836.61 14824.4 2836.61C14826.5 2892.78 14811.4 2936 14779 2966.25C14748.8 2996.49 14704.5 3011.62 14646.1 3011.62C14555.4 3011.62 14500.3 2978.13 14480.8 2911.15C14413.9 2978.13 14335 3011.62 14244.3 3011.62C14153.5 3011.62 14081.1 2977.05 14027.1 2907.91C13973.1 2838.77 13946.1 2745.86 13946.1 2629.19C13946.1 2452.02 14020.6 2318.06 14169.7 2227.31L14464.6 2052.3V1702.28C14464.6 1611.54 14421.4 1566.16 14335 1566.16C14250.7 1566.16 14208.6 1616.94 14208.6 1718.49V1825.44L14218.3 1977.76C14190.2 1984.24 14161.1 1987.48 14130.8 1987.48C14102.7 1987.48 14075.7 1983.16 14049.8 1974.52C13997.9 1961.56 13972 1936.71 13972 1899.98V1634.22C13972 1547.8 14005.5 1480.82 14072.5 1433.28C14141.6 1383.59 14232.4 1358.74 14344.7 1358.74ZM16146.7 2694.01C16146.7 2784.75 16107.8 2860.37 16030.1 2920.87C15954.4 2981.37 15855 3011.62 15731.9 3011.62C15608.7 3011.62 15511.5 2983.53 15440.2 2927.35C15368.9 2871.18 15333.3 2789.07 15333.3 2681.04V1183.73C15333.3 1075.7 15370 991.438 15443.4 930.941C15516.9 870.443 15615.2 840.195 15738.4 840.195C15863.7 840.195 15963.1 868.283 16036.5 924.459C16110 978.474 16146.7 1049.77 16146.7 1138.36V1540.24C16146.7 1579.13 16118.6 1606.13 16062.5 1621.26C16032.2 1629.9 16002 1634.22 15971.7 1634.22C15941.5 1634.22 15911.2 1630.98 15881 1624.5C15887.5 1572.64 15890.7 1517.55 15890.7 1459.21V1183.73C15890.7 1142.68 15876.7 1111.35 15848.6 1089.75C15820.5 1065.98 15783.7 1054.1 15738.4 1054.1C15693 1054.1 15656.3 1065.98 15628.2 1089.75C15602.3 1111.35 15589.3 1142.68 15589.3 1183.73V2668.08C15589.3 2706.97 15602.3 2738.3 15628.2 2762.07C15656.3 2785.83 15693 2797.72 15738.4 2797.72C15783.7 2797.72 15820.5 2786.91 15848.6 2765.31C15876.7 2741.54 15890.7 2709.13 15890.7 2668.08V2596.78L15881 2431.49C15911.2 2425.01 15941.5 2421.77 15971.7 2421.77C16002 2421.77 16032.2 2426.09 16062.5 2434.73C16118.6 2449.86 16146.7 2476.86 16146.7 2515.76V2694.01ZM16663.8 2386.12C16592.5 2433.65 16556.9 2513.6 16556.9 2625.95C16556.9 2736.14 16590.4 2791.23 16657.3 2791.23C16726.5 2791.23 16780.5 2752.34 16819.4 2674.56V2282.41L16663.8 2386.12ZM16699.5 1358.74C16941.5 1358.74 17062.4 1465.69 17062.4 1679.6V2710.21C17062.4 2755.58 17070 2787.99 17085.1 2807.44C17102.4 2826.89 17133.7 2836.61 17179.1 2836.61C17181.3 2892.78 17166.2 2936 17133.7 2966.25C17103.5 2996.49 17059.2 3011.62 17000.9 3011.62C16910.1 3011.62 16855 2978.13 16835.6 2911.15C16768.6 2978.13 16689.7 3011.62 16599 3011.62C16508.2 3011.62 16435.9 2977.05 16381.9 2907.91C16327.8 2838.77 16300.8 2745.86 16300.8 2629.19C16300.8 2452.02 16375.4 2318.06 16524.5 2227.31L16819.4 2052.3V1702.28C16819.4 1611.54 16776.2 1566.16 16689.7 1566.16C16605.5 1566.16 16563.3 1616.94 16563.3 1718.49V1825.44L16573.1 1977.76C16545 1984.24 16515.8 1987.48 16485.6 1987.48C16457.5 1987.48 16430.5 1983.16 16404.5 1974.52C16352.7 1961.56 16326.8 1936.71 16326.8 1899.98V1634.22C16326.8 1547.8 16360.2 1480.82 16427.2 1433.28C16496.4 1383.59 16587.1 1358.74 16699.5 1358.74ZM17577.4 2713.45C17577.4 2817.16 17585 2903.59 17600.1 2972.73C17535.3 2985.69 17465.1 2992.17 17389.5 2992.17C17352.7 2992.17 17334.4 2975.97 17334.4 2943.56V1660.15C17334.4 1614.78 17325.7 1582.37 17308.4 1562.92C17293.3 1543.48 17263.1 1533.75 17217.7 1533.75C17215.5 1477.58 17229.6 1434.37 17259.8 1404.12C17292.2 1373.87 17337.6 1358.74 17395.9 1358.74C17482.4 1358.74 17536.4 1401.96 17558 1488.38C17612 1401.96 17688.7 1358.74 17788.1 1358.74C17965.3 1358.74 18053.8 1444.09 18053.8 1614.78V1938.87C18053.8 1975.6 18027.9 2000.45 17976.1 2013.41C17950.1 2022.05 17922 2026.38 17891.8 2026.38C17863.7 2026.38 17835.6 2023.13 17807.5 2016.65C17814 1969.12 17817.3 1918.34 17817.3 1864.33V1699.04C17817.3 1627.74 17784.8 1592.09 17720 1592.09C17689.8 1592.09 17661.7 1606.13 17635.8 1634.22C17609.8 1662.31 17590.4 1693.64 17577.4 1728.21V2713.45ZM18702.9 1705.52C18702.9 1662.31 18690 1628.82 18664 1605.05C18638.1 1579.13 18605.7 1566.16 18566.8 1566.16C18486.9 1566.16 18446.9 1599.65 18446.9 1666.63V2130.09L18602.4 2013.41C18669.4 1963.72 18702.9 1861.09 18702.9 1705.52ZM18203.8 2690.77V1676.35C18203.8 1464.61 18328 1358.74 18576.5 1358.74C18827.2 1358.74 18952.5 1477.58 18952.5 1715.25C18952.5 1810.31 18935.2 1897.82 18900.6 1977.76C18866 2057.7 18818.5 2118.2 18758 2159.25L18446.9 2373.15V2668.08C18446.9 2758.83 18489 2804.2 18573.3 2804.2C18659.7 2804.2 18702.9 2753.42 18702.9 2651.87V2577.33L18693.2 2425.01C18721.3 2418.53 18749.4 2415.29 18777.5 2415.29C18807.7 2415.29 18835.8 2419.61 18861.7 2428.25C18913.6 2441.21 18939.5 2466.06 18939.5 2502.79V2736.14C18939.5 2822.56 18904.9 2890.62 18835.8 2940.32C18768.8 2987.85 18679.1 3011.62 18566.8 3011.62C18324.8 3011.62 18203.8 2904.67 18203.8 2690.77ZM19552.9 2940.32V1151.32C19552.9 1105.95 19543.2 1074.62 19523.8 1057.34C19506.5 1037.89 19475.1 1028.17 19429.8 1028.17C19429.8 905.013 19498.9 843.436 19637.2 843.436C19751.7 843.436 19809 917.977 19809 1067.06V1912.94H20110.4V1177.25L20097.4 872.604C20170.9 861.801 20243.2 856.399 20314.5 856.399C20349.1 856.399 20366.4 874.765 20366.4 911.495V2703.73C20366.4 2749.1 20375 2781.51 20392.3 2800.96C20411.8 2818.24 20444.2 2826.89 20489.6 2826.89C20489.6 2950.04 20420.4 3011.62 20282.1 3011.62C20167.6 3011.62 20110.4 2937.08 20110.4 2787.99V2126.84H19809V2674.56L19821.9 2979.21C19748.5 2990.01 19676.1 2995.41 19604.8 2995.41C19570.2 2995.41 19552.9 2977.05 19552.9 2940.32ZM20609.2 2681.04V1702.28C20609.2 1594.25 20642.7 1509.99 20709.7 1449.49C20776.6 1388.99 20867.4 1358.74 20981.9 1358.74C21096.4 1358.74 21185 1386.83 21247.7 1443.01C21312.5 1499.18 21344.9 1581.29 21344.9 1689.32V2668.08C21344.9 2776.11 21310.3 2860.37 21241.2 2920.87C21174.2 2981.37 21083.4 3011.62 20968.9 3011.62C20854.4 3011.62 20765.8 2983.53 20703.2 2927.35C20640.5 2871.18 20609.2 2789.07 20609.2 2681.04ZM20852.3 1689.32V2681.04C20852.3 2717.77 20864.1 2749.1 20887.9 2775.03C20911.7 2798.8 20940.8 2810.68 20975.4 2810.68C21012.1 2810.68 21042.4 2798.8 21066.2 2775.03C21089.9 2749.1 21101.8 2717.77 21101.8 2681.04V1689.32C21101.8 1652.59 21089.9 1622.34 21066.2 1598.57C21042.4 1572.64 21012.1 1559.68 20975.4 1559.68C20940.8 1559.68 20911.7 1572.64 20887.9 1598.57C20864.1 1622.34 20852.3 1652.59 20852.3 1689.32ZM21834.3 2713.45C21834.3 2819.32 21841.9 2907.91 21857 2979.21C21792.2 2987.85 21722 2992.17 21646.3 2992.17C21609.6 2992.17 21591.2 2975.97 21591.2 2943.56V1660.15C21591.2 1614.78 21582.6 1582.37 21565.3 1562.92C21550.2 1543.48 21519.9 1533.75 21474.6 1533.75C21472.4 1477.58 21486.5 1434.37 21516.7 1404.12C21549.1 1373.87 21599.9 1358.74 21669 1358.74C21740.3 1358.74 21790 1392.23 21818.1 1459.21C21885.1 1392.23 21965 1358.74 22057.9 1358.74C22153 1358.74 22224.3 1400.88 22271.8 1485.14C22345.3 1400.88 22426.3 1358.74 22514.9 1358.74C22605.7 1358.74 22674.8 1385.75 22722.3 1439.77C22769.9 1493.78 22793.6 1570.48 22793.6 1669.87V2710.21C22793.6 2755.58 22801.2 2787.99 22816.3 2807.44C22833.6 2826.89 22864.9 2836.61 22910.3 2836.61C22912.5 2892.78 22897.3 2936 22864.9 2966.25C22834.7 2996.49 22789.3 3011.62 22728.8 3011.62C22668.3 3011.62 22622.9 2993.25 22592.7 2956.52C22564.6 2919.79 22550.6 2859.29 22550.6 2775.03V1689.32C22550.6 1618.02 22517.1 1582.37 22450.1 1582.37C22391.8 1582.37 22346.4 1615.86 22314 1682.84V2713.45C22314 2819.32 22321.5 2907.91 22336.7 2979.21C22271.8 2987.85 22201.6 2992.17 22126 2992.17C22089.3 2992.17 22070.9 2975.97 22070.9 2943.56V1689.32C22070.9 1618.02 22037.4 1582.37 21970.4 1582.37C21912.1 1582.37 21866.7 1615.86 21834.3 1682.84V2713.45ZM23529.5 1705.52C23529.5 1662.31 23516.5 1628.82 23490.6 1605.05C23464.7 1579.13 23432.3 1566.16 23393.4 1566.16C23313.4 1566.16 23273.5 1599.65 23273.5 1666.63V2130.09L23429 2013.41C23496 1963.72 23529.5 1861.09 23529.5 1705.52ZM23030.4 2690.77V1676.35C23030.4 1464.61 23154.6 1358.74 23403.1 1358.74C23653.7 1358.74 23779 1477.58 23779 1715.25C23779 1810.31 23761.8 1897.82 23727.2 1977.76C23692.6 2057.7 23645.1 2118.2 23584.6 2159.25L23273.5 2373.15V2668.08C23273.5 2758.83 23315.6 2804.2 23399.9 2804.2C23486.3 2804.2 23529.5 2753.42 23529.5 2651.87V2577.33L23519.8 2425.01C23547.9 2418.53 23575.9 2415.29 23604 2415.29C23634.3 2415.29 23662.4 2419.61 23688.3 2428.25C23740.2 2441.21 23766.1 2466.06 23766.1 2502.79V2736.14C23766.1 2822.56 23731.5 2890.62 23662.4 2940.32C23595.4 2987.85 23505.7 3011.62 23393.4 3011.62C23151.4 3011.62 23030.4 2904.67 23030.4 2690.77Z" fill="white"/>
<rect x="7453" y="3656.78" width="16402.4" height="76.5574" fill="white"/>
<path d="M7483.59 5121.93H7392.11L7656.7 4401.34H7746.78L8011.37 5121.93H7919.89L7704.55 4515.34H7698.92L7483.59 5121.93ZM7517.37 4840.45H7886.11V4917.86H7517.37V4840.45ZM8402.27 5121.93V4401.34H8645.75C8702.28 4401.34 8748.49 4411.54 8784.38 4431.95C8820.51 4452.12 8847.25 4479.45 8864.6 4513.93C8881.96 4548.41 8890.64 4586.88 8890.64 4629.34C8890.64 4671.8 8881.96 4710.38 8864.6 4745.1C8847.48 4779.81 8820.98 4807.49 8785.09 4828.13C8749.2 4848.54 8703.22 4858.75 8647.16 4858.75H8472.64V4781.34H8644.35C8683.05 4781.34 8714.13 4774.65 8737.59 4761.28C8761.04 4747.91 8778.05 4729.85 8788.6 4707.1C8799.4 4684.11 8804.79 4658.19 8804.79 4629.34C8804.79 4600.49 8799.4 4574.69 8788.6 4551.93C8778.05 4529.18 8760.93 4511.35 8737.23 4498.45C8713.54 4485.32 8682.11 4478.75 8642.94 4478.75H8489.53V5121.93H8402.27ZM9102.98 4401.34V5121.93H9019.95V4401.34H9102.98ZM9414.11 5134.6C9379.86 5134.6 9348.78 5128.15 9320.87 5115.24C9292.95 5102.11 9270.79 5083.23 9254.37 5058.6C9237.95 5033.73 9229.74 5003.71 9229.74 4968.52C9229.74 4937.56 9235.84 4912.46 9248.03 4893.23C9260.23 4873.76 9276.53 4858.51 9296.94 4847.49C9317.35 4836.46 9339.87 4828.25 9364.5 4822.86C9389.36 4817.23 9414.34 4812.77 9439.44 4809.49C9472.28 4805.26 9498.9 4802.1 9519.31 4799.99C9539.95 4797.64 9554.96 4793.77 9564.35 4788.38C9573.96 4782.98 9578.77 4773.6 9578.77 4760.23V4757.41C9578.77 4722.7 9569.27 4695.72 9550.27 4676.49C9531.51 4657.25 9503.01 4647.64 9464.77 4647.64C9425.13 4647.64 9394.05 4656.31 9371.53 4673.67C9349.01 4691.03 9333.18 4709.56 9324.03 4729.26L9245.22 4701.12C9259.29 4668.28 9278.06 4642.71 9301.51 4624.41C9325.21 4605.88 9351.01 4592.98 9378.92 4585.71C9407.07 4578.2 9434.75 4574.45 9461.96 4574.45C9479.32 4574.45 9499.25 4576.56 9521.77 4580.78C9544.53 4584.77 9566.46 4593.1 9587.57 4605.77C9608.91 4618.43 9626.62 4637.55 9640.7 4663.12C9654.77 4688.68 9661.81 4722.93 9661.81 4765.86V5121.93H9578.77V5048.74H9574.55C9568.92 5060.47 9559.54 5073.02 9546.4 5086.39C9533.27 5099.76 9515.79 5111.14 9493.98 5120.52C9472.16 5129.9 9445.54 5134.6 9414.11 5134.6ZM9426.77 5060C9459.61 5060 9487.29 5053.55 9509.81 5040.65C9532.56 5027.75 9549.69 5011.1 9561.18 4990.69C9572.91 4970.28 9578.77 4948.82 9578.77 4926.3V4850.3C9575.25 4854.52 9567.51 4858.39 9555.55 4861.91C9543.82 4865.2 9530.22 4868.13 9514.74 4870.71C9499.49 4873.05 9484.59 4875.17 9470.05 4877.04C9455.74 4878.68 9444.13 4880.09 9435.22 4881.26C9413.64 4884.08 9393.46 4888.65 9374.7 4894.99C9356.17 4901.09 9341.16 4910.35 9329.66 4922.78C9318.4 4934.98 9312.77 4951.63 9312.77 4972.75C9312.77 5001.6 9323.45 5023.41 9344.79 5038.19C9366.37 5052.73 9393.7 5060 9426.77 5060ZM10032.9 5133.19C9982.26 5133.19 9938.63 5121.23 9902.03 5097.3C9865.44 5073.37 9837.29 5040.42 9817.59 4998.43C9797.89 4956.44 9788.04 4908.47 9788.04 4854.52C9788.04 4799.63 9798.12 4751.2 9818.29 4709.21C9838.7 4666.99 9867.08 4634.03 9903.44 4610.34C9940.03 4586.41 9982.73 4574.45 10031.5 4574.45C10069.5 4574.45 10103.8 4581.49 10134.3 4595.56C10164.7 4609.64 10189.7 4629.34 10209.2 4654.67C10228.7 4680.01 10240.7 4709.56 10245.4 4743.34H10162.4C10156.1 4718.71 10142 4696.89 10120.2 4677.89C10098.6 4658.66 10069.5 4649.04 10032.9 4649.04C10000.6 4649.04 9972.17 4657.49 9947.78 4674.38C9923.61 4691.03 9904.73 4714.6 9891.13 4745.1C9877.76 4775.36 9871.07 4810.89 9871.07 4851.71C9871.07 4893.46 9877.64 4929.82 9890.78 4960.78C9904.15 4991.75 9922.91 5015.79 9947.07 5032.91C9971.47 5050.03 10000.1 5058.6 10032.9 5058.6C10054.5 5058.6 10074.1 5054.84 10091.7 5047.34C10109.3 5039.83 10124.2 5029.04 10136.4 5014.97C10148.6 5000.89 10157.2 4984 10162.4 4964.3H10245.4C10240.7 4996.2 10229.1 5024.94 10210.6 5050.5C10192.3 5075.84 10168 5096.01 10137.8 5111.02C10107.7 5125.8 10072.8 5133.19 10032.9 5133.19ZM10593.4 5133.19C10541.3 5133.19 10496.4 5121.7 10458.7 5098.71C10421.1 5075.49 10392.2 5043.12 10371.8 5001.6C10351.6 4959.84 10341.5 4911.29 10341.5 4855.93C10341.5 4800.57 10351.6 4751.78 10371.8 4709.56C10392.2 4667.1 10420.5 4634.03 10456.9 4610.34C10493.5 4586.41 10536.2 4574.45 10585 4574.45C10613.1 4574.45 10640.9 4579.14 10668.4 4588.52C10695.8 4597.91 10720.8 4613.15 10743.3 4634.27C10765.8 4655.14 10783.8 4682.82 10797.1 4717.3C10810.5 4751.78 10817.2 4794.24 10817.2 4844.67V4879.86H10400.6V4808.08H10732.8C10732.8 4777.59 10726.7 4750.38 10714.5 4726.45C10702.5 4702.52 10685.4 4683.64 10663.1 4669.8C10641 4655.96 10615 4649.04 10585 4649.04C10551.9 4649.04 10523.3 4657.25 10499.1 4673.67C10475.2 4689.86 10456.8 4710.97 10443.9 4737.01C10431 4763.04 10424.5 4790.96 10424.5 4820.75V4868.6C10424.5 4909.41 10431.6 4944.01 10445.6 4972.39C10460 5000.54 10479.8 5022 10505.1 5036.78C10530.4 5051.33 10559.9 5058.6 10593.4 5058.6C10615.2 5058.6 10634.9 5055.55 10652.5 5049.45C10670.4 5043.12 10685.7 5033.73 10698.6 5021.3C10711.5 5008.63 10721.5 4992.92 10728.5 4974.15L10808.8 4996.67C10800.3 5023.88 10786.1 5047.81 10766.2 5068.45C10746.2 5088.86 10721.6 5104.81 10692.3 5116.3C10663 5127.56 10630 5133.19 10593.4 5133.19ZM11457.2 4581.49V4651.86H11177.1V4581.49H11457.2ZM11258.8 4452.01H11341.8V4967.12C11341.8 4990.57 11345.2 5008.16 11352 5019.89C11359 5031.39 11368 5039.13 11378.7 5043.12C11389.8 5046.87 11401.4 5048.74 11413.6 5048.74C11422.7 5048.74 11430.2 5048.28 11436.1 5047.34C11442 5046.16 11446.7 5045.23 11450.2 5044.52L11467.1 5119.11C11461.4 5121.23 11453.6 5123.34 11443.5 5125.45C11433.4 5127.79 11420.6 5128.97 11405.1 5128.97C11381.7 5128.97 11358.7 5123.92 11336.2 5113.84C11313.9 5103.75 11295.4 5088.39 11280.6 5067.74C11266 5047.1 11258.8 5021.07 11258.8 4989.63V4452.01ZM11795.9 5133.19C11747.1 5133.19 11704.3 5121.58 11667.4 5098.36C11630.9 5075.13 11602.2 5042.65 11581.6 5000.89C11561.2 4959.14 11551 4910.35 11551 4854.52C11551 4798.23 11561.2 4749.09 11581.6 4707.1C11602.2 4665.11 11630.9 4632.51 11667.4 4609.28C11704.3 4586.06 11747.1 4574.45 11795.9 4574.45C11844.7 4574.45 11887.3 4586.06 11923.9 4609.28C11960.8 4632.51 11989.4 4665.11 12009.8 4707.1C12030.4 4749.09 12040.8 4798.23 12040.8 4854.52C12040.8 4910.35 12030.4 4959.14 12009.8 5000.89C11989.4 5042.65 11960.8 5075.13 11923.9 5098.36C11887.3 5121.58 11844.7 5133.19 11795.9 5133.19ZM11795.9 5058.6C11832.9 5058.6 11863.4 5049.1 11887.3 5030.1C11911.3 5011.1 11929 4986.12 11940.5 4955.15C11952 4924.19 11957.7 4890.65 11957.7 4854.52C11957.7 4818.4 11952 4784.74 11940.5 4753.54C11929 4722.35 11911.3 4697.13 11887.3 4677.89C11863.4 4658.66 11832.9 4649.04 11795.9 4649.04C11758.8 4649.04 11728.3 4658.66 11704.4 4677.89C11680.5 4697.13 11662.8 4722.35 11651.3 4753.54C11639.8 4784.74 11634 4818.4 11634 4854.52C11634 4890.65 11639.8 4924.19 11651.3 4955.15C11662.8 4986.12 11680.5 5011.1 11704.4 5030.1C11728.3 5049.1 11758.8 5058.6 11795.9 5058.6ZM12457.4 5121.93V4401.34H12709.4C12759.6 4401.34 12801 4410.02 12833.6 4427.38C12866.2 4444.5 12890.4 4467.61 12906.4 4496.69C12922.3 4525.54 12930.3 4557.56 12930.3 4592.75C12930.3 4623.71 12924.8 4649.28 12913.8 4669.45C12903 4689.62 12888.7 4705.57 12870.9 4717.3C12853.3 4729.03 12834.1 4737.71 12813.5 4743.34V4750.38C12835.6 4751.78 12857.7 4759.52 12880 4773.6C12902.3 4787.67 12920.9 4807.84 12936 4834.12C12951 4860.39 12958.5 4892.52 12958.5 4930.52C12958.5 4966.65 12950.3 4999.13 12933.8 5027.99C12917.4 5056.84 12891.5 5079.71 12856.1 5096.6C12820.7 5113.49 12774.6 5121.93 12717.8 5121.93H12457.4ZM12544.7 5044.52H12717.8C12774.8 5044.52 12815.3 5033.5 12839.2 5011.45C12863.4 4989.16 12875.4 4962.19 12875.4 4930.52C12875.4 4906.13 12869.2 4883.61 12856.8 4862.97C12844.4 4842.09 12826.6 4825.44 12803.7 4813.01C12780.7 4800.34 12753.5 4794.01 12722 4794.01H12544.7V5044.52ZM12544.7 4718.01H12706.5C12732.8 4718.01 12756.5 4712.85 12777.6 4702.52C12799 4692.2 12815.9 4677.66 12828.3 4658.89C12841 4640.13 12847.3 4618.08 12847.3 4592.75C12847.3 4561.08 12836.3 4534.22 12814.2 4512.17C12792.2 4489.89 12757.2 4478.75 12709.4 4478.75H12544.7V4718.01ZM13317.2 5133.19C13265.1 5133.19 13220.2 5121.7 13182.4 5098.71C13144.9 5075.49 13115.9 5043.12 13095.5 5001.6C13075.3 4959.84 13065.3 4911.29 13065.3 4855.93C13065.3 4800.57 13075.3 4751.78 13095.5 4709.56C13115.9 4667.1 13144.3 4634.03 13180.7 4610.34C13217.3 4586.41 13259.9 4574.45 13308.7 4574.45C13336.9 4574.45 13364.7 4579.14 13392.1 4588.52C13419.6 4597.91 13444.6 4613.15 13467.1 4634.27C13489.6 4655.14 13507.5 4682.82 13520.9 4717.3C13534.3 4751.78 13541 4794.24 13541 4844.67V4879.86H13124.4V4808.08H13456.5C13456.5 4777.59 13450.4 4750.38 13438.2 4726.45C13426.3 4702.52 13409.1 4683.64 13386.8 4669.8C13364.8 4655.96 13338.8 4649.04 13308.7 4649.04C13275.7 4649.04 13247 4657.25 13222.9 4673.67C13199 4689.86 13180.5 4710.97 13167.6 4737.01C13154.7 4763.04 13148.3 4790.96 13148.3 4820.75V4868.6C13148.3 4909.41 13155.3 4944.01 13169.4 4972.39C13183.7 5000.54 13203.5 5022 13228.9 5036.78C13254.2 5051.33 13283.6 5058.6 13317.2 5058.6C13339 5058.6 13358.7 5055.55 13376.3 5049.45C13394.1 5043.12 13409.5 5033.73 13422.4 5021.3C13435.3 5008.63 13445.3 4992.92 13452.3 4974.15L13532.5 4996.67C13524.1 5023.88 13509.9 5047.81 13489.9 5068.45C13470 5088.86 13445.4 5104.81 13416.1 5116.3C13386.7 5127.56 13353.8 5133.19 13317.2 5133.19ZM13750.3 4401.34V5121.93H13667.3V4401.34H13750.3ZM14122 5133.19C14073.2 5133.19 14030.4 5121.58 13993.5 5098.36C13956.9 5075.13 13928.3 5042.65 13907.7 5000.89C13887.3 4959.14 13877.1 4910.35 13877.1 4854.52C13877.1 4798.23 13887.3 4749.09 13907.7 4707.1C13928.3 4665.11 13956.9 4632.51 13993.5 4609.28C14030.4 4586.06 14073.2 4574.45 14122 4574.45C14170.7 4574.45 14213.4 4586.06 14250 4609.28C14286.9 4632.51 14315.5 4665.11 14335.9 4707.1C14356.5 4749.09 14366.8 4798.23 14366.8 4854.52C14366.8 4910.35 14356.5 4959.14 14335.9 5000.89C14315.5 5042.65 14286.9 5075.13 14250 5098.36C14213.4 5121.58 14170.7 5133.19 14122 5133.19ZM14122 5058.6C14159 5058.6 14189.5 5049.1 14213.4 5030.1C14237.4 5011.1 14255.1 4986.12 14266.6 4955.15C14278.1 4924.19 14283.8 4890.65 14283.8 4854.52C14283.8 4818.4 14278.1 4784.74 14266.6 4753.54C14255.1 4722.35 14237.4 4697.13 14213.4 4677.89C14189.5 4658.66 14159 4649.04 14122 4649.04C14084.9 4649.04 14054.4 4658.66 14030.5 4677.89C14006.5 4697.13 13988.8 4722.35 13977.3 4753.54C13965.8 4784.74 13960.1 4818.4 13960.1 4854.52C13960.1 4890.65 13965.8 4924.19 13977.3 4955.15C13988.8 4986.12 14006.5 5011.1 14030.5 5030.1C14054.4 5049.1 14084.9 5058.6 14122 5058.6ZM14576.6 4796.82V5121.93H14493.6V4581.49H14573.8V4665.93H14580.9C14593.5 4638.49 14612.8 4616.44 14638.6 4599.78C14664.4 4582.9 14697.7 4574.45 14738.5 4574.45C14775.1 4574.45 14807.1 4581.96 14834.5 4596.97C14862 4611.75 14883.3 4634.27 14898.6 4664.52C14913.8 4694.55 14921.4 4732.55 14921.4 4778.52V5121.93H14838.4V4784.15C14838.4 4741.7 14827.4 4708.62 14805.3 4684.93C14783.3 4661.01 14753 4649.04 14714.6 4649.04C14688 4649.04 14664.4 4654.79 14643.5 4666.28C14622.8 4677.78 14606.5 4694.55 14594.6 4716.6C14582.6 4738.65 14576.6 4765.39 14576.6 4796.82ZM15291.3 5335.85C15251.2 5335.85 15216.7 5330.69 15187.9 5320.37C15159 5310.29 15135 5296.92 15115.8 5280.26C15096.8 5263.84 15081.6 5246.25 15070.4 5227.48L15136.5 5181.04C15144 5190.89 15153.5 5202.15 15165 5214.82C15176.5 5227.72 15192.2 5238.86 15212.2 5248.24C15232.3 5257.86 15258.7 5262.67 15291.3 5262.67C15335 5262.67 15371 5252.11 15399.3 5231C15427.7 5209.89 15441.9 5176.82 15441.9 5131.78V5022H15434.9C15428.8 5031.86 15420.1 5044.05 15408.8 5058.6C15397.8 5072.91 15381.9 5085.69 15361 5096.95C15340.3 5107.97 15312.4 5113.49 15277.3 5113.49C15233.6 5113.49 15194.4 5103.16 15159.7 5082.52C15125.3 5061.88 15097.9 5031.86 15077.8 4992.45C15057.8 4953.04 15047.8 4905.19 15047.8 4848.89C15047.8 4793.54 15057.6 4745.33 15077 4704.28C15096.5 4663 15123.6 4631.1 15158.3 4608.58C15193 4585.83 15233.2 4574.45 15278.7 4574.45C15313.8 4574.45 15341.8 4580.31 15362.4 4592.04C15383.3 4603.54 15399.2 4616.67 15410.2 4631.45C15421.5 4645.99 15430.2 4657.96 15436.3 4667.34H15444.7V4581.49H15525V5137.41C15525 5183.86 15514.4 5221.62 15493.3 5250.71C15472.4 5280.03 15444.3 5301.49 15408.8 5315.1C15373.7 5328.93 15334.5 5335.85 15291.3 5335.85ZM15288.5 5038.89C15321.8 5038.89 15350 5031.27 15373 5016.02C15395.9 5000.78 15413.4 4978.84 15425.4 4950.23C15437.3 4921.61 15443.3 4887.36 15443.3 4847.49C15443.3 4808.55 15437.5 4774.18 15425.7 4744.39C15414 4714.6 15396.6 4691.27 15373.7 4674.38C15350.7 4657.49 15322.3 4649.04 15288.5 4649.04C15253.3 4649.04 15224 4657.96 15200.5 4675.78C15177.3 4693.61 15159.8 4717.54 15148.1 4747.56C15136.6 4777.59 15130.9 4810.89 15130.9 4847.49C15130.9 4885.02 15136.7 4918.21 15148.5 4947.06C15160.4 4975.68 15178 4998.2 15201.3 5014.62C15224.7 5030.8 15253.8 5038.89 15288.5 5038.89ZM15800.8 5023.41L15795.2 5061.41C15791.2 5088.15 15785.1 5116.77 15776.9 5147.26C15768.9 5177.76 15760.6 5206.49 15751.9 5233.47C15743.2 5260.44 15736.1 5281.9 15730.4 5297.85H15667.1C15670.1 5282.84 15674.1 5263.02 15679.1 5238.39C15684 5213.76 15688.9 5186.2 15693.8 5155.71C15699 5125.45 15703.2 5094.49 15706.5 5062.82L15710.7 5023.41H15800.8ZM16274.1 5121.93H16182.6L16447.2 4401.34H16537.3L16801.9 5121.93H16710.4L16495.1 4515.34H16489.5L16274.1 5121.93ZM16307.9 4840.45H16676.6V4917.86H16307.9V4840.45ZM17192.8 5121.93V4401.34H17436.3C17492.8 4401.34 17539 4411.54 17574.9 4431.95C17611 4452.12 17637.8 4479.45 17655.1 4513.93C17672.5 4548.41 17681.2 4586.88 17681.2 4629.34C17681.2 4671.8 17672.5 4710.38 17655.1 4745.1C17638 4779.81 17611.5 4807.49 17575.6 4828.13C17539.7 4848.54 17493.8 4858.75 17437.7 4858.75H17263.2V4781.34H17434.9C17473.6 4781.34 17504.7 4774.65 17528.1 4761.28C17551.6 4747.91 17568.6 4729.85 17579.1 4707.1C17589.9 4684.11 17595.3 4658.19 17595.3 4629.34C17595.3 4600.49 17589.9 4574.69 17579.1 4551.93C17568.6 4529.18 17551.5 4511.35 17527.8 4498.45C17504.1 4485.32 17472.6 4478.75 17433.5 4478.75H17280.1V5121.93H17192.8ZM17893.5 4401.34V5121.93H17810.5V4401.34H17893.5ZM18204.6 5134.6C18170.4 5134.6 18139.3 5128.15 18111.4 5115.24C18083.5 5102.11 18061.3 5083.23 18044.9 5058.6C18028.5 5033.73 18020.3 5003.71 18020.3 4968.52C18020.3 4937.56 18026.4 4912.46 18038.6 4893.23C18050.8 4873.76 18067.1 4858.51 18087.5 4847.49C18107.9 4836.46 18130.4 4828.25 18155 4822.86C18179.9 4817.23 18204.9 4812.77 18230 4809.49C18262.8 4805.26 18289.4 4802.1 18309.8 4799.99C18330.5 4797.64 18345.5 4793.77 18354.9 4788.38C18364.5 4782.98 18369.3 4773.6 18369.3 4760.23V4757.41C18369.3 4722.7 18359.8 4695.72 18340.8 4676.49C18322 4657.25 18293.5 4647.64 18255.3 4647.64C18215.7 4647.64 18184.6 4656.31 18162.1 4673.67C18139.6 4691.03 18123.7 4709.56 18114.6 4729.26L18035.8 4701.12C18049.8 4668.28 18068.6 4642.71 18092.1 4624.41C18115.7 4605.88 18141.5 4592.98 18169.5 4585.71C18197.6 4578.2 18225.3 4574.45 18252.5 4574.45C18269.9 4574.45 18289.8 4576.56 18312.3 4580.78C18335.1 4584.77 18357 4593.1 18378.1 4605.77C18399.5 4618.43 18417.2 4637.55 18431.2 4663.12C18445.3 4688.68 18452.3 4722.93 18452.3 4765.86V5121.93H18369.3V5048.74H18365.1C18359.5 5060.47 18350.1 5073.02 18336.9 5086.39C18323.8 5099.76 18306.3 5111.14 18284.5 5120.52C18262.7 5129.9 18236.1 5134.6 18204.6 5134.6ZM18217.3 5060C18250.1 5060 18277.8 5053.55 18300.3 5040.65C18323.1 5027.75 18340.2 5011.1 18351.7 4990.69C18363.4 4970.28 18369.3 4948.82 18369.3 4926.3V4850.3C18365.8 4854.52 18358.1 4858.39 18346.1 4861.91C18334.4 4865.2 18320.8 4868.13 18305.3 4870.71C18290 4873.05 18275.1 4875.17 18260.6 4877.04C18246.3 4878.68 18234.7 4880.09 18225.8 4881.26C18204.2 4884.08 18184 4888.65 18165.2 4894.99C18146.7 4901.09 18131.7 4910.35 18120.2 4922.78C18108.9 4934.98 18103.3 4951.63 18103.3 4972.75C18103.3 5001.6 18114 5023.41 18135.3 5038.19C18156.9 5052.73 18184.2 5060 18217.3 5060ZM18823.5 5133.19C18772.8 5133.19 18729.2 5121.23 18692.6 5097.3C18656 5073.37 18627.8 5040.42 18608.1 4998.43C18588.4 4956.44 18578.6 4908.47 18578.6 4854.52C18578.6 4799.63 18588.7 4751.2 18608.8 4709.21C18629.2 4666.99 18657.6 4634.03 18694 4610.34C18730.6 4586.41 18773.3 4574.45 18822.1 4574.45C18860.1 4574.45 18894.3 4581.49 18924.8 4595.56C18955.3 4609.64 18980.3 4629.34 18999.7 4654.67C19019.2 4680.01 19031.3 4709.56 19036 4743.34H18952.9C18946.6 4718.71 18932.5 4696.89 18910.7 4677.89C18889.1 4658.66 18860.1 4649.04 18823.5 4649.04C18791.1 4649.04 18762.7 4657.49 18738.3 4674.38C18714.2 4691.03 18695.3 4714.6 18681.7 4745.1C18668.3 4775.36 18661.6 4810.89 18661.6 4851.71C18661.6 4893.46 18668.2 4929.82 18681.3 4960.78C18694.7 4991.75 18713.4 5015.79 18737.6 5032.91C18762 5050.03 18790.6 5058.6 18823.5 5058.6C18845 5058.6 18864.6 5054.84 18882.2 5047.34C18899.8 5039.83 18914.7 5029.04 18926.9 5014.97C18939.1 5000.89 18947.8 4984 18952.9 4964.3H19036C19031.3 4996.2 19019.7 5024.94 19001.1 5050.5C18982.8 5075.84 18958.6 5096.01 18928.3 5111.02C18898.3 5125.8 18863.3 5133.19 18823.5 5133.19ZM19384 5133.19C19331.9 5133.19 19287 5121.7 19249.2 5098.71C19211.7 5075.49 19182.7 5043.12 19162.3 5001.6C19142.1 4959.84 19132 4911.29 19132 4855.93C19132 4800.57 19142.1 4751.78 19162.3 4709.56C19182.7 4667.1 19211.1 4634.03 19247.4 4610.34C19284 4586.41 19326.7 4574.45 19375.5 4574.45C19403.7 4574.45 19431.5 4579.14 19458.9 4588.52C19486.3 4597.91 19511.3 4613.15 19533.8 4634.27C19556.4 4655.14 19574.3 4682.82 19587.7 4717.3C19601 4751.78 19607.7 4794.24 19607.7 4844.67V4879.86H19191.1V4808.08H19523.3C19523.3 4777.59 19517.2 4750.38 19505 4726.45C19493 4702.52 19475.9 4683.64 19453.6 4669.8C19431.6 4655.96 19405.5 4649.04 19375.5 4649.04C19342.4 4649.04 19313.8 4657.25 19289.7 4673.67C19265.7 4689.86 19247.3 4710.97 19234.4 4737.01C19221.5 4763.04 19215.1 4790.96 19215.1 4820.75V4868.6C19215.1 4909.41 19222.1 4944.01 19236.2 4972.39C19250.5 5000.54 19270.3 5022 19295.6 5036.78C19321 5051.33 19350.4 5058.6 19384 5058.6C19405.8 5058.6 19425.5 5055.55 19443.1 5049.45C19460.9 5043.12 19476.3 5033.73 19489.2 5021.3C19502.1 5008.63 19512 4992.92 19519.1 4974.15L19599.3 4996.67C19590.8 5023.88 19576.7 5047.81 19556.7 5068.45C19536.8 5088.86 19512.1 5104.81 19482.8 5116.3C19453.5 5127.56 19420.5 5133.19 19384 5133.19ZM20247.7 4581.49V4651.86H19967.7V4581.49H20247.7ZM20049.3 4452.01H20132.3V4967.12C20132.3 4990.57 20135.7 5008.16 20142.5 5019.89C20149.6 5031.39 20158.5 5039.13 20169.3 5043.12C20180.3 5046.87 20191.9 5048.74 20204.1 5048.74C20213.3 5048.74 20220.8 5048.28 20226.6 5047.34C20232.5 5046.16 20237.2 5045.23 20240.7 5044.52L20257.6 5119.11C20252 5121.23 20244.1 5123.34 20234 5125.45C20223.9 5127.79 20211.2 5128.97 20195.7 5128.97C20172.2 5128.97 20149.2 5123.92 20126.7 5113.84C20104.4 5103.75 20085.9 5088.39 20071.1 5067.74C20056.6 5047.1 20049.3 5021.07 20049.3 4989.63V4452.01ZM20586.4 5133.19C20537.6 5133.19 20494.8 5121.58 20458 5098.36C20421.4 5075.13 20392.8 5042.65 20372.1 5000.89C20351.7 4959.14 20341.5 4910.35 20341.5 4854.52C20341.5 4798.23 20351.7 4749.09 20372.1 4707.1C20392.8 4665.11 20421.4 4632.51 20458 4609.28C20494.8 4586.06 20537.6 4574.45 20586.4 4574.45C20635.2 4574.45 20677.9 4586.06 20714.5 4609.28C20751.3 4632.51 20779.9 4665.11 20800.3 4707.1C20821 4749.09 20831.3 4798.23 20831.3 4854.52C20831.3 4910.35 20821 4959.14 20800.3 5000.89C20779.9 5042.65 20751.3 5075.13 20714.5 5098.36C20677.9 5121.58 20635.2 5133.19 20586.4 5133.19ZM20586.4 5058.6C20623.5 5058.6 20654 5049.1 20677.9 5030.1C20701.8 5011.1 20719.5 4986.12 20731 4955.15C20742.5 4924.19 20748.3 4890.65 20748.3 4854.52C20748.3 4818.4 20742.5 4784.74 20731 4753.54C20719.5 4722.35 20701.8 4697.13 20677.9 4677.89C20654 4658.66 20623.5 4649.04 20586.4 4649.04C20549.3 4649.04 20518.9 4658.66 20494.9 4677.89C20471 4697.13 20453.3 4722.35 20441.8 4753.54C20430.3 4784.74 20424.6 4818.4 20424.6 4854.52C20424.6 4890.65 20430.3 4924.19 20441.8 4955.15C20453.3 4986.12 20471 5011.1 20494.9 5030.1C20518.9 5049.1 20549.3 5058.6 20586.4 5058.6ZM21208.6 4478.75V4401.34H21749V4478.75H21522.4V5121.93H21435.2V4478.75H21208.6ZM21955.5 4796.82V5121.93H21872.4V4401.34H21955.5V4665.93H21962.5C21975.2 4638.02 21994.2 4615.85 22019.5 4599.43C22045.1 4582.78 22079.1 4574.45 22121.5 4574.45C22158.4 4574.45 22190.6 4581.84 22218.3 4596.62C22246 4611.16 22267.4 4633.56 22282.7 4663.82C22298.2 4693.85 22305.9 4732.08 22305.9 4778.52V5121.93H22222.9V4784.15C22222.9 4741.23 22211.7 4708.04 22189.4 4684.58C22167.4 4660.89 22136.8 4649.04 22097.6 4649.04C22070.4 4649.04 22046 4654.79 22024.4 4666.28C22003.1 4677.78 21986.2 4694.55 21973.8 4716.6C21961.6 4738.65 21955.5 4765.39 21955.5 4796.82ZM22457.8 5121.93V4581.49H22538V4663.12H22543.7C22553.5 4636.38 22571.3 4614.68 22597.1 4598.02C22622.9 4581.37 22652 4573.04 22684.4 4573.04C22690.5 4573.04 22698.1 4573.16 22707.3 4573.4C22716.4 4573.63 22723.3 4573.98 22728 4574.45V4658.89C22725.2 4658.19 22718.8 4657.14 22708.7 4655.73C22698.8 4654.09 22688.4 4653.27 22677.4 4653.27C22651.1 4653.27 22627.6 4658.78 22607 4669.8C22586.6 4680.59 22570.4 4695.6 22558.4 4714.84C22546.7 4733.84 22540.8 4755.54 22540.8 4779.93V5121.93H22457.8ZM22826.5 5121.93V4581.49H22909.5V5121.93H22826.5ZM22868.7 4491.41C22852.5 4491.41 22838.5 4485.9 22826.8 4474.88C22815.3 4463.85 22809.6 4450.6 22809.6 4435.12C22809.6 4419.64 22815.3 4406.38 22826.8 4395.36C22838.5 4384.33 22852.5 4378.82 22868.7 4378.82C22884.9 4378.82 22898.7 4384.33 22910.2 4395.36C22921.9 4406.38 22927.8 4419.64 22927.8 4435.12C22927.8 4450.6 22921.9 4463.85 22910.2 4474.88C22898.7 4485.9 22884.9 4491.41 22868.7 4491.41ZM23503.5 4581.49L23303.7 5121.93H23219.2L23019.4 4581.49H23109.4L23258.6 5012.15H23264.2L23413.4 4581.49H23503.5ZM23820.3 5133.19C23768.3 5133.19 23723.4 5121.7 23685.6 5098.71C23648.1 5075.49 23619.1 5043.12 23598.7 5001.6C23578.5 4959.84 23568.4 4911.29 23568.4 4855.93C23568.4 4800.57 23578.5 4751.78 23598.7 4709.56C23619.1 4667.1 23647.5 4634.03 23683.8 4610.34C23720.4 4586.41 23763.1 4574.45 23811.9 4574.45C23840.1 4574.45 23867.8 4579.14 23895.3 4588.52C23922.7 4597.91 23947.7 4613.15 23970.2 4634.27C23992.8 4655.14 24010.7 4682.82 24024.1 4717.3C24037.4 4751.78 24044.1 4794.24 24044.1 4844.67V4879.86H23627.5V4808.08H23959.7C23959.7 4777.59 23953.6 4750.38 23941.4 4726.45C23929.4 4702.52 23912.3 4683.64 23890 4669.8C23868 4655.96 23841.9 4649.04 23811.9 4649.04C23778.8 4649.04 23750.2 4657.25 23726.1 4673.67C23702.1 4689.86 23683.7 4710.97 23670.8 4737.01C23657.9 4763.04 23651.5 4790.96 23651.5 4820.75V4868.6C23651.5 4909.41 23658.5 4944.01 23672.6 4972.39C23686.9 5000.54 23706.7 5022 23732 5036.78C23757.4 5051.33 23786.8 5058.6 23820.3 5058.6C23842.2 5058.6 23861.9 5055.55 23879.5 5049.45C23897.3 5043.12 23912.7 5033.73 23925.6 5021.3C23938.5 5008.63 23948.4 4992.92 23955.5 4974.15L24035.7 4996.67C24027.2 5023.88 24013 5047.81 23993.1 5068.45C23973.2 5088.86 23948.5 5104.81 23919.2 5116.3C23889.9 5127.56 23856.9 5133.19 23820.3 5133.19Z" fill="white"/>
<path d="M4 2668.15C101.765 4487.66 1914.03 5087.37 2807.94 5159.79C1752.22 5057.95 1090.27 3941.13 1008.8 3801.95C943.626 3690.61 705.551 3393.47 594.661 3258.81C727.05 3336.89 1005.41 3571.12 1144.59 3778.19C1255.93 3943.84 1550.81 4304.35 1684.33 4463.9C1640.88 4360.7 1614.17 4169.7 1606.25 4087.1C1497.62 3006.25 492.823 2690.78 4 2668.15Z" fill="#5DB034" stroke="#5DB034" stroke-width="6.7892"/>
<path d="M3819.53 5146.22C5262.23 4759.23 6019.23 5054.55 6280.61 5336.31C5160.39 5037.59 5214.71 5231.08 3592.09 5543.38C2293.99 5793.22 1358.44 5146.22 1056.32 4698.12C1501.01 4996.85 2422.35 5521 3819.53 5146.22Z" fill="#5DB034"/>
<path d="M1276.97 2220.07V3082.3C1124.9 2951.95 1009.93 2892.2 971.46 2878.62V2488.24C971.46 2473.24 959.302 2461.09 944.304 2461.09H583.362C532.377 2461.09 509.487 2397.18 548.879 2364.81L1555.33 1537.75V556.715H2088.28V1123.61L3397.49 86.8966C3461.77 35.9961 3552.64 36.0579 3616.85 87.046L6469.29 2352.13C6514.61 2388.12 6489.16 2461.09 6431.29 2461.09H6053.18C6038.18 2461.09 6026.02 2473.24 6026.02 2488.24V5085.11C5963.56 5033.51 5812.16 4984.41 5744.27 4966.3V2233.65L3544.9 504.855C3522.78 487.469 3491.65 487.433 3469.49 504.769L1276.97 2220.07Z" fill="#54B872" stroke="#54B872" stroke-width="6.7892"/>
<path d="M2253.54 3494.28C2199.86 2760.73 3094.44 2438.68 3523.84 3029.1C3774.26 2528.15 4930.39 2658.03 4776.31 3494.28C4654.83 4153.61 3904.87 4689.77 3555.13 4873.76C3535.59 4884.04 3512.48 4883.71 3493.22 4872.91C3353.88 4794.77 3173 4678.16 2992.63 4536.05V3653.24C2992.63 3628.1 2989.34 3585.49 2969.3 3548.62C2959.14 3529.93 2944.53 3512.45 2923.72 3499.71C2902.88 3486.94 2876.76 3479.52 2844.54 3479.53C2812.23 3479.54 2786.77 3487.3 2767.15 3500.87C2747.58 3514.41 2735.12 3532.81 2727.21 3551.93C2711.76 3589.32 2712.83 3632.11 2712.83 3653.24H2746.6C2746.6 3630.47 2746 3594.86 2758.42 3564.83C2764.45 3550.23 2773.31 3537.66 2786.35 3528.64C2799.34 3519.66 2817.78 3513.3 2844.55 3513.3C2871.43 3513.29 2891.26 3519.42 2906.09 3528.5C2920.96 3537.61 2931.76 3550.27 2939.63 3564.75C2955.64 3594.2 2958.86 3630.03 2958.86 3653.24V4509.14C2736.53 4329.88 2518.95 4113.01 2385.17 3882.9C2430.4 3708.49 2585.12 3395.16 2823.74 3434.93C3145.79 3488.61 3056.33 3345.51 3038.44 3327.61C3021.18 3310.35 2587.76 3080.06 2268.05 3593.65C2260.87 3560.57 2255.96 3527.42 2253.54 3494.28Z" fill="url(#paint0_linear_348_169)"/>
<ellipse cx="2869.14" cy="2306.48" rx="347.785" ry="344.408" fill="#54B872"/>
<ellipse cx="2514.59" cy="2343.58" rx="121.556" ry="172.204" fill="#54B872"/>
<ellipse cx="4088.07" cy="2333.48" rx="344.408" ry="344.408" fill="#54B872"/>
<rect x="3245.2" y="1095.81" width="219.689" height="219.689" rx="13.7306" fill="#54B872" stroke="#54B872" stroke-width="5.49223"/>
<rect x="3245.2" y="1359.47" width="219.689" height="219.689" rx="13.7306" fill="#54B872" stroke="#54B872" stroke-width="5.49223"/>
<rect x="3508.81" y="1095.81" width="219.689" height="219.689" rx="13.7306" fill="#54B872" stroke="#54B872" stroke-width="5.49223"/>
<rect x="3508.81" y="1359.47" width="219.689" height="219.689" rx="13.7306" fill="#54B872" stroke="#54B872" stroke-width="5.49223"/>
<defs>
<linearGradient id="paint0_linear_348_169" x1="3790.94" y1="2758.98" x2="3669.38" y2="4251.41" gradientUnits="userSpaceOnUse">
<stop stop-color="#54B872"/>
<stop offset="1" stop-color="#5CB033"/>
</linearGradient>
</defs>
</svg>
