<svg width="6607" height="5599" viewBox="0 0 6607 5599" fill="none" xmlns="http://www.w3.org/2000/svg">
<path d="M4 2668.15C101.765 4487.66 1914.03 5087.37 2807.94 5159.79C1752.22 5057.95 1090.27 3941.13 1008.8 3801.95C943.626 3690.61 705.551 3393.47 594.661 3258.81C727.05 3336.89 1005.41 3571.12 1144.59 3778.19C1255.93 3943.84 1550.81 4304.35 1684.33 4463.9C1640.88 4360.7 1614.17 4169.7 1606.25 4087.1C1497.62 3006.25 492.823 2690.78 4 2668.15Z" fill="#5DB034" stroke="#5DB034" stroke-width="6.7892"/>
<path d="M3819.53 5146.22C5262.23 4759.23 6019.23 5054.55 6280.61 5336.31C5160.39 5037.59 5214.71 5231.08 3592.09 5543.38C2293.99 5793.22 1358.44 5146.22 1056.32 4698.12C1501.01 4996.85 2422.35 5521 3819.53 5146.22Z" fill="#5DB034"/>
<path d="M1276.97 2220.07V3082.3C1124.9 2951.95 1009.93 2892.2 971.46 2878.62V2488.24C971.46 2473.24 959.302 2461.09 944.304 2461.09H583.362C532.377 2461.09 509.487 2397.18 548.879 2364.81L1555.33 1537.75V556.715H2088.28V1123.61L3397.49 86.8966C3461.77 35.9961 3552.64 36.0579 3616.85 87.046L6469.29 2352.13C6514.61 2388.12 6489.16 2461.09 6431.29 2461.09H6053.18C6038.18 2461.09 6026.02 2473.24 6026.02 2488.24V5085.11C5963.56 5033.51 5812.16 4984.41 5744.27 4966.3V2233.65L3544.9 504.855C3522.78 487.469 3491.65 487.433 3469.49 504.769L1276.97 2220.07Z" fill="#54B872" stroke="#54B872" stroke-width="6.7892"/>
<path d="M2253.54 3494.28C2199.86 2760.73 3094.44 2438.68 3523.84 3029.1C3774.26 2528.15 4930.39 2658.03 4776.31 3494.28C4654.83 4153.61 3904.87 4689.77 3555.13 4873.76C3535.59 4884.04 3512.48 4883.71 3493.22 4872.91C3353.88 4794.77 3173 4678.16 2992.63 4536.05V3653.24C2992.63 3628.1 2989.34 3585.5 2969.3 3548.62C2959.14 3529.93 2944.53 3512.45 2923.72 3499.71C2902.88 3486.94 2876.76 3479.52 2844.54 3479.53C2812.23 3479.54 2786.77 3487.3 2767.15 3500.87C2747.58 3514.41 2735.12 3532.81 2727.21 3551.93C2711.76 3589.32 2712.83 3632.11 2712.83 3653.24H2746.6C2746.6 3630.47 2746 3594.87 2758.42 3564.83C2764.45 3550.23 2773.31 3537.66 2786.35 3528.65C2799.34 3519.66 2817.78 3513.3 2844.55 3513.3C2871.43 3513.29 2891.26 3519.42 2906.09 3528.5C2920.96 3537.61 2931.76 3550.27 2939.63 3564.75C2955.64 3594.21 2958.86 3630.03 2958.86 3653.24V4509.14C2736.53 4329.88 2518.95 4113.01 2385.17 3882.9C2430.4 3708.49 2585.12 3395.17 2823.74 3434.94C3145.79 3488.61 3056.33 3345.51 3038.44 3327.62C3021.18 3310.36 2587.76 3080.06 2268.05 3593.65C2260.87 3560.57 2255.96 3527.42 2253.54 3494.28Z" fill="url(#paint0_linear_348_213)"/>
<ellipse cx="2869.14" cy="2306.48" rx="347.785" ry="344.408" fill="#54B872"/>
<ellipse cx="2514.59" cy="2343.58" rx="121.556" ry="172.204" fill="#54B872"/>
<ellipse cx="4088.07" cy="2333.48" rx="344.408" ry="344.408" fill="#54B872"/>
<rect x="3245.2" y="1095.81" width="219.689" height="219.689" rx="13.7306" fill="#54B872" stroke="#54B872" stroke-width="5.49223"/>
<rect x="3245.2" y="1359.47" width="219.689" height="219.689" rx="13.7306" fill="#54B872" stroke="#54B872" stroke-width="5.49223"/>
<rect x="3508.81" y="1095.81" width="219.689" height="219.689" rx="13.7306" fill="#54B872" stroke="#54B872" stroke-width="5.49223"/>
<rect x="3508.81" y="1359.47" width="219.689" height="219.689" rx="13.7306" fill="#54B872" stroke="#54B872" stroke-width="5.49223"/>
<defs>
<linearGradient id="paint0_linear_348_213" x1="3790.94" y1="2758.98" x2="3669.38" y2="4251.41" gradientUnits="userSpaceOnUse">
<stop stop-color="#54B872"/>
<stop offset="1" stop-color="#5CB033"/>
</linearGradient>
</defs>
</svg>
