<svg width="12764" height="12405" viewBox="0 0 12764 12405" fill="none" xmlns="http://www.w3.org/2000/svg">
<path d="M768.651 10368.9C768.651 10438.2 738.975 10495.9 679.624 10542C621.921 10588.2 546.083 10611.3 452.11 10611.3C358.137 10611.3 283.948 10589.8 229.543 10547C175.137 10504.1 147.934 10441.5 147.934 10359V9216.51C147.934 9134.07 175.961 9069.78 232.016 9023.61C288.07 8977.45 363.083 8954.37 457.056 8954.37C552.678 8954.37 628.516 8975.8 684.57 9018.67C740.624 9059.89 768.651 9114.29 768.651 9181.89V9488.53C768.651 9518.21 747.219 9538.82 704.354 9550.36C681.273 9556.95 658.192 9560.25 635.11 9560.25C612.029 9560.25 588.948 9557.78 565.867 9552.83C570.813 9513.26 573.286 9471.22 573.286 9426.71V9216.51C573.286 9185.18 562.57 9161.28 541.137 9144.79C519.705 9126.66 491.678 9117.59 457.056 9117.59C422.435 9117.59 394.408 9126.66 372.975 9144.79C353.191 9161.28 343.299 9185.18 343.299 9216.51V10349.1C343.299 10378.8 353.191 10402.7 372.975 10420.8C394.408 10439 422.435 10448 457.056 10448C491.678 10448 519.705 10439.8 541.137 10423.3C562.57 10405.2 573.286 10380.5 573.286 10349.1V10294.7L565.867 10168.6C588.948 10163.7 612.029 10161.2 635.11 10161.2C658.192 10161.2 681.273 10164.5 704.354 10171.1C747.219 10182.6 768.651 10203.2 768.651 10232.9V10368.9ZM913.436 10359V9612.18C913.436 9529.75 938.99 9465.45 990.098 9419.29C1041.21 9373.13 1110.45 9350.05 1197.83 9350.05C1285.21 9350.05 1352.8 9371.48 1400.61 9414.34C1450.07 9457.21 1474.8 9519.86 1474.8 9602.29V10349.1C1474.8 10431.6 1448.42 10495.9 1395.67 10542C1344.56 10588.2 1275.31 10611.3 1187.94 10611.3C1100.56 10611.3 1032.96 10589.8 985.152 10547C937.341 10504.1 913.436 10441.5 913.436 10359ZM1098.91 9602.29V10359C1098.91 10387 1107.98 10411 1126.11 10430.7C1144.25 10448.9 1166.5 10457.9 1192.88 10457.9C1220.91 10457.9 1243.99 10448.9 1262.13 10430.7C1280.26 10411 1289.33 10387 1289.33 10359V9602.29C1289.33 9574.26 1280.26 9551.18 1262.13 9533.05C1243.99 9513.26 1220.91 9503.37 1192.88 9503.37C1166.5 9503.37 1144.25 9513.26 1126.11 9533.05C1107.98 9551.18 1098.91 9574.26 1098.91 9602.29ZM1645.48 9053.29C1645.48 9015.37 1638.06 8965.09 1623.22 8902.44C1672.68 8876.06 1725.43 8862.87 1781.49 8862.87C1814.46 8862.87 1830.95 8875.24 1830.95 8899.97V10381.3C1830.95 10415.9 1836.72 10440.6 1848.26 10455.5C1861.45 10470.3 1885.35 10477.7 1919.98 10477.7C1921.62 10520.6 1910.08 10553.6 1885.35 10576.6C1862.27 10599.7 1827.65 10611.3 1781.49 10611.3C1735.33 10611.3 1700.71 10597.3 1677.62 10569.2C1656.19 10541.2 1645.48 10495 1645.48 10430.7V9053.29ZM2415.19 9577.56C2415.19 9514.91 2409.42 9447.32 2397.88 9374.78C2447.34 9368.18 2500.92 9364.89 2558.62 9364.89C2586.65 9364.89 2600.66 9377.25 2600.66 9401.98V10381.3C2600.66 10415.9 2606.43 10440.6 2617.97 10455.5C2631.16 10470.3 2655.07 10477.7 2689.69 10477.7C2691.34 10520.6 2679.8 10553.6 2655.07 10576.6C2631.99 10599.7 2598.19 10611.3 2553.68 10611.3C2487.73 10611.3 2445.69 10585.7 2427.55 10534.6C2376.45 10585.7 2318.74 10611.3 2254.45 10611.3C2190.15 10611.3 2138.22 10589.8 2098.65 10547C2059.08 10502.5 2039.3 10439.8 2039.3 10359V9580.03C2039.3 9545.41 2032.7 9520.68 2019.51 9505.85C2007.97 9491.01 1984.89 9483.59 1950.27 9483.59C1948.62 9442.37 1960.16 9410.22 1984.89 9387.14C2011.27 9362.41 2047.54 9350.05 2093.7 9350.05C2139.86 9350.05 2172.84 9363.24 2192.62 9389.62C2214.05 9415.99 2224.77 9459.68 2224.77 9520.68V10356.5C2224.77 10414.3 2248.68 10443.1 2296.49 10443.1C2321.22 10443.1 2344.3 10434 2365.73 10415.9C2388.81 10396.1 2405.3 10375.5 2415.19 10354.1V9577.56ZM3002.64 10383.8C3002.64 10464.5 3008.41 10532.1 3019.95 10586.5C2970.49 10593.1 2916.91 10596.4 2859.2 10596.4C2831.18 10596.4 2817.16 10584.1 2817.16 10559.3V9580.03C2817.16 9545.41 2810.57 9520.68 2797.38 9505.85C2785.84 9491.01 2762.76 9483.59 2728.14 9483.59C2726.49 9440.72 2737.2 9407.75 2760.28 9384.67C2785.01 9361.59 2823.76 9350.05 2876.51 9350.05C2930.92 9350.05 2968.84 9375.6 2990.27 9426.71C3041.38 9375.6 3102.38 9350.05 3173.27 9350.05C3245.81 9350.05 3300.22 9382.2 3336.49 9446.49C3392.54 9382.2 3454.37 9350.05 3521.96 9350.05C3591.2 9350.05 3643.96 9370.66 3680.23 9411.87C3716.5 9453.09 3734.64 9511.62 3734.64 9587.45V10381.3C3734.64 10415.9 3740.41 10440.6 3751.95 10455.5C3765.14 10470.3 3789.04 10477.7 3823.66 10477.7C3825.31 10520.6 3813.77 10553.6 3789.04 10576.6C3765.96 10599.7 3731.34 10611.3 3685.18 10611.3C3639.02 10611.3 3604.39 10597.3 3581.31 10569.2C3559.88 10541.2 3549.16 10495 3549.16 10430.7V9602.29C3549.16 9547.89 3523.61 9520.68 3472.5 9520.68C3427.99 9520.68 3393.37 9546.24 3368.64 9597.35V10383.8C3368.64 10464.5 3374.41 10532.1 3385.95 10586.5C3336.49 10593.1 3282.91 10596.4 3225.2 10596.4C3197.18 10596.4 3183.16 10584.1 3183.16 10559.3V9602.29C3183.16 9547.89 3157.61 9520.68 3106.5 9520.68C3061.99 9520.68 3027.37 9546.24 3002.64 9597.35V10383.8ZM3925.19 9053.29C3925.19 9003.83 3917.77 8953.55 3902.93 8902.44C3952.39 8876.06 4005.15 8862.87 4061.2 8862.87C4094.18 8862.87 4110.66 8875.24 4110.66 8899.97V9414.34C4161.77 9371.48 4214.53 9350.05 4268.93 9350.05C4414.02 9350.05 4486.56 9434.13 4486.56 9602.29V10324.4C4486.56 10406.8 4461 10471.1 4409.89 10517.3C4358.79 10563.5 4289.54 10586.5 4202.16 10586.5H3925.19V9053.29ZM4110.66 10428.3H4207.11C4235.14 10428.3 4257.39 10420 4273.88 10403.5C4292.02 10385.4 4301.08 10362.3 4301.08 10334.3V9604.76C4301.08 9548.71 4276.35 9520.68 4226.89 9520.68C4177.43 9520.68 4138.69 9546.24 4110.66 9597.35V10428.3ZM4765.81 9149.74C4694.92 9149.74 4659.47 9102.75 4659.47 9008.78C4659.47 8914.8 4694.92 8867.82 4765.81 8867.82C4836.7 8867.82 4872.15 8914.8 4872.15 9008.78C4872.15 9102.75 4836.7 9149.74 4765.81 9149.74ZM4612.49 9374.78H4859.78V10381.3C4859.78 10415.9 4865.55 10440.6 4877.09 10455.5C4890.28 10470.3 4914.19 10477.7 4948.81 10477.7C4950.46 10520.6 4938.92 10553.6 4914.19 10576.6C4891.11 10599.7 4856.49 10611.3 4810.32 10611.3C4764.16 10611.3 4729.54 10597.3 4706.46 10569.2C4685.03 10541.2 4674.31 10495 4674.31 10430.7V9523.16L4597.65 9535.52C4586.11 9492.66 4580.34 9455.56 4580.34 9424.24C4580.34 9391.26 4591.05 9374.78 4612.49 9374.78ZM5297.71 10134C5243.31 10170.3 5216.1 10231.3 5216.1 10317C5216.1 10401.1 5241.66 10443.1 5292.77 10443.1C5345.52 10443.1 5386.74 10413.4 5416.41 10354.1V10054.8L5297.71 10134ZM5324.91 9350.05C5509.56 9350.05 5601.89 9431.66 5601.89 9594.87V10381.3C5601.89 10415.9 5607.66 10440.6 5619.2 10455.5C5632.39 10470.3 5656.29 10477.7 5690.91 10477.7C5692.56 10520.6 5681.02 10553.6 5656.29 10576.6C5633.21 10599.7 5599.41 10611.3 5554.9 10611.3C5485.66 10611.3 5443.62 10585.7 5428.78 10534.6C5377.67 10585.7 5317.5 10611.3 5248.25 10611.3C5179.01 10611.3 5123.78 10584.9 5082.56 10532.1C5041.35 10479.4 5020.74 10408.5 5020.74 10319.5C5020.74 10184.3 5077.62 10082 5191.37 10012.8L5416.41 9879.26V9612.18C5416.41 9542.94 5383.44 9508.32 5317.5 9508.32C5253.2 9508.32 5221.05 9547.06 5221.05 9624.55V9706.16L5228.47 9822.39C5207.04 9827.33 5184.78 9829.8 5161.7 9829.8C5140.27 9829.8 5119.66 9826.51 5099.87 9819.91C5060.31 9810.02 5040.52 9791.06 5040.52 9763.03V9560.25C5040.52 9494.3 5066.08 9443.2 5117.18 9406.93C5169.94 9369.01 5239.18 9350.05 5324.91 9350.05ZM6699.93 10368.9C6699.93 10438.2 6670.25 10495.9 6610.9 10542C6553.2 10588.2 6477.36 10611.3 6383.39 10611.3C6289.41 10611.3 6215.22 10589.8 6160.82 10547C6106.41 10504.1 6079.21 10441.5 6079.21 10359V9216.51C6079.21 9134.07 6107.24 9069.78 6163.29 9023.61C6219.35 8977.45 6294.36 8954.37 6388.33 8954.37C6483.95 8954.37 6559.79 8975.8 6615.85 9018.67C6671.9 9059.89 6699.93 9114.29 6699.93 9181.89V9488.53C6699.93 9518.21 6678.5 9538.82 6635.63 9550.36C6612.55 9556.95 6589.47 9560.25 6566.39 9560.25C6543.31 9560.25 6520.22 9557.78 6497.14 9552.83C6502.09 9513.26 6504.56 9471.22 6504.56 9426.71V9216.51C6504.56 9185.18 6493.85 9161.28 6472.41 9144.79C6450.98 9126.66 6422.95 9117.59 6388.33 9117.59C6353.71 9117.59 6325.68 9126.66 6304.25 9144.79C6284.47 9161.28 6274.58 9185.18 6274.58 9216.51V10349.1C6274.58 10378.8 6284.47 10402.7 6304.25 10420.8C6325.68 10439 6353.71 10448 6388.33 10448C6422.95 10448 6450.98 10439.8 6472.41 10423.3C6493.85 10405.2 6504.56 10380.5 6504.56 10349.1V10294.7L6497.14 10168.6C6520.22 10163.7 6543.31 10161.2 6566.39 10161.2C6589.47 10161.2 6612.55 10164.5 6635.63 10171.1C6678.5 10182.6 6699.93 10203.2 6699.93 10232.9V10368.9ZM7094.48 10134C7040.08 10170.3 7012.87 10231.3 7012.87 10317C7012.87 10401.1 7038.43 10443.1 7089.54 10443.1C7142.29 10443.1 7183.51 10413.4 7213.19 10354.1V10054.8L7094.48 10134ZM7121.69 9350.05C7306.33 9350.05 7398.66 9431.66 7398.66 9594.87V10381.3C7398.66 10415.9 7404.43 10440.6 7415.97 10455.5C7429.16 10470.3 7453.06 10477.7 7487.69 10477.7C7489.33 10520.6 7477.79 10553.6 7453.06 10576.6C7429.98 10599.7 7396.19 10611.3 7351.67 10611.3C7282.43 10611.3 7240.39 10585.7 7225.55 10534.6C7174.44 10585.7 7114.27 10611.3 7045.02 10611.3C6975.78 10611.3 6920.55 10584.9 6879.33 10532.1C6838.12 10479.4 6817.51 10408.5 6817.51 10319.5C6817.51 10184.3 6874.39 10082 6988.14 10012.8L7213.19 9879.26V9612.18C7213.19 9542.94 7180.21 9508.32 7114.27 9508.32C7049.97 9508.32 7017.82 9547.06 7017.82 9624.55V9706.16L7025.24 9822.39C7003.81 9827.33 6981.55 9829.8 6958.47 9829.8C6937.04 9829.8 6916.43 9826.51 6896.64 9819.91C6857.08 9810.02 6837.29 9791.06 6837.29 9763.03V9560.25C6837.29 9494.3 6862.85 9443.2 6913.96 9406.93C6966.71 9369.01 7035.96 9350.05 7121.69 9350.05ZM7791.61 10383.8C7791.61 10462.9 7797.38 10528.8 7808.92 10581.6C7759.46 10591.5 7705.88 10596.4 7648.18 10596.4C7620.15 10596.4 7606.14 10584.1 7606.14 10559.3V9580.03C7606.14 9545.41 7599.54 9520.68 7586.35 9505.85C7574.81 9491.01 7551.73 9483.59 7517.11 9483.59C7515.46 9440.72 7526.18 9407.75 7549.26 9384.67C7573.99 9361.59 7608.61 9350.05 7653.12 9350.05C7719.07 9350.05 7760.29 9383.02 7776.77 9448.97C7817.99 9383.02 7876.52 9350.05 7952.35 9350.05C8087.54 9350.05 8155.14 9415.17 8155.14 9545.41V9792.71C8155.14 9820.74 8135.35 9839.7 8095.79 9849.59C8076 9856.18 8054.57 9859.48 8031.49 9859.48C8010.06 9859.48 7988.62 9857.01 7967.19 9852.06C7972.14 9815.79 7974.61 9777.05 7974.61 9735.83V9609.71C7974.61 9555.3 7949.88 9528.1 7900.42 9528.1C7877.34 9528.1 7855.91 9538.82 7836.12 9560.25C7816.34 9581.68 7801.5 9605.59 7791.61 9631.97V10383.8ZM8650.41 9614.66C8650.41 9581.68 8640.52 9556.13 8620.73 9537.99C8600.95 9518.21 8576.22 9508.32 8546.54 9508.32C8485.54 9508.32 8455.04 9533.87 8455.04 9584.98V9938.62L8573.75 9849.59C8624.85 9811.67 8650.41 9733.36 8650.41 9614.66ZM8269.57 10366.4V9592.4C8269.57 9430.83 8364.37 9350.05 8553.96 9350.05C8745.21 9350.05 8840.83 9440.72 8840.83 9622.07C8840.83 9694.62 8827.64 9761.39 8801.26 9822.39C8774.88 9883.39 8738.61 9929.55 8692.45 9960.87L8455.04 10124.1V10349.1C8455.04 10418.4 8487.19 10453 8551.49 10453C8617.44 10453 8650.41 10414.3 8650.41 10336.8V10279.9L8642.99 10163.7C8664.42 10158.7 8685.85 10156.2 8707.29 10156.2C8730.37 10156.2 8751.8 10159.5 8771.58 10166.1C8811.15 10176 8830.94 10195 8830.94 10223V10401.1C8830.94 10467 8804.56 10518.9 8751.8 10556.9C8700.69 10593.1 8632.27 10611.3 8546.54 10611.3C8361.9 10611.3 8269.57 10529.7 8269.57 10366.4ZM9299 10556.9V9191.78C9299 9157.16 9291.59 9133.25 9276.75 9120.06C9263.56 9105.22 9239.65 9097.8 9205.03 9097.8C9205.03 9003.83 9257.79 8956.84 9363.3 8956.84C9450.68 8956.84 9494.37 9013.72 9494.37 9127.48V9772.93H9724.36V9211.56L9714.46 8979.1C9770.52 8970.86 9825.75 8966.74 9880.15 8966.74C9906.53 8966.74 9919.72 8980.75 9919.72 9008.78V10376.3C9919.72 10411 9926.32 10435.7 9939.51 10450.5C9954.34 10463.7 9979.07 10470.3 10013.7 10470.3C10013.7 10564.3 9960.94 10611.3 9855.42 10611.3C9768.05 10611.3 9724.36 10554.4 9724.36 10440.6V9936.14H9494.37V10354.1L9504.26 10586.5C9448.21 10594.8 9392.98 10598.9 9338.57 10598.9C9312.19 10598.9 9299 10584.9 9299 10556.9ZM10105 10359V9612.18C10105 9529.75 10130.5 9465.45 10181.6 9419.29C10232.8 9373.13 10302 9350.05 10389.4 9350.05C10476.8 9350.05 10544.3 9371.48 10592.2 9414.34C10641.6 9457.21 10666.3 9519.86 10666.3 9602.29V10349.1C10666.3 10431.6 10640 10495.9 10587.2 10542C10536.1 10588.2 10466.9 10611.3 10379.5 10611.3C10292.1 10611.3 10224.5 10589.8 10176.7 10547C10128.9 10504.1 10105 10441.5 10105 10359ZM10290.5 9602.29V10359C10290.5 10387 10299.5 10411 10317.7 10430.7C10335.8 10448.9 10358 10457.9 10384.4 10457.9C10412.5 10457.9 10435.5 10448.9 10453.7 10430.7C10471.8 10411 10480.9 10387 10480.9 10359V9602.29C10480.9 9574.26 10471.8 9551.18 10453.7 9533.05C10435.5 9513.26 10412.5 9503.37 10384.4 9503.37C10358 9503.37 10335.8 9513.26 10317.7 9533.05C10299.5 9551.18 10290.5 9574.26 10290.5 9602.29ZM11039.8 10383.8C11039.8 10464.5 11045.6 10532.1 11057.1 10586.5C11007.7 10593.1 10954.1 10596.4 10896.4 10596.4C10868.3 10596.4 10854.3 10584.1 10854.3 10559.3V9580.03C10854.3 9545.41 10847.7 9520.68 10834.5 9505.85C10823 9491.01 10799.9 9483.59 10765.3 9483.59C10763.7 9440.72 10774.4 9407.75 10797.5 9384.67C10822.2 9361.59 10860.9 9350.05 10913.7 9350.05C10968.1 9350.05 11006 9375.6 11027.4 9426.71C11078.5 9375.6 11139.5 9350.05 11210.4 9350.05C11283 9350.05 11337.4 9382.2 11373.7 9446.49C11429.7 9382.2 11491.5 9350.05 11559.1 9350.05C11628.4 9350.05 11681.1 9370.66 11717.4 9411.87C11753.7 9453.09 11771.8 9511.62 11771.8 9587.45V10381.3C11771.8 10415.9 11777.6 10440.6 11789.1 10455.5C11802.3 10470.3 11826.2 10477.7 11860.8 10477.7C11862.5 10520.6 11850.9 10553.6 11826.2 10576.6C11803.1 10599.7 11768.5 10611.3 11722.3 10611.3C11676.2 10611.3 11641.6 10597.3 11618.5 10569.2C11597 10541.2 11586.3 10495 11586.3 10430.7V9602.29C11586.3 9547.89 11560.8 9520.68 11509.7 9520.68C11465.2 9520.68 11430.5 9546.24 11405.8 9597.35V10383.8C11405.8 10464.5 11411.6 10532.1 11423.1 10586.5C11373.7 10593.1 11320.1 10596.4 11262.4 10596.4C11234.3 10596.4 11220.3 10584.1 11220.3 10559.3V9602.29C11220.3 9547.89 11194.8 9520.68 11143.7 9520.68C11099.2 9520.68 11064.5 9546.24 11039.8 9597.35V10383.8ZM12333.3 9614.66C12333.3 9581.68 12323.4 9556.13 12303.6 9537.99C12283.8 9518.21 12259.1 9508.32 12229.4 9508.32C12168.4 9508.32 12137.9 9533.87 12137.9 9584.98V9938.62L12256.6 9849.59C12307.8 9811.67 12333.3 9733.36 12333.3 9614.66ZM11952.5 10366.4V9592.4C11952.5 9430.83 12047.3 9350.05 12236.9 9350.05C12428.1 9350.05 12523.7 9440.72 12523.7 9622.07C12523.7 9694.62 12510.5 9761.39 12484.2 9822.39C12457.8 9883.39 12421.5 9929.55 12375.3 9960.87L12137.9 10124.1V10349.1C12137.9 10418.4 12170.1 10453 12234.4 10453C12300.3 10453 12333.3 10414.3 12333.3 10336.8V10279.9L12325.9 10163.7C12347.3 10158.7 12368.8 10156.2 12390.2 10156.2C12413.3 10156.2 12434.7 10159.5 12454.5 10166.1C12494 10176 12513.8 10195 12513.8 10223V10401.1C12513.8 10467 12487.5 10518.9 12434.7 10556.9C12383.6 10593.1 12315.2 10611.3 12229.4 10611.3C12044.8 10611.3 11952.5 10529.7 11952.5 10366.4Z" fill="#225431"/>
<rect x="65.9219" y="11103.8" width="12515.8" height="58.4167" fill="#225431"/>
<path d="M1742.23 3701.05C1877.84 6224.93 4391.67 7056.8 5631.63 7157.25C4167.22 7015.99 3249.02 5466.82 3136.01 5273.76C3045.6 5119.32 2715.36 4707.15 2561.54 4520.37C2745.18 4628.67 3131.3 4953.57 3324.36 5240.8C3478.8 5470.59 3887.83 5970.66 4073.04 6191.97C4012.77 6048.82 3975.73 5783.88 3964.74 5669.3C3814.06 4170.04 2420.28 3732.44 1742.23 3701.05Z" fill="#487731" stroke="#4F7E36" stroke-width="9.41745"/>
<path d="M7034.82 7138.43C9036.03 6601.62 10086.1 7011.27 10448.6 7402.11C8894.77 6987.75 8970.11 7256.14 6719.34 7689.34C4918.72 8035.9 3621 7138.43 3201.92 6516.87C3818.76 6931.23 5096.77 7658.29 7034.82 7138.43Z" fill="#4B7A34"/>
<path d="M3508 3079.5V4275.52C3297.04 4094.71 3137.58 4011.83 3084.21 3993V3451.49C3084.21 3430.69 3067.35 3413.82 3046.54 3413.82H2545.87C2475.15 3413.82 2443.4 3325.18 2498.04 3280.28L3894.11 2133.05V772.231H4633.38V1558.59L6449.41 120.536C6538.57 49.931 6664.61 50.0167 6753.68 120.743L10710.4 3262.69C10773.2 3312.61 10737.9 3413.82 10657.7 3413.82H10133.2C10112.4 3413.82 10095.5 3430.69 10095.5 3451.49V7053.67C10008.9 6982.09 9798.85 6913.97 9704.67 6888.86V3098.34L6653.88 700.296C6623.2 676.178 6580.02 676.129 6549.28 700.176L3508 3079.5Z" fill="#225431" stroke="#21532E" stroke-width="9.41745"/>
<path d="M4862.61 4846.99C4788.15 3829.46 6029.04 3382.74 6624.67 4201.73C6972.03 3506.85 8575.73 3687.01 8362 4846.99C8193.49 5761.55 7153.2 6505.27 6668.08 6760.49C6640.97 6774.75 6608.91 6774.29 6582.19 6759.31C6388.91 6650.92 6138.02 6489.17 5887.82 6292.05V5067.48C5887.81 5032.61 5883.25 4973.51 5855.45 4922.37C5841.36 4896.44 5821.09 4872.19 5792.23 4854.51C5763.32 4836.81 5727.1 4826.52 5682.4 4826.53C5637.58 4826.54 5602.26 4837.31 5575.04 4856.13C5547.9 4874.9 5530.61 4900.43 5519.65 4926.95C5498.21 4978.82 5499.7 5038.18 5499.7 5067.48H5546.54C5546.54 5035.9 5545.71 4986.51 5562.94 4944.84C5571.3 4924.6 5583.6 4907.16 5601.68 4894.65C5619.7 4882.2 5645.28 4873.37 5682.42 4873.36C5719.69 4873.35 5747.2 4881.86 5767.77 4894.46C5788.4 4907.09 5803.39 4924.65 5814.3 4944.73C5835.81 4984.32 5840.68 5032.19 5840.96 5064.42L5840.98 5067.48V6254.72C5532.58 6006.07 5230.77 5705.25 5045.2 5386.06C5107.94 5144.14 5322.56 4709.5 5653.55 4764.67C6100.27 4839.12 5976.18 4640.62 5951.37 4615.8C5927.43 4591.86 5326.21 4272.41 4882.74 4984.83C4872.78 4938.94 4865.97 4892.96 4862.61 4846.99Z" fill="url(#paint0_linear_347_126)"/>
<ellipse cx="5716.51" cy="3199.37" rx="482.419" ry="477.736" fill="#225431"/>
<ellipse cx="5224.73" cy="3250.83" rx="168.613" ry="238.868" fill="#225431"/>
<ellipse cx="7407.32" cy="3236.82" rx="477.736" ry="477.736" fill="#225431"/>
<path d="M89.1575 12221.3H19.3533L221.248 11671.4H289.979L491.874 12221.3H422.069L257.761 11758.4H253.466L89.1575 12221.3ZM114.931 12006.5H396.296V12065.6H114.931V12006.5ZM790.152 12221.3V11671.4H975.938C1019.07 11671.4 1054.33 11679.2 1081.72 11694.8C1109.28 11710.2 1129.69 11731 1142.93 11757.3C1156.18 11783.7 1162.8 11813 1162.8 11845.4C1162.8 11877.8 1156.18 11907.2 1142.93 11933.7C1129.87 11960.2 1109.64 11981.3 1082.26 11997.1C1054.87 12012.7 1019.79 12020.5 977.012 12020.5H843.848V11961.4H974.865C1004.4 11961.4 1028.11 11956.3 1046.01 11946.1C1063.91 11935.9 1076.89 11922.1 1084.94 11904.7C1093.17 11887.2 1097.29 11867.4 1097.29 11845.4C1097.29 11823.4 1093.17 11803.7 1084.94 11786.3C1076.89 11769 1063.82 11755.4 1045.74 11745.5C1027.67 11735.5 1003.68 11730.5 973.791 11730.5H856.734V12221.3H790.152ZM1324.82 11671.4V12221.3H1261.46V11671.4H1324.82ZM1562.23 12230.9C1536.09 12230.9 1512.38 12226 1491.08 12216.2C1469.78 12206.1 1452.87 12191.7 1440.34 12172.9C1427.81 12154 1421.54 12131.1 1421.54 12104.2C1421.54 12080.6 1426.2 12061.4 1435.5 12046.8C1444.81 12031.9 1457.25 12020.3 1472.82 12011.9C1488.39 12003.4 1505.58 11997.2 1524.37 11993.1C1543.34 11988.8 1562.4 11985.4 1581.56 11982.9C1606.61 11979.6 1626.93 11977.2 1642.5 11975.6C1658.25 11973.8 1669.71 11970.9 1676.87 11966.8C1684.2 11962.6 1687.87 11955.5 1687.87 11945.3V11943.1C1687.87 11916.6 1680.62 11896.1 1666.13 11881.4C1651.81 11866.7 1630.06 11859.4 1600.89 11859.4C1570.64 11859.4 1546.92 11866 1529.74 11879.2C1512.56 11892.5 1500.48 11906.6 1493.5 11921.7L1433.36 11900.2C1444.1 11875.1 1458.41 11855.6 1476.31 11841.6C1494.39 11827.5 1514.08 11817.7 1535.38 11812.1C1556.86 11806.4 1577.98 11803.5 1598.74 11803.5C1611.98 11803.5 1627.2 11805.1 1644.38 11808.4C1661.74 11811.4 1678.48 11817.8 1694.59 11827.4C1710.87 11837.1 1724.39 11851.7 1735.13 11871.2C1745.86 11890.7 1751.23 11916.8 1751.23 11949.6V12221.3H1687.87V12165.4H1684.65C1680.36 12174.4 1673.2 12184 1663.17 12194.2C1653.15 12204.4 1639.82 12213 1623.17 12220.2C1606.52 12227.4 1586.21 12230.9 1562.23 12230.9ZM1571.89 12174C1596.95 12174 1618.07 12169.1 1635.25 12159.3C1652.61 12149.4 1665.68 12136.7 1674.45 12121.1C1683.4 12105.6 1687.87 12089.2 1687.87 12072V12014C1685.19 12017.2 1679.28 12020.2 1670.15 12022.9C1661.2 12025.4 1650.82 12027.6 1639.01 12029.6C1627.38 12031.4 1616.01 12033 1604.91 12034.4C1594 12035.7 1585.14 12036.7 1578.33 12037.6C1561.87 12039.8 1546.48 12043.3 1532.16 12048.1C1518.02 12052.8 1506.56 12059.8 1497.79 12069.3C1489.2 12078.6 1484.9 12091.3 1484.9 12107.4C1484.9 12129.5 1493.05 12146.1 1509.34 12157.4C1525.8 12168.5 1546.65 12174 1571.89 12174ZM2034.41 12229.9C1995.75 12229.9 1962.46 12220.7 1934.54 12202.5C1906.62 12184.2 1885.14 12159.1 1870.1 12127C1855.07 12095 1847.55 12058.4 1847.55 12017.2C1847.55 11975.3 1855.25 11938.4 1870.64 11906.3C1886.21 11874.1 1907.87 11849 1935.61 11830.9C1963.53 11812.7 1996.11 11803.5 2033.34 11803.5C2062.33 11803.5 2088.46 11808.9 2111.73 11819.6C2135 11830.4 2154.06 11845.4 2168.92 11864.7C2183.77 11884.1 2192.99 11906.6 2196.57 11932.4H2133.21C2128.38 11913.6 2117.64 11897 2100.99 11882.5C2084.53 11867.8 2062.33 11860.4 2034.41 11860.4C2009.71 11860.4 1988.05 11866.9 1969.44 11879.8C1951 11892.5 1936.6 11910.5 1926.21 11933.7C1916.01 11956.8 1910.91 11983.9 1910.91 12015.1C1910.91 12046.9 1915.92 12074.7 1925.95 12098.3C1936.15 12121.9 1950.47 12140.3 1968.9 12153.3C1987.52 12166.4 2009.35 12172.9 2034.41 12172.9C2050.88 12172.9 2065.82 12170.1 2079.25 12164.4C2092.67 12158.6 2104.04 12150.4 2113.34 12139.7C2122.65 12128.9 2129.27 12116 2133.21 12101H2196.57C2192.99 12125.3 2184.13 12147.3 2169.99 12166.8C2156.03 12186.1 2137.51 12201.5 2114.42 12213C2091.51 12224.2 2064.84 12229.9 2034.41 12229.9ZM2462.1 12229.9C2422.36 12229.9 2388.08 12221.1 2359.27 12203.6C2330.63 12185.8 2308.53 12161.1 2292.95 12129.5C2277.56 12097.6 2269.87 12060.5 2269.87 12018.3C2269.87 11976.1 2277.56 11938.8 2292.95 11906.6C2308.53 11874.2 2330.18 11849 2357.93 11830.9C2385.85 11812.7 2418.42 11803.5 2455.65 11803.5C2477.13 11803.5 2498.34 11807.1 2519.28 11814.3C2540.22 11821.4 2559.28 11833.1 2576.47 11849.2C2593.65 11865.1 2607.34 11886.2 2617.54 11912.5C2627.75 11938.8 2632.85 11971.2 2632.85 12009.7V12036.6H2314.97V11981.8H2568.41C2568.41 11958.5 2563.76 11937.8 2554.45 11919.5C2545.32 11901.2 2532.26 11886.8 2515.25 11876.3C2498.43 11865.7 2478.56 11860.4 2455.65 11860.4C2430.41 11860.4 2408.58 11866.7 2390.14 11879.2C2371.89 11891.6 2357.84 11907.7 2347.99 11927.6C2338.15 11947.4 2333.23 11968.7 2333.23 11991.5V12028C2333.23 12059.1 2338.6 12085.5 2349.33 12107.2C2360.25 12128.6 2375.38 12145 2394.71 12156.3C2414.04 12167.4 2436.5 12172.9 2462.1 12172.9C2478.74 12172.9 2493.78 12170.6 2507.2 12166C2520.8 12161.1 2532.53 12154 2542.37 12144.5C2552.21 12134.8 2559.82 12122.8 2565.19 12108.5L2626.4 12125.7C2619.96 12146.5 2609.13 12164.7 2593.92 12180.5C2578.7 12196 2559.91 12208.2 2537.54 12217C2515.16 12225.6 2490.02 12229.9 2462.1 12229.9ZM3121.21 11808.9V11862.6H2907.5V11808.9H3121.21ZM2969.79 11710.1H3033.15V12103.1C3033.15 12121 3035.74 12134.5 3040.93 12143.4C3046.3 12152.2 3053.1 12158.1 3061.34 12161.1C3069.75 12164 3078.61 12165.4 3087.92 12165.4C3094.9 12165.4 3100.62 12165.1 3105.1 12164.4C3109.57 12163.5 3113.15 12162.7 3115.84 12162.2L3128.72 12219.1C3124.43 12220.7 3118.43 12222.3 3110.74 12224C3103.04 12225.7 3093.29 12226.6 3081.47 12226.6C3063.57 12226.6 3046.03 12222.8 3028.85 12215.1C3011.85 12207.4 2997.71 12195.7 2986.43 12179.9C2975.33 12164.2 2969.79 12144.3 2969.79 12120.3V11710.1ZM3379.62 12229.9C3342.39 12229.9 3309.72 12221 3281.62 12203.3C3253.7 12185.6 3231.86 12160.8 3216.11 12128.9C3200.54 12097.1 3192.76 12059.8 3192.76 12017.2C3192.76 11974.3 3200.54 11936.8 3216.11 11904.7C3231.86 11872.7 3253.7 11847.8 3281.62 11830.1C3309.72 11812.4 3342.39 11803.5 3379.62 11803.5C3416.85 11803.5 3449.42 11812.4 3477.34 11830.1C3505.44 11847.8 3527.28 11872.7 3542.85 11904.7C3558.6 11936.8 3566.48 11974.3 3566.48 12017.2C3566.48 12059.8 3558.6 12097.1 3542.85 12128.9C3527.28 12160.8 3505.44 12185.6 3477.34 12203.3C3449.42 12221 3416.85 12229.9 3379.62 12229.9ZM3379.62 12172.9C3407.9 12172.9 3431.16 12165.7 3449.42 12151.2C3467.68 12136.7 3481.19 12117.6 3489.96 12094C3498.73 12070.4 3503.12 12044.8 3503.12 12017.2C3503.12 11989.7 3498.73 11964 3489.96 11940.2C3481.19 11916.4 3467.68 11897.1 3449.42 11882.5C3431.16 11867.8 3407.9 11860.4 3379.62 11860.4C3351.34 11860.4 3328.07 11867.8 3309.81 11882.5C3291.56 11897.1 3278.04 11916.4 3269.27 11940.2C3260.5 11964 3256.12 11989.7 3256.12 12017.2C3256.12 12044.8 3260.5 12070.4 3269.27 12094C3278.04 12117.6 3291.56 12136.7 3309.81 12151.2C3328.07 12165.7 3351.34 12172.9 3379.62 12172.9ZM3884.42 12221.3V11671.4H4076.65C4114.95 11671.4 4146.55 11678.1 4171.42 11691.3C4196.3 11704.4 4214.83 11722 4227 11744.2C4239.17 11766.2 4245.26 11790.6 4245.26 11817.5C4245.26 11841.1 4241.05 11860.6 4232.64 11876C4224.4 11891.4 4213.49 11903.6 4199.88 11912.5C4186.46 11921.5 4171.87 11928.1 4156.12 11932.4V11937.8C4172.95 11938.8 4189.86 11944.7 4206.86 11955.5C4223.87 11966.2 4238.1 11981.6 4249.55 12001.7C4261.01 12021.7 4266.73 12046.2 4266.73 12075.2C4266.73 12102.8 4260.47 12127.6 4247.94 12149.6C4235.41 12171.6 4215.63 12189.1 4188.61 12201.9C4161.58 12214.8 4126.41 12221.3 4083.09 12221.3H3884.42ZM3951 12162.2H4083.09C4126.59 12162.2 4157.46 12153.8 4175.72 12137C4194.15 12120 4203.37 12099.4 4203.37 12075.2C4203.37 12056.6 4198.63 12039.4 4189.14 12023.7C4179.66 12007.7 4166.14 11995 4148.6 11985.6C4131.06 11975.9 4110.3 11971.1 4086.32 11971.1H3951V12162.2ZM3951 11913.1H4074.5C4094.55 11913.1 4112.63 11909.1 4128.74 11901.2C4145.02 11893.4 4157.91 11882.3 4167.4 11868C4177.06 11853.6 4181.89 11836.8 4181.89 11817.5C4181.89 11793.3 4173.48 11772.8 4156.66 11756C4139.83 11739 4113.16 11730.5 4076.65 11730.5H3951V11913.1ZM4540.45 12229.9C4500.71 12229.9 4466.44 12221.1 4437.62 12203.6C4408.98 12185.8 4386.88 12161.1 4371.31 12129.5C4355.91 12097.6 4348.22 12060.5 4348.22 12018.3C4348.22 11976.1 4355.91 11938.8 4371.31 11906.6C4386.88 11874.2 4408.53 11849 4436.28 11830.9C4464.2 11812.7 4496.77 11803.5 4534 11803.5C4555.48 11803.5 4576.69 11807.1 4597.63 11814.3C4618.57 11821.4 4637.64 11833.1 4654.82 11849.2C4672 11865.1 4685.69 11886.2 4695.89 11912.5C4706.1 11938.8 4711.2 11971.2 4711.2 12009.7V12036.6H4393.32V11981.8H4646.76C4646.76 11958.5 4642.11 11937.8 4632.8 11919.5C4623.67 11901.2 4610.61 11886.8 4593.6 11876.3C4576.78 11865.7 4556.91 11860.4 4534 11860.4C4508.77 11860.4 4486.93 11866.7 4468.49 11879.2C4450.24 11891.6 4436.19 11907.7 4426.34 11927.6C4416.5 11947.4 4411.58 11968.7 4411.58 11991.5V12028C4411.58 12059.1 4416.95 12085.5 4427.69 12107.2C4438.6 12128.6 4453.73 12145 4473.06 12156.3C4492.39 12167.4 4514.85 12172.9 4540.45 12172.9C4557.09 12172.9 4572.13 12170.6 4585.55 12166C4599.15 12161.1 4610.88 12154 4620.72 12144.5C4630.57 12134.8 4638.17 12122.8 4643.54 12108.5L4704.75 12125.7C4698.31 12146.5 4687.48 12164.7 4672.27 12180.5C4657.05 12196 4638.26 12208.2 4615.89 12217C4593.52 12225.6 4568.37 12229.9 4540.45 12229.9ZM4870.94 11671.4V12221.3H4807.58V11671.4H4870.94ZM5154.52 12229.9C5117.29 12229.9 5084.63 12221 5056.53 12203.3C5028.61 12185.6 5006.77 12160.8 4991.02 12128.9C4975.45 12097.1 4967.66 12059.8 4967.66 12017.2C4967.66 11974.3 4975.45 11936.8 4991.02 11904.7C5006.77 11872.7 5028.61 11847.8 5056.53 11830.1C5084.63 11812.4 5117.29 11803.5 5154.52 11803.5C5191.75 11803.5 5224.33 11812.4 5252.25 11830.1C5280.35 11847.8 5302.18 11872.7 5317.76 11904.7C5333.51 11936.8 5341.38 11974.3 5341.38 12017.2C5341.38 12059.8 5333.51 12097.1 5317.76 12128.9C5302.18 12160.8 5280.35 12185.6 5252.25 12203.3C5224.33 12221 5191.75 12229.9 5154.52 12229.9ZM5154.52 12172.9C5182.8 12172.9 5206.07 12165.7 5224.33 12151.2C5242.58 12136.7 5256.1 12117.6 5264.87 12094C5273.64 12070.4 5278.02 12044.8 5278.02 12017.2C5278.02 11989.7 5273.64 11964 5264.87 11940.2C5256.1 11916.4 5242.58 11897.1 5224.33 11882.5C5206.07 11867.8 5182.8 11860.4 5154.52 11860.4C5126.24 11860.4 5102.97 11867.8 5084.72 11882.5C5066.46 11897.1 5052.95 11916.4 5044.18 11940.2C5035.41 11964 5031.02 11989.7 5031.02 12017.2C5031.02 12044.8 5035.41 12070.4 5044.18 12094C5052.95 12117.6 5066.46 12136.7 5084.72 12151.2C5102.97 12165.7 5126.24 12172.9 5154.52 12172.9ZM5501.46 11973.2V12221.3H5438.1V11808.9H5499.31V11873.3H5504.68C5514.35 11852.4 5529.02 11835.6 5548.71 11822.9C5568.4 11810 5593.82 11803.5 5624.96 11803.5C5652.88 11803.5 5677.31 11809.3 5698.26 11820.7C5719.2 11832 5735.48 11849.2 5747.12 11872.3C5758.75 11895.2 5764.57 11924.2 5764.57 11959.2V12221.3H5701.21V11963.5C5701.21 11931.1 5692.8 11905.9 5675.97 11887.8C5659.15 11869.6 5636.06 11860.4 5606.7 11860.4C5586.48 11860.4 5568.4 11864.8 5552.47 11873.6C5536.72 11882.4 5524.28 11895.2 5515.15 11912C5506.03 11928.8 5501.46 11949.2 5501.46 11973.2ZM6046.81 12384.5C6016.2 12384.5 5989.89 12380.6 5967.87 12372.7C5945.86 12365 5927.51 12354.8 5912.84 12342.1C5898.34 12329.6 5886.79 12316.1 5878.2 12301.8L5928.68 12266.4C5934.4 12273.9 5941.65 12282.5 5950.42 12292.2C5959.19 12302 5971.18 12310.5 5986.4 12317.7C6001.79 12325 6021.93 12328.7 6046.81 12328.7C6080.1 12328.7 6107.57 12320.6 6129.23 12304.5C6150.89 12288.4 6161.71 12263.2 6161.71 12228.8V12145H6156.34C6151.69 12152.5 6145.07 12161.9 6136.48 12172.9C6128.07 12183.9 6115.89 12193.6 6099.96 12202.2C6084.21 12210.6 6062.91 12214.8 6036.07 12214.8C6002.78 12214.8 5972.89 12207 5946.4 12191.2C5920.08 12175.5 5899.23 12152.5 5883.84 12122.5C5868.63 12092.4 5861.02 12055.9 5861.02 12012.9C5861.02 11970.7 5868.45 11933.9 5883.3 11902.6C5898.16 11871.1 5918.83 11846.7 5945.32 11829.6C5971.81 11812.2 6002.42 11803.5 6037.14 11803.5C6063.99 11803.5 6085.29 11808 6101.04 11816.9C6116.97 11825.7 6129.14 11835.7 6137.55 11847C6146.14 11858.1 6152.77 11867.2 6157.42 11874.4H6163.86V11808.9H6225.08V12233.1C6225.08 12268.5 6217.02 12297.3 6200.91 12319.5C6184.98 12341.9 6163.5 12358.3 6136.48 12368.7C6109.63 12379.2 6079.74 12384.5 6046.81 12384.5ZM6044.66 12157.9C6070.07 12157.9 6091.55 12152.1 6109.09 12140.5C6126.63 12128.8 6139.97 12112.1 6149.1 12090.3C6158.22 12068.4 6162.79 12042.3 6162.79 12011.9C6162.79 11982.1 6158.31 11955.9 6149.36 11933.2C6140.42 11910.5 6127.17 11892.7 6109.63 11879.8C6092.09 11866.9 6070.43 11860.4 6044.66 11860.4C6017.81 11860.4 5995.44 11867.2 5977.54 11880.8C5959.82 11894.4 5946.48 11912.7 5937.54 11935.6C5928.77 11958.5 5924.38 11983.9 5924.38 12011.9C5924.38 12040.5 5928.85 12065.8 5937.8 12087.8C5946.93 12109.7 5960.36 12126.9 5978.08 12139.4C5995.97 12151.7 6018.17 12157.9 6044.66 12157.9ZM6435.56 12146.1L6431.27 12175.1C6428.22 12195.5 6423.57 12217.3 6417.3 12240.6C6411.22 12263.9 6404.87 12285.8 6398.24 12306.4C6391.62 12327 6386.16 12343.3 6381.87 12355.5H6333.54C6335.87 12344.1 6338.91 12328.9 6342.67 12310.1C6346.43 12291.3 6350.19 12270.3 6353.94 12247C6357.88 12224 6361.1 12200.3 6363.61 12176.2L6366.83 12146.1H6435.56ZM6796.73 12221.3H6726.93L6928.82 11671.4H6997.55L7199.45 12221.3H7129.64L6965.33 11758.4H6961.04L6796.73 12221.3ZM6822.5 12006.5H7103.87V12065.6H6822.5V12006.5ZM7497.72 12221.3V11671.4H7683.51C7726.65 11671.4 7761.91 11679.2 7789.29 11694.8C7816.86 11710.2 7837.26 11731 7850.5 11757.3C7863.75 11783.7 7870.37 11813 7870.37 11845.4C7870.37 11877.8 7863.75 11907.2 7850.5 11933.7C7837.44 11960.2 7817.21 11981.3 7789.83 11997.1C7762.44 12012.7 7727.36 12020.5 7684.59 12020.5H7551.42V11961.4H7682.44C7711.97 11961.4 7735.69 11956.3 7753.58 11946.1C7771.48 11935.9 7784.46 11922.1 7792.51 11904.7C7800.75 11887.2 7804.86 11867.4 7804.86 11845.4C7804.86 11823.4 7800.75 11803.7 7792.51 11786.3C7784.46 11769 7771.39 11755.4 7753.32 11745.5C7735.24 11735.5 7711.25 11730.5 7681.36 11730.5H7564.31V12221.3H7497.72ZM8032.4 11671.4V12221.3H7969.04V11671.4H8032.4ZM8269.8 12230.9C8243.67 12230.9 8219.95 12226 8198.65 12216.2C8177.35 12206.1 8160.44 12191.7 8147.91 12172.9C8135.38 12154 8129.12 12131.1 8129.12 12104.2C8129.12 12080.6 8133.77 12061.4 8143.08 12046.8C8152.38 12031.9 8164.82 12020.3 8180.4 12011.9C8195.97 12003.4 8213.15 11997.2 8231.94 11993.1C8250.92 11988.8 8269.98 11985.4 8289.13 11982.9C8314.19 11979.6 8334.5 11977.2 8350.07 11975.6C8365.82 11973.8 8377.28 11970.9 8384.44 11966.8C8391.78 11962.6 8395.45 11955.5 8395.45 11945.3V11943.1C8395.45 11916.6 8388.2 11896.1 8373.7 11881.4C8359.38 11866.7 8337.63 11859.4 8308.46 11859.4C8278.21 11859.4 8254.5 11866 8237.31 11879.2C8220.13 11892.5 8208.05 11906.6 8201.07 11921.7L8140.93 11900.2C8151.67 11875.1 8165.99 11855.6 8183.89 11841.6C8201.96 11827.5 8221.65 11817.7 8242.95 11812.1C8264.43 11806.4 8285.55 11803.5 8306.31 11803.5C8319.56 11803.5 8334.77 11805.1 8351.95 11808.4C8369.31 11811.4 8386.05 11817.8 8402.16 11827.4C8418.45 11837.1 8431.96 11851.7 8442.7 11871.2C8453.44 11890.7 8458.81 11916.8 8458.81 11949.6V12221.3H8395.45V12165.4H8392.22C8387.93 12174.4 8380.77 12184 8370.75 12194.2C8360.72 12204.4 8347.39 12213 8330.74 12220.2C8314.1 12227.4 8293.78 12230.9 8269.8 12230.9ZM8279.46 12174C8304.52 12174 8325.64 12169.1 8342.82 12159.3C8360.19 12149.4 8373.25 12136.7 8382.02 12121.1C8390.97 12105.6 8395.45 12089.2 8395.45 12072V12014C8392.76 12017.2 8386.86 12020.2 8377.73 12022.9C8368.78 12025.4 8358.4 12027.6 8346.58 12029.6C8334.95 12031.4 8323.58 12033 8312.49 12034.4C8301.57 12035.7 8292.71 12036.7 8285.91 12037.6C8269.44 12039.8 8254.05 12043.3 8239.73 12048.1C8225.59 12052.8 8214.13 12059.8 8205.36 12069.3C8196.77 12078.6 8192.48 12091.3 8192.48 12107.4C8192.48 12129.5 8200.62 12146.1 8216.91 12157.4C8233.38 12168.5 8254.23 12174 8279.46 12174ZM8741.98 12229.9C8703.32 12229.9 8670.03 12220.7 8642.11 12202.5C8614.19 12184.2 8592.71 12159.1 8577.68 12127C8562.64 12095 8555.12 12058.4 8555.12 12017.2C8555.12 11975.3 8562.82 11938.4 8578.21 11906.3C8593.78 11874.1 8615.44 11849 8643.18 11830.9C8671.11 11812.7 8703.68 11803.5 8740.91 11803.5C8769.91 11803.5 8796.04 11808.9 8819.31 11819.6C8842.57 11830.4 8861.64 11845.4 8876.49 11864.7C8891.35 11884.1 8900.56 11906.6 8904.14 11932.4H8840.78C8835.95 11913.6 8825.21 11897 8808.57 11882.5C8792.1 11867.8 8769.91 11860.4 8741.98 11860.4C8717.28 11860.4 8695.63 11866.9 8677.01 11879.8C8658.58 11892.5 8644.17 11910.5 8633.79 11933.7C8623.59 11956.8 8618.48 11983.9 8618.48 12015.1C8618.48 12046.9 8623.5 12074.7 8633.52 12098.3C8643.72 12121.9 8658.04 12140.3 8676.48 12153.3C8695.09 12166.4 8716.93 12172.9 8741.98 12172.9C8758.45 12172.9 8773.4 12170.1 8786.82 12164.4C8800.24 12158.6 8811.61 12150.4 8820.92 12139.7C8830.22 12128.9 8836.85 12116 8840.78 12101H8904.14C8900.56 12125.3 8891.7 12147.3 8877.57 12166.8C8863.6 12186.1 8845.08 12201.5 8821.99 12213C8799.08 12224.2 8772.41 12229.9 8741.98 12229.9ZM9169.67 12229.9C9129.93 12229.9 9095.66 12221.1 9066.84 12203.6C9038.2 12185.8 9016.1 12161.1 9000.53 12129.5C8985.13 12097.6 8977.44 12060.5 8977.44 12018.3C8977.44 11976.1 8985.13 11938.8 9000.53 11906.6C9016.1 11874.2 9037.76 11849 9065.5 11830.9C9093.42 11812.7 9126 11803.5 9163.22 11803.5C9184.7 11803.5 9205.91 11807.1 9226.85 11814.3C9247.79 11821.4 9266.86 11833.1 9284.04 11849.2C9301.22 11865.1 9314.91 11886.2 9325.12 11912.5C9335.32 11938.8 9340.42 11971.2 9340.42 12009.7V12036.6H9022.54V11981.8H9275.99C9275.99 11958.5 9271.33 11937.8 9262.02 11919.5C9252.9 11901.2 9239.83 11886.8 9222.83 11876.3C9206 11865.7 9186.13 11860.4 9163.22 11860.4C9137.99 11860.4 9116.15 11866.7 9097.72 11879.2C9079.46 11891.6 9065.41 11907.7 9055.57 11927.6C9045.72 11947.4 9040.8 11968.7 9040.8 11991.5V12028C9040.8 12059.1 9046.17 12085.5 9056.91 12107.2C9067.83 12128.6 9082.95 12145 9102.28 12156.3C9121.61 12167.4 9144.07 12172.9 9169.67 12172.9C9186.31 12172.9 9201.35 12170.6 9214.77 12166C9228.38 12161.1 9240.1 12154 9249.94 12144.5C9259.79 12134.8 9267.39 12122.8 9272.76 12108.5L9333.98 12125.7C9327.53 12146.5 9316.7 12164.7 9301.49 12180.5C9286.28 12196 9267.48 12208.2 9245.11 12217C9222.74 12225.6 9197.59 12229.9 9169.67 12229.9ZM9828.78 11808.9V11862.6H9615.07V11808.9H9828.78ZM9677.36 11710.1H9740.72V12103.1C9740.72 12121 9743.32 12134.5 9748.51 12143.4C9753.88 12152.2 9760.68 12158.1 9768.91 12161.1C9777.32 12164 9786.18 12165.4 9795.49 12165.4C9802.47 12165.4 9808.2 12165.1 9812.67 12164.4C9817.15 12163.5 9820.73 12162.7 9823.41 12162.2L9836.3 12219.1C9832 12220.7 9826.01 12222.3 9818.31 12224C9810.61 12225.7 9800.86 12226.6 9789.05 12226.6C9771.15 12226.6 9753.61 12222.8 9736.43 12215.1C9719.42 12207.4 9705.28 12195.7 9694.01 12179.9C9682.91 12164.2 9677.36 12144.3 9677.36 12120.3V11710.1ZM10087.2 12229.9C10050 12229.9 10017.3 12221 9989.2 12203.3C9961.28 12185.6 9939.44 12160.8 9923.69 12128.9C9908.12 12097.1 9900.33 12059.8 9900.33 12017.2C9900.33 11974.3 9908.12 11936.8 9923.69 11904.7C9939.44 11872.7 9961.28 11847.8 9989.2 11830.1C10017.3 11812.4 10050 11803.5 10087.2 11803.5C10124.4 11803.5 10157 11812.4 10184.9 11830.1C10213 11847.8 10234.9 11872.7 10250.4 11904.7C10266.2 11936.8 10274.1 11974.3 10274.1 12017.2C10274.1 12059.8 10266.2 12097.1 10250.4 12128.9C10234.9 12160.8 10213 12185.6 10184.9 12203.3C10157 12221 10124.4 12229.9 10087.2 12229.9ZM10087.2 12172.9C10115.5 12172.9 10138.7 12165.7 10157 12151.2C10175.3 12136.7 10188.8 12117.6 10197.5 12094C10206.3 12070.4 10210.7 12044.8 10210.7 12017.2C10210.7 11989.7 10206.3 11964 10197.5 11940.2C10188.8 11916.4 10175.3 11897.1 10157 11882.5C10138.7 11867.8 10115.5 11860.4 10087.2 11860.4C10058.9 11860.4 10035.6 11867.8 10017.4 11882.5C9999.13 11897.1 9985.62 11916.4 9976.85 11940.2C9968.08 11964 9963.69 11989.7 9963.69 12017.2C9963.69 12044.8 9968.08 12070.4 9976.85 12094C9985.62 12117.6 9999.13 12136.7 10017.4 12151.2C10035.6 12165.7 10058.9 12172.9 10087.2 12172.9ZM10561.9 11730.5V11671.4H10974.3V11730.5H10801.4V12221.3H10734.8V11730.5H10561.9ZM11131.8 11973.2V12221.3H11068.5V11671.4H11131.8V11873.3H11137.2C11146.9 11852 11161.4 11835.1 11180.7 11822.6C11200.2 11809.9 11226.2 11803.5 11258.6 11803.5C11286.7 11803.5 11311.3 11809.2 11332.4 11820.4C11353.5 11831.5 11369.9 11848.6 11381.5 11871.7C11393.3 11894.6 11399.2 11923.8 11399.2 11959.2V12221.3H11335.9V11963.5C11335.9 11930.8 11327.4 11905.5 11310.4 11887.6C11293.5 11869.5 11270.2 11860.4 11240.3 11860.4C11219.5 11860.4 11200.9 11864.8 11184.5 11873.6C11168.2 11882.4 11155.3 11895.2 11145.8 11912C11136.5 11928.8 11131.8 11949.2 11131.8 11973.2ZM11515.2 12221.3V11808.9H11576.4V11871.2H11580.7C11588.2 11850.8 11601.8 11834.2 11621.5 11821.5C11641.2 11808.8 11663.4 11802.4 11688.1 11802.4C11692.7 11802.4 11698.5 11802.5 11705.5 11802.7C11712.5 11802.9 11717.8 11803.2 11721.3 11803.5V11868C11719.2 11867.4 11714.3 11866.6 11706.6 11865.5C11699.1 11864.3 11691.1 11863.7 11682.7 11863.7C11662.6 11863.7 11644.7 11867.9 11629 11876.3C11613.4 11884.5 11601.1 11896 11591.9 11910.6C11583 11925.1 11578.5 11941.7 11578.5 11960.3V12221.3H11515.2ZM11796.5 12221.3V11808.9H11859.8V12221.3H11796.5ZM11828.7 11740.2C11816.3 11740.2 11805.7 11736 11796.7 11727.5C11788 11719.1 11783.6 11709 11783.6 11697.2C11783.6 11685.4 11788 11675.3 11796.7 11666.9C11805.7 11658.5 11816.3 11654.2 11828.7 11654.2C11841 11654.2 11851.6 11658.5 11860.3 11666.9C11869.3 11675.3 11873.8 11685.4 11873.8 11697.2C11873.8 11709 11869.3 11719.1 11860.3 11727.5C11851.6 11736 11841 11740.2 11828.7 11740.2ZM12313.1 11808.9L12160.6 12221.3H12096.1L11943.6 11808.9H12012.4L12126.2 12137.5H12130.5L12244.3 11808.9H12313.1ZM12554.8 12229.9C12515.1 12229.9 12480.8 12221.1 12452 12203.6C12423.4 12185.8 12401.3 12161.1 12385.7 12129.5C12370.3 12097.6 12362.6 12060.5 12362.6 12018.3C12362.6 11976.1 12370.3 11938.8 12385.7 11906.6C12401.3 11874.2 12422.9 11849 12450.7 11830.9C12478.6 11812.7 12511.2 11803.5 12548.4 11803.5C12569.9 11803.5 12591.1 11807.1 12612 11814.3C12633 11821.4 12652 11833.1 12669.2 11849.2C12686.4 11865.1 12700.1 11886.2 12710.3 11912.5C12720.5 11938.8 12725.6 11971.2 12725.6 12009.7V12036.6H12407.7V11981.8H12661.2C12661.2 11958.5 12656.5 11937.8 12647.2 11919.5C12638.1 11901.2 12625 11886.8 12608 11876.3C12591.2 11865.7 12571.3 11860.4 12548.4 11860.4C12523.2 11860.4 12501.3 11866.7 12482.9 11879.2C12464.6 11891.6 12450.6 11907.7 12440.7 11927.6C12430.9 11947.4 12426 11968.7 12426 11991.5V12028C12426 12059.1 12431.3 12085.5 12442.1 12107.2C12453 12128.6 12468.1 12145 12487.4 12156.3C12506.8 12167.4 12529.2 12172.9 12554.8 12172.9C12571.5 12172.9 12586.5 12170.6 12599.9 12166C12613.5 12161.1 12625.3 12154 12635.1 12144.5C12645 12134.8 12652.6 12122.8 12657.9 12108.5L12719.1 12125.7C12712.7 12146.5 12701.9 12164.7 12686.7 12180.5C12671.4 12196 12652.6 12208.2 12630.3 12217C12607.9 12225.6 12582.8 12229.9 12554.8 12229.9Z" fill="#4B7A34"/>
<defs>
<linearGradient id="paint0_linear_347_126" x1="6995.16" y1="3827.04" x2="6826.55" y2="5897.22" gradientUnits="userSpaceOnUse">
<stop stop-color="#225431"/>
<stop offset="1" stop-color="#4B7A34"/>
</linearGradient>
</defs>
</svg>
