<svg width="12765" height="12405" viewBox="0 0 12765 12405" fill="none" xmlns="http://www.w3.org/2000/svg">
<path d="M769.292 10369.4C769.292 10438.6 739.616 10496.3 680.265 10542.5C622.562 10588.6 546.724 10611.7 452.751 10611.7C358.778 10611.7 284.589 10590.3 230.183 10547.4C175.778 10504.6 148.575 10441.9 148.575 10359.5V9216.96C148.575 9134.53 176.602 9070.23 232.656 9024.07C288.71 8977.91 363.724 8954.82 457.697 8954.82C553.319 8954.82 629.156 8976.26 685.211 9019.12C741.265 9060.34 769.292 9114.74 769.292 9182.34V9488.99C769.292 9518.66 747.859 9539.27 704.994 9550.81C681.913 9557.41 658.832 9560.7 635.751 9560.7C612.67 9560.7 589.589 9558.23 566.508 9553.28C571.454 9513.72 573.927 9471.68 573.927 9427.16V9216.96C573.927 9185.64 563.21 9161.73 541.778 9145.24C520.346 9127.11 492.319 9118.04 457.697 9118.04C423.075 9118.04 395.048 9127.11 373.616 9145.24C353.832 9161.73 343.94 9185.64 343.94 9216.96V10349.6C343.94 10379.3 353.832 10403.2 373.616 10421.3C395.048 10439.4 423.075 10448.5 457.697 10448.5C492.319 10448.5 520.346 10440.3 541.778 10423.8C563.21 10405.6 573.927 10380.9 573.927 10349.6V10295.2L566.508 10169.1C589.589 10164.1 612.67 10161.6 635.751 10161.6C658.832 10161.6 681.913 10164.9 704.994 10171.5C747.859 10183.1 769.292 10203.7 769.292 10233.4V10369.4ZM914.077 10359.5V9612.64C914.077 9530.2 939.631 9465.91 990.739 9419.74C1041.85 9373.58 1111.09 9350.5 1198.47 9350.5C1285.85 9350.5 1353.44 9371.93 1401.25 9414.8C1450.71 9457.66 1475.44 9520.31 1475.44 9602.74V10349.6C1475.44 10432 1449.06 10496.3 1396.31 10542.5C1345.2 10588.6 1275.96 10611.7 1188.58 10611.7C1101.2 10611.7 1033.6 10590.3 985.793 10547.4C937.982 10504.6 914.077 10441.9 914.077 10359.5ZM1099.55 9602.74V10359.5C1099.55 10387.5 1108.62 10411.4 1126.75 10431.2C1144.89 10449.3 1167.14 10458.4 1193.52 10458.4C1221.55 10458.4 1244.63 10449.3 1262.77 10431.2C1280.9 10411.4 1289.97 10387.5 1289.97 10359.5V9602.74C1289.97 9574.72 1280.9 9551.64 1262.77 9533.5C1244.63 9513.72 1221.55 9503.83 1193.52 9503.83C1167.14 9503.83 1144.89 9513.72 1126.75 9533.5C1108.62 9551.64 1099.55 9574.72 1099.55 9602.74ZM1646.12 9053.74C1646.12 9015.82 1638.7 8965.54 1623.86 8902.89C1673.32 8876.51 1726.08 8863.32 1782.13 8863.32C1815.1 8863.32 1831.59 8875.69 1831.59 8900.42V10381.7C1831.59 10416.4 1837.36 10441.1 1848.9 10455.9C1862.09 10470.8 1885.99 10478.2 1920.62 10478.2C1922.26 10521 1910.72 10554 1885.99 10577.1C1862.91 10600.2 1828.29 10611.7 1782.13 10611.7C1735.97 10611.7 1701.35 10597.7 1678.26 10569.7C1656.83 10541.7 1646.12 10495.5 1646.12 10431.2V9053.74ZM2415.83 9578.01C2415.83 9515.37 2410.06 9447.77 2398.52 9375.23C2447.98 9368.64 2501.56 9365.34 2559.26 9365.34C2587.29 9365.34 2601.3 9377.7 2601.3 9402.43V10381.7C2601.3 10416.4 2607.07 10441.1 2618.61 10455.9C2631.8 10470.8 2655.71 10478.2 2690.33 10478.2C2691.98 10521 2680.44 10554 2655.71 10577.1C2632.63 10600.2 2598.83 10611.7 2554.32 10611.7C2488.37 10611.7 2446.33 10586.2 2428.19 10535.1C2377.09 10586.2 2319.38 10611.7 2255.09 10611.7C2190.79 10611.7 2138.86 10590.3 2099.29 10547.4C2059.72 10502.9 2039.94 10440.3 2039.94 10359.5V9580.49C2039.94 9545.87 2033.34 9521.14 2020.15 9506.3C2008.61 9491.46 1985.53 9484.04 1950.91 9484.04C1949.26 9442.83 1960.8 9410.68 1985.53 9387.6C2011.91 9362.87 2048.18 9350.5 2094.34 9350.5C2140.5 9350.5 2173.48 9363.69 2193.26 9390.07C2214.69 9416.45 2225.41 9460.14 2225.41 9521.14V10357C2225.41 10414.7 2249.32 10443.6 2297.13 10443.6C2321.86 10443.6 2344.94 10434.5 2366.37 10416.4C2389.45 10396.6 2405.94 10376 2415.83 10354.5V9578.01ZM3003.28 10384.2C3003.28 10465 3009.05 10532.6 3020.59 10587C2971.13 10593.6 2917.55 10596.9 2859.84 10596.9C2831.82 10596.9 2817.8 10584.5 2817.8 10559.8V9580.49C2817.8 9545.87 2811.21 9521.14 2798.02 9506.3C2786.48 9491.46 2763.4 9484.04 2728.78 9484.04C2727.13 9441.18 2737.84 9408.2 2760.93 9385.12C2785.66 9362.04 2824.4 9350.5 2877.16 9350.5C2931.56 9350.5 2969.48 9376.05 2990.91 9427.16C3042.02 9376.05 3103.02 9350.5 3173.91 9350.5C3246.45 9350.5 3300.86 9382.65 3337.13 9446.95C3393.18 9382.65 3455.01 9350.5 3522.6 9350.5C3591.85 9350.5 3644.6 9371.11 3680.87 9412.33C3717.14 9453.54 3735.28 9512.07 3735.28 9587.91V10381.7C3735.28 10416.4 3741.05 10441.1 3752.59 10455.9C3765.78 10470.8 3789.68 10478.2 3824.3 10478.2C3825.95 10521 3814.41 10554 3789.68 10577.1C3766.6 10600.2 3731.98 10611.7 3685.82 10611.7C3639.66 10611.7 3605.03 10597.7 3581.95 10569.7C3560.52 10541.7 3549.8 10495.5 3549.8 10431.2V9602.74C3549.8 9548.34 3524.25 9521.14 3473.14 9521.14C3428.63 9521.14 3394.01 9546.69 3369.28 9597.8V10384.2C3369.28 10465 3375.05 10532.6 3386.59 10587C3337.13 10593.6 3283.55 10596.9 3225.84 10596.9C3197.82 10596.9 3183.8 10584.5 3183.8 10559.8V9602.74C3183.8 9548.34 3158.25 9521.14 3107.14 9521.14C3062.63 9521.14 3028.01 9546.69 3003.28 9597.8V10384.2ZM3925.83 9053.74C3925.83 9004.28 3918.41 8954 3903.58 8902.89C3953.03 8876.51 4005.79 8863.32 4061.85 8863.32C4094.82 8863.32 4111.3 8875.69 4111.3 8900.42V9414.8C4162.41 9371.93 4215.17 9350.5 4269.58 9350.5C4414.66 9350.5 4487.2 9434.58 4487.2 9602.74V10324.9C4487.2 10407.3 4461.64 10471.6 4410.53 10517.7C4359.43 10563.9 4290.18 10587 4202.81 10587H3925.83V9053.74ZM4111.3 10428.7H4207.75C4235.78 10428.7 4258.03 10420.5 4274.52 10404C4292.66 10385.9 4301.72 10362.8 4301.72 10334.7V9605.22C4301.72 9549.16 4276.99 9521.14 4227.53 9521.14C4178.08 9521.14 4139.33 9546.69 4111.3 9597.8V10428.7ZM4766.45 9150.19C4695.56 9150.19 4660.11 9103.2 4660.11 9009.23C4660.11 8915.26 4695.56 8868.27 4766.45 8868.27C4837.34 8868.27 4872.79 8915.26 4872.79 9009.23C4872.79 9103.2 4837.34 9150.19 4766.45 9150.19ZM4613.13 9375.23H4860.42V10381.7C4860.42 10416.4 4866.19 10441.1 4877.73 10455.9C4890.92 10470.8 4914.83 10478.2 4949.45 10478.2C4951.1 10521 4939.56 10554 4914.83 10577.1C4891.75 10600.2 4857.13 10611.7 4810.96 10611.7C4764.8 10611.7 4730.18 10597.7 4707.1 10569.7C4685.67 10541.7 4674.95 10495.5 4674.95 10431.2V9523.61L4598.29 9535.97C4586.75 9493.11 4580.98 9456.01 4580.98 9424.69C4580.98 9391.72 4591.69 9375.23 4613.13 9375.23ZM5298.35 10134.4C5243.95 10170.7 5216.74 10231.7 5216.74 10317.4C5216.74 10401.5 5242.3 10443.6 5293.41 10443.6C5346.16 10443.6 5387.38 10413.9 5417.06 10354.5V10055.3L5298.35 10134.4ZM5325.56 9350.5C5510.2 9350.5 5602.53 9432.11 5602.53 9595.33V10381.7C5602.53 10416.4 5608.3 10441.1 5619.84 10455.9C5633.03 10470.8 5656.93 10478.2 5691.56 10478.2C5693.2 10521 5681.66 10554 5656.93 10577.1C5633.85 10600.2 5600.06 10611.7 5555.54 10611.7C5486.3 10611.7 5444.26 10586.2 5429.42 10535.1C5378.31 10586.2 5318.14 10611.7 5248.89 10611.7C5179.65 10611.7 5124.42 10585.3 5083.2 10532.6C5041.99 10479.8 5021.38 10408.9 5021.38 10319.9C5021.38 10184.7 5078.26 10082.5 5192.01 10013.3L5417.06 9879.72V9612.64C5417.06 9543.39 5384.08 9508.77 5318.14 9508.77C5253.84 9508.77 5221.69 9547.51 5221.69 9625V9706.61L5229.11 9822.84C5207.68 9827.78 5185.42 9830.26 5162.34 9830.26C5140.91 9830.26 5120.3 9826.96 5100.51 9820.37C5060.95 9810.47 5041.16 9791.51 5041.16 9763.49V9560.7C5041.16 9494.76 5066.72 9443.65 5117.83 9407.38C5170.58 9369.46 5239.83 9350.5 5325.56 9350.5ZM6700.57 10369.4C6700.57 10438.6 6670.89 10496.3 6611.54 10542.5C6553.84 10588.6 6478 10611.7 6384.03 10611.7C6290.05 10611.7 6215.86 10590.3 6161.46 10547.4C6107.05 10504.6 6079.85 10441.9 6079.85 10359.5V9216.96C6079.85 9134.53 6107.88 9070.23 6163.93 9024.07C6219.99 8977.91 6295 8954.82 6388.97 8954.82C6484.59 8954.82 6560.43 8976.26 6616.49 9019.12C6672.54 9060.34 6700.57 9114.74 6700.57 9182.34V9488.99C6700.57 9518.66 6679.14 9539.27 6636.27 9550.81C6613.19 9557.41 6590.11 9560.7 6567.03 9560.7C6543.95 9560.7 6520.87 9558.23 6497.78 9553.28C6502.73 9513.72 6505.2 9471.68 6505.2 9427.16V9216.96C6505.2 9185.64 6494.49 9161.73 6473.05 9145.24C6451.62 9127.11 6423.59 9118.04 6388.97 9118.04C6354.35 9118.04 6326.32 9127.11 6304.89 9145.24C6285.11 9161.73 6275.22 9185.64 6275.22 9216.96V10349.6C6275.22 10379.3 6285.11 10403.2 6304.89 10421.3C6326.32 10439.4 6354.35 10448.5 6388.97 10448.5C6423.59 10448.5 6451.62 10440.3 6473.05 10423.8C6494.49 10405.6 6505.2 10380.9 6505.2 10349.6V10295.2L6497.78 10169.1C6520.87 10164.1 6543.95 10161.6 6567.03 10161.6C6590.11 10161.6 6613.19 10164.9 6636.27 10171.5C6679.14 10183.1 6700.57 10203.7 6700.57 10233.4V10369.4ZM7095.12 10134.4C7040.72 10170.7 7013.52 10231.7 7013.52 10317.4C7013.52 10401.5 7039.07 10443.6 7090.18 10443.6C7142.93 10443.6 7184.15 10413.9 7213.83 10354.5V10055.3L7095.12 10134.4ZM7122.33 9350.5C7306.98 9350.5 7399.3 9432.11 7399.3 9595.33V10381.7C7399.3 10416.4 7405.07 10441.1 7416.61 10455.9C7429.8 10470.8 7453.7 10478.2 7488.33 10478.2C7489.98 10521 7478.43 10554 7453.7 10577.1C7430.62 10600.2 7396.83 10611.7 7352.31 10611.7C7283.07 10611.7 7241.03 10586.2 7226.19 10535.1C7175.08 10586.2 7114.91 10611.7 7045.66 10611.7C6976.42 10611.7 6921.19 10585.3 6879.97 10532.6C6838.76 10479.8 6818.15 10408.9 6818.15 10319.9C6818.15 10184.7 6875.03 10082.5 6988.79 10013.3L7213.83 9879.72V9612.64C7213.83 9543.39 7180.85 9508.77 7114.91 9508.77C7050.61 9508.77 7018.46 9547.51 7018.46 9625V9706.61L7025.88 9822.84C7004.45 9827.78 6982.19 9830.26 6959.11 9830.26C6937.68 9830.26 6917.07 9826.96 6897.29 9820.37C6857.72 9810.47 6837.93 9791.51 6837.93 9763.49V9560.7C6837.93 9494.76 6863.49 9443.65 6914.6 9407.38C6967.35 9369.46 7036.6 9350.5 7122.33 9350.5ZM7792.25 10384.2C7792.25 10463.3 7798.02 10529.3 7809.56 10582C7760.1 10591.9 7706.52 10596.9 7648.82 10596.9C7620.79 10596.9 7606.78 10584.5 7606.78 10559.8V9580.49C7606.78 9545.87 7600.18 9521.14 7586.99 9506.3C7575.45 9491.46 7552.37 9484.04 7517.75 9484.04C7516.1 9441.18 7526.82 9408.2 7549.9 9385.12C7574.63 9362.04 7609.25 9350.5 7653.76 9350.5C7719.71 9350.5 7760.93 9383.47 7777.41 9449.42C7818.63 9383.47 7877.16 9350.5 7952.99 9350.5C8088.18 9350.5 8155.78 9415.62 8155.78 9545.87V9793.16C8155.78 9821.19 8135.99 9840.15 8096.43 9850.04C8076.64 9856.64 8055.21 9859.93 8032.13 9859.93C8010.7 9859.93 7989.27 9857.46 7967.83 9852.51C7972.78 9816.24 7975.25 9777.5 7975.25 9736.28V9610.16C7975.25 9555.76 7950.52 9528.55 7901.06 9528.55C7877.98 9528.55 7856.55 9539.27 7836.76 9560.7C7816.98 9582.14 7802.14 9606.04 7792.25 9632.42V10384.2ZM8651.05 9615.11C8651.05 9582.14 8641.16 9556.58 8621.37 9538.45C8601.59 9518.66 8576.86 9508.77 8547.18 9508.77C8486.18 9508.77 8455.68 9534.33 8455.68 9585.43V9939.07L8574.39 9850.04C8625.5 9812.12 8651.05 9733.81 8651.05 9615.11ZM8270.21 10366.9V9592.85C8270.21 9431.28 8365.01 9350.5 8554.6 9350.5C8745.85 9350.5 8841.47 9441.18 8841.47 9622.53C8841.47 9695.07 8828.28 9761.84 8801.9 9822.84C8775.52 9883.84 8739.25 9930 8693.09 9961.33L8455.68 10124.5V10349.6C8455.68 10418.8 8487.83 10453.4 8552.13 10453.4C8618.08 10453.4 8651.05 10414.7 8651.05 10337.2V10280.3L8643.63 10164.1C8665.06 10159.2 8686.5 10156.7 8707.93 10156.7C8731.01 10156.7 8752.44 10160 8772.23 10166.6C8811.79 10176.5 8831.58 10195.4 8831.58 10223.5V10401.5C8831.58 10467.5 8805.2 10519.4 8752.44 10557.3C8701.33 10593.6 8632.91 10611.7 8547.18 10611.7C8362.54 10611.7 8270.21 10530.1 8270.21 10366.9ZM9299.65 10557.3V9192.23C9299.65 9157.61 9292.23 9133.7 9277.39 9120.51C9264.2 9105.68 9240.29 9098.26 9205.67 9098.26C9205.67 9004.28 9258.43 8957.3 9363.94 8957.3C9451.32 8957.3 9495.01 9014.18 9495.01 9127.93V9773.38H9725V9212.01L9715.11 8979.55C9771.16 8971.31 9826.39 8967.19 9880.79 8967.19C9907.17 8967.19 9920.36 8981.2 9920.36 9009.23V10376.8C9920.36 10411.4 9926.96 10436.1 9940.15 10451C9954.98 10464.2 9979.71 10470.8 10014.3 10470.8C10014.3 10564.7 9961.58 10611.7 9856.06 10611.7C9768.69 10611.7 9725 10554.8 9725 10441.1V9936.6H9495.01V10354.5L9504.9 10587C9448.85 10595.2 9393.62 10599.4 9339.21 10599.4C9312.83 10599.4 9299.65 10585.3 9299.65 10557.3ZM10105.6 10359.5V9612.64C10105.6 9530.2 10131.2 9465.91 10182.3 9419.74C10233.4 9373.58 10302.6 9350.5 10390 9350.5C10477.4 9350.5 10545 9371.93 10592.8 9414.8C10642.3 9457.66 10667 9520.31 10667 9602.74V10349.6C10667 10432 10640.6 10496.3 10587.9 10542.5C10536.7 10588.6 10467.5 10611.7 10380.1 10611.7C10292.7 10611.7 10225.1 10590.3 10177.3 10547.4C10129.5 10504.6 10105.6 10441.9 10105.6 10359.5ZM10291.1 9602.74V10359.5C10291.1 10387.5 10300.2 10411.4 10318.3 10431.2C10336.4 10449.3 10358.7 10458.4 10385.1 10458.4C10413.1 10458.4 10436.2 10449.3 10454.3 10431.2C10472.4 10411.4 10481.5 10387.5 10481.5 10359.5V9602.74C10481.5 9574.72 10472.4 9551.64 10454.3 9533.5C10436.2 9513.72 10413.1 9503.83 10385.1 9503.83C10358.7 9503.83 10336.4 9513.72 10318.3 9533.5C10300.2 9551.64 10291.1 9574.72 10291.1 9602.74ZM11040.4 10384.2C11040.4 10465 11046.2 10532.6 11057.8 10587C11008.3 10593.6 10954.7 10596.9 10897 10596.9C10869 10596.9 10855 10584.5 10855 10559.8V9580.49C10855 9545.87 10848.4 9521.14 10835.2 9506.3C10823.6 9491.46 10800.6 9484.04 10765.9 9484.04C10764.3 9441.18 10775 9408.2 10798.1 9385.12C10822.8 9362.04 10861.6 9350.5 10914.3 9350.5C10968.7 9350.5 11006.6 9376.05 11028.1 9427.16C11079.2 9376.05 11140.2 9350.5 11211.1 9350.5C11283.6 9350.5 11338 9382.65 11374.3 9446.95C11430.4 9382.65 11492.2 9350.5 11559.8 9350.5C11629 9350.5 11681.8 9371.11 11718 9412.33C11754.3 9453.54 11772.4 9512.07 11772.4 9587.91V10381.7C11772.4 10416.4 11778.2 10441.1 11789.8 10455.9C11802.9 10470.8 11826.9 10478.2 11861.5 10478.2C11863.1 10521 11851.6 10554 11826.9 10577.1C11803.8 10600.2 11769.1 10611.7 11723 10611.7C11676.8 10611.7 11642.2 10597.7 11619.1 10569.7C11597.7 10541.7 11587 10495.5 11587 10431.2V9602.74C11587 9548.34 11561.4 9521.14 11510.3 9521.14C11465.8 9521.14 11431.2 9546.69 11406.4 9597.8V10384.2C11406.4 10465 11412.2 10532.6 11423.8 10587C11374.3 10593.6 11320.7 10596.9 11263 10596.9C11235 10596.9 11221 10584.5 11221 10559.8V9602.74C11221 9548.34 11195.4 9521.14 11144.3 9521.14C11099.8 9521.14 11065.2 9546.69 11040.4 9597.8V10384.2ZM12333.9 9615.11C12333.9 9582.14 12324.1 9556.58 12304.3 9538.45C12284.5 9518.66 12259.8 9508.77 12230.1 9508.77C12169.1 9508.77 12138.6 9534.33 12138.6 9585.43V9939.07L12257.3 9850.04C12308.4 9812.12 12333.9 9733.81 12333.9 9615.11ZM11953.1 10366.9V9592.85C11953.1 9431.28 12047.9 9350.5 12237.5 9350.5C12428.7 9350.5 12524.4 9441.18 12524.4 9622.53C12524.4 9695.07 12511.2 9761.84 12484.8 9822.84C12458.4 9883.84 12422.1 9930 12376 9961.33L12138.6 10124.5V10349.6C12138.6 10418.8 12170.7 10453.4 12235 10453.4C12301 10453.4 12333.9 10414.7 12333.9 10337.2V10280.3L12326.5 10164.1C12348 10159.2 12369.4 10156.7 12390.8 10156.7C12413.9 10156.7 12435.3 10160 12455.1 10166.6C12494.7 10176.5 12514.5 10195.4 12514.5 10223.5V10401.5C12514.5 10467.5 12488.1 10519.4 12435.3 10557.3C12384.2 10593.6 12315.8 10611.7 12230.1 10611.7C12045.4 10611.7 11953.1 10530.1 11953.1 10366.9Z" fill="white"/>
<rect x="66.5625" y="11104.3" width="12515.8" height="58.4167" fill="white"/>
<path d="M1742.87 3701.5C1878.48 6225.38 4392.31 7057.25 5632.28 7157.71C4167.86 7016.44 3249.66 5467.27 3136.65 5274.22C3046.25 5119.77 2716.01 4707.6 2562.19 4520.82C2745.83 4629.12 3131.94 4954.02 3325 5241.26C3479.45 5471.04 3888.48 5971.11 4073.69 6192.42C4013.42 6049.27 3976.38 5784.33 3965.39 5669.75C3814.71 4170.49 2420.93 3732.9 1742.87 3701.5Z" fill="#5DB034" stroke="#4F7E36" stroke-width="9.41745"/>
<path d="M7035.47 7138.88C9036.68 6602.08 10086.7 7011.73 10449.3 7402.56C8895.42 6988.2 8970.76 7256.59 6719.99 7689.79C4919.37 8036.35 3621.65 7138.88 3202.57 6517.32C3819.41 6931.69 5097.42 7658.74 7035.47 7138.88Z" fill="#5DB034"/>
<path d="M3508.64 3079.96V4275.97C3297.69 4095.16 3138.22 4012.28 3084.85 3993.45V3451.95C3084.85 3431.14 3067.99 3414.28 3047.19 3414.28H2546.52C2475.79 3414.28 2444.04 3325.63 2498.68 3280.73L3894.76 2133.5V772.684H4634.02V1559.04L6450.05 120.989C6539.22 50.3841 6665.26 50.4699 6754.32 121.196L10711 3263.14C10773.9 3313.06 10738.6 3414.28 10658.3 3414.28H10133.8C10113 3414.28 10096.1 3431.14 10096.1 3451.95V7054.12C10009.5 6982.55 9799.49 6914.43 9705.32 6889.31V3098.79L6654.53 700.749C6623.84 676.631 6580.66 676.582 6549.92 700.629L3508.64 3079.96Z" fill="#54B872" stroke="#54B872" stroke-width="9.41745"/>
<path d="M4863.25 4847.45C4788.8 3829.92 6029.69 3383.2 6625.31 4202.18C6972.67 3507.3 8576.37 3687.47 8362.64 4847.45C8194.14 5762 7153.84 6505.73 6668.72 6760.94C6641.62 6775.21 6609.55 6774.74 6582.84 6759.76C6389.56 6651.37 6138.66 6489.62 5888.46 6292.5V5067.93C5888.46 5033.07 5883.89 4973.97 5856.09 4922.82C5842 4896.89 5821.74 4872.64 5792.88 4854.97C5763.96 4837.26 5727.74 4826.97 5683.05 4826.98C5638.22 4826.99 5602.91 4837.76 5575.69 4856.58C5548.54 4875.36 5531.26 4900.88 5520.29 4927.4C5498.86 4979.27 5500.35 5038.63 5500.35 5067.93H5547.18C5547.18 5036.35 5546.36 4986.96 5563.58 4945.3C5571.95 4925.05 5584.24 4907.61 5602.33 4895.11C5620.34 4882.65 5645.92 4873.83 5683.06 4873.82C5720.33 4873.81 5747.84 4882.31 5768.42 4894.91C5789.05 4907.54 5804.03 4925.11 5814.94 4945.18C5836.46 4984.77 5841.32 5032.64 5841.61 5064.87L5841.62 5067.94V6255.17C5533.22 6006.52 5231.42 5705.7 5045.84 5386.51C5108.58 5144.59 5323.2 4709.95 5654.2 4765.12C6100.92 4839.57 5976.83 4641.07 5952.01 4616.25C5928.07 4592.32 5326.86 4272.86 4883.38 4985.28C4873.43 4939.39 4866.61 4893.42 4863.25 4847.45Z" fill="url(#paint0_linear_347_23)"/>
<ellipse cx="5717.15" cy="3199.82" rx="482.419" ry="477.736" fill="#54B872"/>
<ellipse cx="5225.37" cy="3251.29" rx="168.613" ry="238.868" fill="#54B872"/>
<ellipse cx="7407.96" cy="3237.27" rx="477.736" ry="477.736" fill="#54B872"/>
<path d="M89.802 12221.7H19.9979L221.893 11671.9H290.623L492.518 12221.7H422.714L258.406 11758.9H254.11L89.802 12221.7ZM115.576 12006.9H396.94V12066H115.576V12006.9ZM790.797 12221.7V11671.9H976.583C1019.72 11671.9 1054.98 11679.7 1082.36 11695.2C1109.93 11710.6 1130.33 11731.5 1143.58 11757.8C1156.82 11784.1 1163.44 11813.5 1163.44 11845.9C1163.44 11878.3 1156.82 11907.7 1143.58 11934.2C1130.51 11960.7 1110.28 11981.8 1082.9 11997.5C1055.52 12013.1 1020.43 12020.9 977.657 12020.9H844.492V11961.8H975.509C1005.04 11961.8 1028.76 11956.7 1046.66 11946.5C1064.55 11936.3 1077.53 11922.6 1085.58 11905.2C1093.82 11887.7 1097.93 11867.9 1097.93 11845.9C1097.93 11823.8 1093.82 11804.2 1085.58 11786.8C1077.53 11769.4 1064.46 11755.8 1046.39 11746C1028.31 11736 1004.33 11730.9 974.435 11730.9H857.379V12221.7H790.797ZM1325.47 11671.9V12221.7H1262.11V11671.9H1325.47ZM1562.87 12231.4C1536.74 12231.4 1513.02 12226.5 1491.72 12216.6C1470.42 12206.6 1453.51 12192.2 1440.98 12173.4C1428.45 12154.4 1422.19 12131.5 1422.19 12104.7C1422.19 12081 1426.84 12061.9 1436.15 12047.2C1445.46 12032.4 1457.9 12020.7 1473.47 12012.3C1489.04 12003.9 1506.22 11997.6 1525.02 11993.5C1543.99 11989.2 1563.05 11985.8 1582.2 11983.3C1607.26 11980.1 1627.57 11977.7 1643.15 11976.1C1658.9 11974.3 1670.35 11971.3 1677.51 11967.2C1684.85 11963.1 1688.52 11955.9 1688.52 11945.7V11943.6C1688.52 11917.1 1681.27 11896.5 1666.77 11881.8C1652.45 11867.2 1630.71 11859.8 1601.53 11859.8C1571.28 11859.8 1547.57 11866.4 1530.38 11879.7C1513.2 11892.9 1501.12 11907.1 1494.14 11922.1L1434 11900.6C1444.74 11875.6 1459.06 11856.1 1476.96 11842.1C1495.04 11828 1514.72 11818.1 1536.02 11812.6C1557.5 11806.8 1578.62 11804 1599.38 11804C1612.63 11804 1627.84 11805.6 1645.02 11808.8C1662.39 11811.9 1679.12 11818.2 1695.23 11827.9C1711.52 11837.5 1725.03 11852.1 1735.77 11871.6C1746.51 11891.1 1751.88 11917.3 1751.88 11950V12221.7H1688.52V12165.9H1685.3C1681 12174.8 1673.84 12184.4 1663.82 12194.6C1653.79 12204.8 1640.46 12213.5 1623.81 12220.7C1607.17 12227.8 1586.85 12231.4 1562.87 12231.4ZM1572.54 12174.5C1597.59 12174.5 1618.71 12169.6 1635.9 12159.7C1653.26 12149.9 1666.32 12137.2 1675.09 12121.6C1684.04 12106 1688.52 12089.6 1688.52 12072.5V12014.5C1685.83 12017.7 1679.93 12020.6 1670.8 12023.3C1661.85 12025.8 1651.47 12028.1 1639.66 12030C1628.02 12031.8 1616.66 12033.4 1605.56 12034.9C1594.64 12036.1 1585.78 12037.2 1578.98 12038.1C1562.51 12040.2 1547.12 12043.7 1532.8 12048.6C1518.66 12053.2 1507.21 12060.3 1498.44 12069.8C1489.84 12079.1 1485.55 12091.8 1485.55 12107.9C1485.55 12129.9 1493.69 12146.6 1509.98 12157.8C1526.45 12168.9 1547.3 12174.5 1572.54 12174.5ZM2035.06 12230.3C1996.39 12230.3 1963.1 12221.2 1935.18 12202.9C1907.26 12184.7 1885.78 12159.5 1870.75 12127.5C1855.71 12095.5 1848.19 12058.9 1848.19 12017.7C1848.19 11975.8 1855.89 11938.8 1871.28 11906.8C1886.86 11874.6 1908.51 11849.4 1936.26 11831.4C1964.18 11813.1 1996.75 11804 2033.98 11804C2062.98 11804 2089.11 11809.3 2112.38 11820.1C2135.64 11830.8 2154.71 11845.9 2169.56 11865.2C2184.42 11884.5 2193.64 11907.1 2197.22 11932.8H2133.85C2129.02 11914.1 2118.28 11897.4 2101.64 11882.9C2085.17 11868.2 2062.98 11860.9 2035.06 11860.9C2010.36 11860.9 1988.7 11867.3 1970.08 11880.2C1951.65 11892.9 1937.24 11910.9 1926.86 11934.2C1916.66 11957.3 1911.56 11984.4 1911.56 12015.5C1911.56 12047.4 1916.57 12075.1 1926.59 12098.8C1936.79 12122.4 1951.11 12140.7 1969.55 12153.8C1988.16 12166.9 2010 12173.4 2035.06 12173.4C2051.52 12173.4 2066.47 12170.5 2079.89 12164.8C2093.31 12159.1 2104.68 12150.8 2113.99 12140.1C2123.29 12129.4 2129.92 12116.5 2133.85 12101.4H2197.22C2193.64 12125.8 2184.78 12147.7 2170.64 12167.2C2156.68 12186.6 2138.15 12201.9 2115.06 12213.4C2092.15 12224.7 2065.48 12230.3 2035.06 12230.3ZM2462.74 12230.3C2423.01 12230.3 2388.73 12221.5 2359.91 12204C2331.28 12186.3 2309.17 12161.6 2293.6 12129.9C2278.21 12098 2270.51 12061 2270.51 12018.8C2270.51 11976.5 2278.21 11939.3 2293.6 11907.1C2309.17 11874.7 2330.83 11849.4 2358.57 11831.4C2386.49 11813.1 2419.07 11804 2456.3 11804C2477.77 11804 2498.98 11807.6 2519.93 11814.7C2540.87 11821.9 2559.93 11833.5 2577.11 11849.6C2594.29 11865.5 2607.99 11886.7 2618.19 11913C2628.39 11939.3 2633.49 11971.7 2633.49 12010.2V12037H2315.61V11982.2H2569.06C2569.06 11959 2564.4 11938.2 2555.1 11920C2545.97 11901.7 2532.9 11887.3 2515.9 11876.7C2499.07 11866.2 2479.21 11860.9 2456.3 11860.9C2431.06 11860.9 2409.22 11867.2 2390.79 11879.7C2372.53 11892 2358.48 11908.1 2348.64 11928C2338.79 11947.9 2333.87 11969.2 2333.87 11991.9V12028.4C2333.87 12059.6 2339.24 12086 2349.98 12107.6C2360.9 12129.1 2376.02 12145.5 2395.35 12156.8C2414.68 12167.9 2437.14 12173.4 2462.74 12173.4C2479.39 12173.4 2494.42 12171.1 2507.84 12166.4C2521.45 12161.6 2533.17 12154.4 2543.01 12144.9C2552.86 12135.3 2560.47 12123.3 2565.84 12109L2627.05 12126.1C2620.6 12146.9 2609.78 12165.2 2594.56 12180.9C2579.35 12196.5 2560.56 12208.7 2538.18 12217.4C2515.81 12226 2490.66 12230.3 2462.74 12230.3ZM3121.85 11809.3V11863H2908.14V11809.3H3121.85ZM2970.43 11710.5H3033.79V12103.6C3033.79 12121.5 3036.39 12134.9 3041.58 12143.9C3046.95 12152.6 3053.75 12158.5 3061.98 12161.6C3070.39 12164.5 3079.25 12165.9 3088.56 12165.9C3095.54 12165.9 3101.27 12165.5 3105.74 12164.8C3110.22 12163.9 3113.8 12163.2 3116.48 12162.7L3129.37 12219.6C3125.07 12221.2 3119.08 12222.8 3111.38 12224.4C3103.68 12226.2 3093.93 12227.1 3082.12 12227.1C3064.22 12227.1 3046.68 12223.2 3029.5 12215.6C3012.49 12207.9 2998.35 12196.1 2987.08 12180.4C2975.98 12164.6 2970.43 12144.8 2970.43 12120.8V11710.5ZM3380.26 12230.3C3343.03 12230.3 3310.37 12221.5 3282.27 12203.7C3254.35 12186 3232.51 12161.2 3216.76 12129.4C3201.19 12097.5 3193.4 12060.3 3193.4 12017.7C3193.4 11974.7 3201.19 11937.2 3216.76 11905.2C3232.51 11873.2 3254.35 11848.3 3282.27 11830.6C3310.37 11812.8 3343.03 11804 3380.26 11804C3417.49 11804 3450.07 11812.8 3477.99 11830.6C3506.09 11848.3 3527.92 11873.2 3543.5 11905.2C3559.25 11937.2 3567.12 11974.7 3567.12 12017.7C3567.12 12060.3 3559.25 12097.5 3543.5 12129.4C3527.92 12161.2 3506.09 12186 3477.99 12203.7C3450.07 12221.5 3417.49 12230.3 3380.26 12230.3ZM3380.26 12173.4C3408.54 12173.4 3431.81 12166.2 3450.07 12151.7C3468.32 12137.2 3481.84 12118.1 3490.61 12094.5C3499.38 12070.8 3503.76 12045.2 3503.76 12017.7C3503.76 11990.1 3499.38 11964.4 3490.61 11940.6C3481.84 11916.8 3468.32 11897.6 3450.07 11882.9C3431.81 11868.2 3408.54 11860.9 3380.26 11860.9C3351.98 11860.9 3328.71 11868.2 3310.46 11882.9C3292.2 11897.6 3278.69 11916.8 3269.92 11940.6C3261.15 11964.4 3256.76 11990.1 3256.76 12017.7C3256.76 12045.2 3261.15 12070.8 3269.92 12094.5C3278.69 12118.1 3292.2 12137.2 3310.46 12151.7C3328.71 12166.2 3351.98 12173.4 3380.26 12173.4ZM3885.07 12221.7V11671.9H4077.3C4115.6 11671.9 4147.19 11678.5 4172.07 11691.8C4196.95 11704.8 4215.47 11722.4 4227.64 11744.6C4239.81 11766.7 4245.9 11791.1 4245.9 11817.9C4245.9 11841.6 4241.69 11861.1 4233.28 11876.5C4225.05 11891.9 4214.13 11904 4200.53 11913C4187.1 11921.9 4172.52 11928.5 4156.77 11932.8V11938.2C4173.59 11939.3 4190.5 11945.2 4207.51 11955.9C4224.51 11966.7 4238.74 11982.1 4250.2 12002.1C4261.65 12022.2 4267.38 12046.7 4267.38 12075.7C4267.38 12103.2 4261.11 12128 4248.58 12150C4236.06 12172.1 4216.28 12189.5 4189.25 12202.4C4162.22 12215.3 4127.05 12221.7 4083.74 12221.7H3885.07ZM3951.65 12162.7H4083.74C4127.23 12162.7 4158.11 12154.2 4176.36 12137.4C4194.8 12120.4 4204.02 12099.8 4204.02 12075.7C4204.02 12057.1 4199.27 12039.9 4189.79 12024.1C4180.3 12008.2 4166.79 11995.5 4149.25 11986C4131.71 11976.3 4110.95 11971.5 4086.96 11971.5H3951.65V12162.7ZM3951.65 11913.5H4075.15C4095.19 11913.5 4113.27 11909.6 4129.38 11901.7C4145.67 11893.8 4158.56 11882.7 4168.04 11868.4C4177.71 11854.1 4182.54 11837.3 4182.54 11817.9C4182.54 11793.8 4174.13 11773.3 4157.3 11756.5C4140.48 11739.5 4113.81 11730.9 4077.3 11730.9H3951.65V11913.5ZM4541.09 12230.3C4501.36 12230.3 4467.08 12221.5 4438.26 12204C4409.63 12186.3 4387.52 12161.6 4371.95 12129.9C4356.56 12098 4348.86 12061 4348.86 12018.8C4348.86 11976.5 4356.56 11939.3 4371.95 11907.1C4387.52 11874.7 4409.18 11849.4 4436.92 11831.4C4464.84 11813.1 4497.42 11804 4534.65 11804C4556.13 11804 4577.34 11807.6 4598.28 11814.7C4619.22 11821.9 4638.28 11833.5 4655.46 11849.6C4672.64 11865.5 4686.34 11886.7 4696.54 11913C4706.74 11939.3 4711.84 11971.7 4711.84 12010.2V12037H4393.97V11982.2H4647.41C4647.41 11959 4642.75 11938.2 4633.45 11920C4624.32 11901.7 4611.25 11887.3 4594.25 11876.7C4577.42 11866.2 4557.56 11860.9 4534.65 11860.9C4509.41 11860.9 4487.57 11867.2 4469.14 11879.7C4450.88 11892 4436.83 11908.1 4426.99 11928C4417.14 11947.9 4412.22 11969.2 4412.22 11991.9V12028.4C4412.22 12059.6 4417.59 12086 4428.33 12107.6C4439.25 12129.1 4454.37 12145.5 4473.7 12156.8C4493.03 12167.9 4515.5 12173.4 4541.09 12173.4C4557.74 12173.4 4572.77 12171.1 4586.2 12166.4C4599.8 12161.6 4611.52 12154.4 4621.37 12144.9C4631.21 12135.3 4638.82 12123.3 4644.19 12109L4705.4 12126.1C4698.96 12146.9 4688.13 12165.2 4672.91 12180.9C4657.7 12196.5 4638.91 12208.7 4616.53 12217.4C4594.16 12226 4569.01 12230.3 4541.09 12230.3ZM4871.59 11671.9V12221.7H4808.23V11671.9H4871.59ZM5155.17 12230.3C5117.94 12230.3 5085.27 12221.5 5057.17 12203.7C5029.25 12186 5007.41 12161.2 4991.66 12129.4C4976.09 12097.5 4968.31 12060.3 4968.31 12017.7C4968.31 11974.7 4976.09 11937.2 4991.66 11905.2C5007.41 11873.2 5029.25 11848.3 5057.17 11830.6C5085.27 11812.8 5117.94 11804 5155.17 11804C5192.39 11804 5224.97 11812.8 5252.89 11830.6C5280.99 11848.3 5302.83 11873.2 5318.4 11905.2C5334.15 11937.2 5342.03 11974.7 5342.03 12017.7C5342.03 12060.3 5334.15 12097.5 5318.4 12129.4C5302.83 12161.2 5280.99 12186 5252.89 12203.7C5224.97 12221.5 5192.39 12230.3 5155.17 12230.3ZM5155.17 12173.4C5183.45 12173.4 5206.71 12166.2 5224.97 12151.7C5243.23 12137.2 5256.74 12118.1 5265.51 12094.5C5274.28 12070.8 5278.67 12045.2 5278.67 12017.7C5278.67 11990.1 5274.28 11964.4 5265.51 11940.6C5256.74 11916.8 5243.23 11897.6 5224.97 11882.9C5206.71 11868.2 5183.45 11860.9 5155.17 11860.9C5126.89 11860.9 5103.62 11868.2 5085.36 11882.9C5067.1 11897.6 5053.59 11916.8 5044.82 11940.6C5036.05 11964.4 5031.67 11990.1 5031.67 12017.7C5031.67 12045.2 5036.05 12070.8 5044.82 12094.5C5053.59 12118.1 5067.1 12137.2 5085.36 12151.7C5103.62 12166.2 5126.89 12173.4 5155.17 12173.4ZM5502.11 11973.7V12221.7H5438.75V11809.3H5499.96V11873.8H5505.33C5514.99 11852.8 5529.67 11836 5549.36 11823.3C5569.05 11810.4 5594.46 11804 5625.61 11804C5653.53 11804 5677.96 11809.7 5698.9 11821.2C5719.84 11832.4 5736.13 11849.6 5747.76 11872.7C5759.4 11895.6 5765.21 11924.6 5765.21 11959.7V12221.7H5701.85V11964C5701.85 11931.6 5693.44 11906.4 5676.62 11888.3C5659.79 11870 5636.7 11860.9 5607.35 11860.9C5587.12 11860.9 5569.05 11865.3 5553.12 11874C5537.37 11882.8 5524.93 11895.6 5515.8 11912.4C5506.67 11929.3 5502.11 11949.7 5502.11 11973.7ZM6047.45 12385C6016.84 12385 5990.53 12381 5968.52 12373.1C5946.5 12365.5 5928.16 12355.2 5913.48 12342.5C5898.98 12330 5887.44 12316.6 5878.85 12302.3L5929.32 12266.8C5935.05 12274.3 5942.3 12282.9 5951.07 12292.6C5959.84 12302.4 5971.83 12311 5987.04 12318.1C6002.44 12325.4 6022.57 12329.1 6047.45 12329.1C6080.74 12329.1 6108.22 12321.1 6129.87 12305C6151.53 12288.8 6162.36 12263.6 6162.36 12229.2V12145.5H6156.99C6152.34 12153 6145.71 12162.3 6137.12 12173.4C6128.71 12184.3 6116.54 12194.1 6100.61 12202.7C6084.86 12211.1 6063.56 12215.3 6036.71 12215.3C6003.42 12215.3 5973.53 12207.4 5947.04 12191.7C5920.73 12175.9 5899.88 12153 5884.48 12122.9C5869.27 12092.9 5861.66 12056.3 5861.66 12013.4C5861.66 11971.1 5869.09 11934.4 5883.95 11903C5898.8 11871.5 5919.48 11847.2 5945.97 11830C5972.46 11812.7 6003.06 11804 6037.79 11804C6064.63 11804 6085.93 11808.5 6101.68 11817.4C6117.61 11826.2 6129.78 11836.2 6138.2 11847.5C6146.79 11858.6 6153.41 11867.7 6158.06 11874.9H6164.51V11809.3H6225.72V12233.5C6225.72 12269 6217.67 12297.8 6201.56 12320C6185.63 12342.4 6164.15 12358.7 6137.12 12369.1C6110.27 12379.7 6080.38 12385 6047.45 12385ZM6045.3 12158.4C6070.72 12158.4 6092.2 12152.5 6109.74 12140.9C6127.28 12129.3 6140.61 12112.5 6149.74 12090.7C6158.87 12068.9 6163.43 12042.7 6163.43 12012.3C6163.43 11982.6 6158.96 11956.4 6150.01 11933.7C6141.06 11910.9 6127.81 11893.1 6110.27 11880.2C6092.73 11867.3 6071.08 11860.9 6045.3 11860.9C6018.45 11860.9 5996.08 11867.7 5978.18 11881.3C5960.46 11894.9 5947.13 11913.2 5938.18 11936.1C5929.41 11959 5925.02 11984.4 5925.02 12012.3C5925.02 12041 5929.5 12066.3 5938.45 12088.3C5947.58 12110.1 5961 12127.3 5978.72 12139.8C5996.62 12152.2 6018.81 12158.4 6045.3 12158.4ZM6436.21 12146.6L6431.91 12175.5C6428.87 12196 6424.21 12217.8 6417.95 12241.1C6411.86 12264.3 6405.51 12286.3 6398.89 12306.8C6392.26 12327.4 6386.81 12343.8 6382.51 12356H6334.18C6336.51 12344.5 6339.55 12329.4 6343.31 12310.6C6347.07 12291.8 6350.83 12270.8 6354.59 12247.5C6358.53 12224.4 6361.75 12200.8 6364.25 12176.6L6367.48 12146.6H6436.21ZM6797.38 12221.7H6727.57L6929.47 11671.9H6998.2L7200.09 12221.7H7130.29L6965.98 11758.9H6961.68L6797.38 12221.7ZM6823.15 12006.9H7104.51V12066H6823.15V12006.9ZM7498.37 12221.7V11671.9H7684.16C7727.29 11671.9 7762.55 11679.7 7789.94 11695.2C7817.5 11710.6 7837.9 11731.5 7851.15 11757.8C7864.39 11784.1 7871.02 11813.5 7871.02 11845.9C7871.02 11878.3 7864.39 11907.7 7851.15 11934.2C7838.08 11960.7 7817.86 11981.8 7790.47 11997.5C7763.09 12013.1 7728.01 12020.9 7685.23 12020.9H7552.07V11961.8H7683.08C7712.61 11961.8 7736.33 11956.7 7754.23 11946.5C7772.13 11936.3 7785.1 11922.6 7793.16 11905.2C7801.39 11887.7 7805.51 11867.9 7805.51 11845.9C7805.51 11823.8 7801.39 11804.2 7793.16 11786.8C7785.1 11769.4 7772.04 11755.8 7753.96 11746C7735.88 11736 7711.9 11730.9 7682.01 11730.9H7564.95V12221.7H7498.37ZM8033.04 11671.9V12221.7H7969.68V11671.9H8033.04ZM8270.44 12231.4C8244.31 12231.4 8220.6 12226.5 8199.3 12216.6C8178 12206.6 8161.08 12192.2 8148.55 12173.4C8136.03 12154.4 8129.76 12131.5 8129.76 12104.7C8129.76 12081 8134.41 12061.9 8143.72 12047.2C8153.03 12032.4 8165.47 12020.7 8181.04 12012.3C8196.61 12003.9 8213.79 11997.6 8232.59 11993.5C8251.56 11989.2 8270.62 11985.8 8289.77 11983.3C8314.83 11980.1 8335.15 11977.7 8350.72 11976.1C8366.47 11974.3 8377.92 11971.3 8385.08 11967.2C8392.42 11963.1 8396.09 11955.9 8396.09 11945.7V11943.6C8396.09 11917.1 8388.84 11896.5 8374.34 11881.8C8360.03 11867.2 8338.28 11859.8 8309.1 11859.8C8278.86 11859.8 8255.14 11866.4 8237.96 11879.7C8220.78 11892.9 8208.69 11907.1 8201.71 11922.1L8141.57 11900.6C8152.31 11875.6 8166.63 11856.1 8184.53 11842.1C8202.61 11828 8222.3 11818.1 8243.6 11812.6C8265.07 11806.8 8286.19 11804 8306.96 11804C8320.2 11804 8335.42 11805.6 8352.6 11808.8C8369.96 11811.9 8386.69 11818.2 8402.8 11827.9C8419.09 11837.5 8432.6 11852.1 8443.34 11871.6C8454.08 11891.1 8459.45 11917.3 8459.45 11950V12221.7H8396.09V12165.9H8392.87C8388.57 12174.8 8381.41 12184.4 8371.39 12194.6C8361.37 12204.8 8348.03 12213.5 8331.39 12220.7C8314.74 12227.8 8294.43 12231.4 8270.44 12231.4ZM8280.11 12174.5C8305.17 12174.5 8326.29 12169.6 8343.47 12159.7C8360.83 12149.9 8373.9 12137.2 8382.67 12121.6C8391.62 12106 8396.09 12089.6 8396.09 12072.5V12014.5C8393.41 12017.7 8387.5 12020.6 8378.37 12023.3C8369.42 12025.8 8359.04 12028.1 8347.23 12030C8335.59 12031.8 8324.23 12033.4 8313.13 12034.9C8302.21 12036.1 8293.35 12037.2 8286.55 12038.1C8270.09 12040.2 8254.69 12043.7 8240.37 12048.6C8226.23 12053.2 8214.78 12060.3 8206.01 12069.8C8197.42 12079.1 8193.12 12091.8 8193.12 12107.9C8193.12 12129.9 8201.27 12146.6 8217.55 12157.8C8234.02 12168.9 8254.87 12174.5 8280.11 12174.5ZM8742.63 12230.3C8703.97 12230.3 8670.68 12221.2 8642.75 12202.9C8614.83 12184.7 8593.36 12159.5 8578.32 12127.5C8563.29 12095.5 8555.77 12058.9 8555.77 12017.7C8555.77 11975.8 8563.46 11938.8 8578.86 11906.8C8594.43 11874.6 8616.09 11849.4 8643.83 11831.4C8671.75 11813.1 8704.33 11804 8741.55 11804C8770.55 11804 8796.68 11809.3 8819.95 11820.1C8843.22 11830.8 8862.28 11845.9 8877.14 11865.2C8891.99 11884.5 8901.21 11907.1 8904.79 11932.8H8841.43C8836.6 11914.1 8825.86 11897.4 8809.21 11882.9C8792.74 11868.2 8770.55 11860.9 8742.63 11860.9C8717.93 11860.9 8696.27 11867.3 8677.66 11880.2C8659.22 11892.9 8644.81 11910.9 8634.43 11934.2C8624.23 11957.3 8619.13 11984.4 8619.13 12015.5C8619.13 12047.4 8624.14 12075.1 8634.16 12098.8C8644.37 12122.4 8658.68 12140.7 8677.12 12153.8C8695.73 12166.9 8717.57 12173.4 8742.63 12173.4C8759.1 12173.4 8774.04 12170.5 8787.46 12164.8C8800.89 12159.1 8812.25 12150.8 8821.56 12140.1C8830.87 12129.4 8837.49 12116.5 8841.43 12101.4H8904.79C8901.21 12125.8 8892.35 12147.7 8878.21 12167.2C8864.25 12186.6 8845.72 12201.9 8822.63 12213.4C8799.72 12224.7 8773.06 12230.3 8742.63 12230.3ZM9170.31 12230.3C9130.58 12230.3 9096.3 12221.5 9067.49 12204C9038.85 12186.3 9016.74 12161.6 9001.17 12129.9C8985.78 12098 8978.08 12061 8978.08 12018.8C8978.08 11976.5 8985.78 11939.3 9001.17 11907.1C9016.74 11874.7 9038.4 11849.4 9066.14 11831.4C9094.06 11813.1 9126.64 11804 9163.87 11804C9185.35 11804 9206.56 11807.6 9227.5 11814.7C9248.44 11821.9 9267.5 11833.5 9284.68 11849.6C9301.87 11865.5 9315.56 11886.7 9325.76 11913C9335.96 11939.3 9341.06 11971.7 9341.06 12010.2V12037H9023.19V11982.2H9276.63C9276.63 11959 9271.98 11938.2 9262.67 11920C9253.54 11901.7 9240.47 11887.3 9223.47 11876.7C9206.65 11866.2 9186.78 11860.9 9163.87 11860.9C9138.63 11860.9 9116.8 11867.2 9098.36 11879.7C9080.1 11892 9066.05 11908.1 9056.21 11928C9046.37 11947.9 9041.44 11969.2 9041.44 11991.9V12028.4C9041.44 12059.6 9046.81 12086 9057.55 12107.6C9068.47 12129.1 9083.59 12145.5 9102.92 12156.8C9122.26 12167.9 9144.72 12173.4 9170.31 12173.4C9186.96 12173.4 9201.99 12171.1 9215.42 12166.4C9229.02 12161.6 9240.74 12154.4 9250.59 12144.9C9260.43 12135.3 9268.04 12123.3 9273.41 12109L9334.62 12126.1C9328.18 12146.9 9317.35 12165.2 9302.13 12180.9C9286.92 12196.5 9268.13 12208.7 9245.75 12217.4C9223.38 12226 9198.23 12230.3 9170.31 12230.3ZM9829.43 11809.3V11863H9615.72V11809.3H9829.43ZM9678 11710.5H9741.37V12103.6C9741.37 12121.5 9743.96 12134.9 9749.15 12143.9C9754.52 12152.6 9761.32 12158.5 9769.56 12161.6C9777.97 12164.5 9786.83 12165.9 9796.13 12165.9C9803.12 12165.9 9808.84 12165.5 9813.32 12164.8C9817.79 12163.9 9821.37 12163.2 9824.06 12162.7L9836.94 12219.6C9832.65 12221.2 9826.65 12222.8 9818.96 12224.4C9811.26 12226.2 9801.5 12227.1 9789.69 12227.1C9771.79 12227.1 9754.25 12223.2 9737.07 12215.6C9720.07 12207.9 9705.93 12196.1 9694.65 12180.4C9683.55 12164.6 9678 12144.8 9678 12120.8V11710.5ZM10087.8 12230.3C10050.6 12230.3 10017.9 12221.5 9989.84 12203.7C9961.92 12186 9940.08 12161.2 9924.33 12129.4C9908.76 12097.5 9900.98 12060.3 9900.98 12017.7C9900.98 11974.7 9908.76 11937.2 9924.33 11905.2C9940.08 11873.2 9961.92 11848.3 9989.84 11830.6C10017.9 11812.8 10050.6 11804 10087.8 11804C10125.1 11804 10157.6 11812.8 10185.6 11830.6C10213.7 11848.3 10235.5 11873.2 10251.1 11905.2C10266.8 11937.2 10274.7 11974.7 10274.7 12017.7C10274.7 12060.3 10266.8 12097.5 10251.1 12129.4C10235.5 12161.2 10213.7 12186 10185.6 12203.7C10157.6 12221.5 10125.1 12230.3 10087.8 12230.3ZM10087.8 12173.4C10116.1 12173.4 10139.4 12166.2 10157.6 12151.7C10175.9 12137.2 10189.4 12118.1 10198.2 12094.5C10207 12070.8 10211.3 12045.2 10211.3 12017.7C10211.3 11990.1 10207 11964.4 10198.2 11940.6C10189.4 11916.8 10175.9 11897.6 10157.6 11882.9C10139.4 11868.2 10116.1 11860.9 10087.8 11860.9C10059.6 11860.9 10036.3 11868.2 10018 11882.9C9999.77 11897.6 9986.26 11916.8 9977.49 11940.6C9968.72 11964.4 9964.34 11990.1 9964.34 12017.7C9964.34 12045.2 9968.72 12070.8 9977.49 12094.5C9986.26 12118.1 9999.77 12137.2 10018 12151.7C10036.3 12166.2 10059.6 12173.4 10087.8 12173.4ZM10562.6 11730.9V11671.9H10975V11730.9H10802.1V12221.7H10735.5V11730.9H10562.6ZM11132.5 11973.7V12221.7H11069.1V11671.9H11132.5V11873.8H11137.9C11147.5 11852.5 11162 11835.6 11181.3 11823C11200.9 11810.3 11226.8 11804 11259.2 11804C11287.3 11804 11311.9 11809.6 11333 11820.9C11354.2 11832 11370.5 11849.1 11382.2 11872.2C11394 11895.1 11399.9 11924.3 11399.9 11959.7V12221.7H11336.5V11964C11336.5 11931.2 11328 11905.9 11311 11888C11294.2 11869.9 11270.8 11860.9 11240.9 11860.9C11220.2 11860.9 11201.6 11865.3 11185.1 11874C11168.8 11882.8 11155.9 11895.6 11146.4 11912.4C11137.1 11929.3 11132.5 11949.7 11132.5 11973.7ZM11515.8 12221.7V11809.3H11577V11871.6H11581.3C11588.8 11851.2 11602.4 11834.7 11622.1 11822C11641.8 11809.3 11664 11802.9 11688.7 11802.9C11693.4 11802.9 11699.2 11803 11706.2 11803.2C11713.1 11803.3 11718.4 11803.6 11722 11804V11868.4C11719.8 11867.9 11714.9 11867.1 11707.2 11866C11699.7 11864.7 11691.7 11864.1 11683.3 11864.1C11663.3 11864.1 11645.4 11868.3 11629.6 11876.7C11614.1 11885 11601.7 11896.4 11592.6 11911.1C11583.6 11925.6 11579.2 11942.2 11579.2 11960.8V12221.7H11515.8ZM11797.1 12221.7V11809.3H11860.5V12221.7H11797.1ZM11829.3 11740.6C11817 11740.6 11806.3 11736.4 11797.4 11728C11788.6 11719.6 11784.2 11709.5 11784.2 11697.7C11784.2 11685.8 11788.6 11675.7 11797.4 11667.3C11806.3 11658.9 11817 11654.7 11829.3 11654.7C11841.7 11654.7 11852.2 11658.9 11861 11667.3C11869.9 11675.7 11874.4 11685.8 11874.4 11697.7C11874.4 11709.5 11869.9 11719.6 11861 11728C11852.2 11736.4 11841.7 11740.6 11829.3 11740.6ZM12313.7 11809.3L12161.2 12221.7H12096.8L11944.3 11809.3H12013L12126.9 12138H12131.1L12245 11809.3H12313.7ZM12555.5 12230.3C12515.7 12230.3 12481.5 12221.5 12452.7 12204C12424 12186.3 12401.9 12161.6 12386.3 12129.9C12370.9 12098 12363.2 12061 12363.2 12018.8C12363.2 11976.5 12370.9 11939.3 12386.3 11907.1C12401.9 11874.7 12423.6 11849.4 12451.3 11831.4C12479.2 11813.1 12511.8 11804 12549 11804C12570.5 11804 12591.7 11807.6 12612.7 11814.7C12633.6 11821.9 12652.7 11833.5 12669.8 11849.6C12687 11865.5 12700.7 11886.7 12710.9 11913C12721.1 11939.3 12726.2 11971.7 12726.2 12010.2V12037H12408.4V11982.2H12661.8C12661.8 11959 12657.1 11938.2 12647.8 11920C12638.7 11901.7 12625.6 11887.3 12608.6 11876.7C12591.8 11866.2 12571.9 11860.9 12549 11860.9C12523.8 11860.9 12502 11867.2 12483.5 11879.7C12465.3 11892 12451.2 11908.1 12441.4 11928C12431.5 11947.9 12426.6 11969.2 12426.6 11991.9V12028.4C12426.6 12059.6 12432 12086 12442.7 12107.6C12453.6 12129.1 12468.8 12145.5 12488.1 12156.8C12507.4 12167.9 12529.9 12173.4 12555.5 12173.4C12572.1 12173.4 12587.2 12171.1 12600.6 12166.4C12614.2 12161.6 12625.9 12154.4 12635.8 12144.9C12645.6 12135.3 12653.2 12123.3 12658.6 12109L12719.8 12126.1C12713.3 12146.9 12702.5 12165.2 12687.3 12180.9C12672.1 12196.5 12653.3 12208.7 12630.9 12217.4C12608.5 12226 12583.4 12230.3 12555.5 12230.3Z" fill="white"/>
<rect x="6234.99" y="1516.66" width="312.354" height="312.354" rx="22.8551" fill="#54B872"/>
<rect x="6234.99" y="1882.39" width="312.354" height="312.354" rx="22.8551" fill="#54B872"/>
<rect x="6600.67" y="1516.66" width="312.354" height="312.354" rx="22.8551" fill="#54B872"/>
<rect x="6600.67" y="1882.39" width="312.354" height="312.354" rx="22.8551" fill="#54B872"/>
<defs>
<linearGradient id="paint0_linear_347_23" x1="6995.81" y1="3827.49" x2="6827.19" y2="5897.68" gradientUnits="userSpaceOnUse">
<stop stop-color="#54B872"/>
<stop offset="1" stop-color="#5DB134"/>
</linearGradient>
</defs>
</svg>
