<svg width="241" height="56" viewBox="0 0 24095 5599" fill="none" xmlns="http://www.w3.org/2000/svg">
<path d="M8374 2694C8374 2785 8335 2860 8257 2921C8181 2981 8082 3012 7959 3012C7836 3012 7738 2984 7667 2927C7596 2871 7560 2789 7560 2681V1184C7560 1076 7597 991 7670 931C7744 870 7842 840 7965 840C8091 840 8190 868 8263 924C8337 978 8374 1050 8374 1138V1540C8374 1579 8345 1606 8289 1621C8259 1630 8229 1634 8199 1634C8168 1634 8138 1631 8108 1625C8114 1573 8118 1518 8118 1459V1184C8118 1143 8103 1111 8075 1090C8047 1066 8011 1054 7965 1054C7920 1054 7883 1066 7855 1090C7829 1111 7816 1143 7816 1184V2668C7816 2707 7829 2738 7855 2762C7883 2786 7920 2798 7965 2798C8011 2798 8047 2787 8075 2765C8103 2742 8118 2709 8118 2668V2597L8108 2431C8138 2425 8168 2422 8199 2422C8229 2422 8259 2426 8289 2435C8345 2450 8374 2477 8374 2516V2694ZM8563 2681V1702C8563 1594 8597 1510 8664 1449C8731 1389 8822 1359 8936 1359C9051 1359 9139 1387 9202 1443C9267 1499 9299 1581 9299 1689V2668C9299 2776 9264 2860 9195 2921C9128 2981 9038 3012 8923 3012C8809 3012 8720 2984 8657 2927C8595 2871 8563 2789 8563 2681ZM8806 1689V2681C8806 2718 8818 2749 8842 2775C8866 2799 8895 2811 8930 2811C8966 2811 8997 2799 9020 2775C9044 2749 9056 2718 9056 2681V1689C9056 1653 9044 1622 9020 1599C8997 1573 8966 1560 8930 1560C8895 1560 8866 1573 8842 1599C8818 1622 8806 1653 8806 1689ZM9523 970C9523 920 9513 854 9494 772C9558 738 9627 720 9701 720C9744 720 9766 736 9766 769V2710C9766 2756 9773 2788 9788 2807C9806 2827 9837 2837 9882 2837C9885 2893 9869 2936 9837 2966C9807 2996 9761 3012 9701 3012C9640 3012 9595 2993 9565 2957C9537 2920 9523 2859 9523 2775V970ZM10531 1657C10531 1575 10524 1486 10509 1391C10574 1383 10644 1378 10719 1378C10756 1378 10775 1394 10775 1427V2710C10775 2756 10782 2788 10797 2807C10815 2827 10846 2837 10891 2837C10893 2893 10878 2936 10846 2966C10816 2996 10771 3012 10713 3012C10627 3012 10571 2978 10548 2911C10481 2978 10405 3012 10321 3012C10237 3012 10168 2984 10117 2927C10065 2869 10039 2787 10039 2681V1660C10039 1615 10030 1582 10013 1563C9998 1543 9968 1534 9922 1534C9920 1480 9935 1438 9968 1407C10002 1375 10050 1359 10110 1359C10171 1359 10214 1376 10240 1411C10268 1445 10282 1502 10282 1582V2678C10282 2753 10313 2791 10376 2791C10408 2791 10439 2779 10467 2756C10497 2730 10519 2703 10531 2675V1657ZM11301 2713C11301 2819 11309 2908 11324 2979C11259 2988 11189 2992 11113 2992C11077 2992 11058 2976 11058 2944V1660C11058 1615 11050 1582 11032 1563C11017 1543 10987 1534 10942 1534C10939 1478 10953 1434 10984 1404C11016 1374 11067 1359 11136 1359C11207 1359 11257 1392 11285 1459C11352 1392 11432 1359 11525 1359C11620 1359 11691 1401 11739 1485C11812 1401 11893 1359 11982 1359C12073 1359 12142 1386 12189 1440C12237 1494 12261 1570 12261 1670V2710C12261 2756 12268 2788 12283 2807C12301 2827 12332 2837 12377 2837C12379 2893 12364 2936 12332 2966C12302 2996 12256 3012 12196 3012C12135 3012 12090 2993 12060 2957C12032 2920 12018 2859 12018 2775V1689C12018 1618 11984 1582 11917 1582C11859 1582 11813 1616 11781 1683V2713C11781 2819 11789 2908 11804 2979C11739 2988 11669 2992 11593 2992C11556 2992 11538 2976 11538 2944V1689C11538 1618 11504 1582 11437 1582C11379 1582 11334 1616 11301 1683V2713ZM12510 970C12510 905 12501 839 12481 772C12546 738 12615 720 12689 720C12732 720 12753 736 12753 769V1443C12820 1387 12890 1359 12961 1359C13151 1359 13246 1469 13246 1689V2636C13246 2744 13213 2828 13146 2888C13079 2949 12988 2979 12873 2979H12510V970ZM12753 2772H12880C12917 2772 12946 2761 12967 2739C12991 2716 13003 2685 13003 2649V1693C13003 1619 12971 1582 12906 1582C12841 1582 12790 1616 12753 1683V2772ZM13612 1096C13519 1096 13473 1035 13473 911C13473 788 13519 727 13612 727C13705 727 13751 788 13751 911C13751 1035 13705 1096 13612 1096ZM13411 1391H13735V2710C13735 2756 13743 2788 13758 2807C13775 2827 13807 2837 13852 2837C13854 2893 13839 2936 13807 2966C13776 2996 13731 3012 13670 3012C13610 3012 13565 2993 13534 2957C13506 2920 13492 2859 13492 2775V1586L13392 1602C13377 1546 13369 1497 13369 1456C13369 1413 13383 1391 13411 1391ZM14309 2386C14238 2434 14202 2514 14202 2626C14202 2736 14236 2791 14303 2791C14372 2791 14426 2752 14465 2675V2282L14309 2386ZM14345 1359C14587 1359 14708 1466 14708 1680V2710C14708 2756 14715 2788 14730 2807C14748 2827 14779 2837 14824 2837C14827 2893 14811 2936 14779 2966C14749 2996 14705 3012 14646 3012C14555 3012 14500 2978 14481 2911C14414 2978 14335 3012 14244 3012C14154 3012 14081 2977 14027 2908C13973 2839 13946 2746 13946 2629C13946 2452 14021 2318 14170 2227L14465 2052V1702C14465 1612 14421 1566 14335 1566C14251 1566 14209 1617 14209 1718V1825L14218 1978C14190 1984 14161 1987 14131 1987C14103 1987 14076 1983 14050 1975C13998 1962 13972 1937 13972 1900V1634C13972 1548 14006 1481 14073 1433C14142 1384 14232 1359 14345 1359ZM16147 2694C16147 2785 16108 2860 16030 2921C15954 2981 15855 3012 15732 3012C15609 3012 15512 2984 15440 2927C15369 2871 15333 2789 15333 2681V1184C15333 1076 15370 991 15444 931C15517 870 15615 840 15738 840C15864 840 15963 868 16037 924C16110 978 16147 1050 16147 1138V1540C16147 1579 16119 1606 16063 1621C16032 1630 16002 1634 15972 1634C15942 1634 15911 1631 15881 1625C15888 1573 15891 1518 15891 1459V1184C15891 1143 15877 1111 15849 1090C15821 1066 15784 1054 15738 1054C15693 1054 15656 1066 15628 1090C15602 1111 15589 1143 15589 1184V2668C15589 2707 15602 2738 15628 2762C15656 2786 15693 2798 15738 2798C15784 2798 15821 2787 15849 2765C15877 2742 15891 2709 15891 2668V2597L15881 2431C15911 2425 15942 2422 15972 2422C16002 2422 16032 2426 16063 2435C16119 2450 16147 2477 16147 2516V2694ZM16664 2386C16593 2434 16557 2514 16557 2626C16557 2736 16590 2791 16657 2791C16727 2791 16781 2752 16819 2675V2282L16664 2386ZM16700 1359C16942 1359 17063 1466 17063 1680V2710C17063 2756 17070 2788 17085 2807C17102 2827 17134 2837 17179 2837C17181 2893 17166 2936 17134 2966C17104 2996 17059 3012 17001 3012C16910 3012 16855 2978 16836 2911C16769 2978 16690 3012 16599 3012C16508 3012 16436 2977 16382 2908C16328 2839 16301 2746 16301 2629C16301 2452 16375 2318 16525 2227L16819 2052V1702C16819 1612 16776 1566 16690 1566C16606 1566 16563 1617 16563 1718V1825L16573 1978C16545 1984 16516 1987 16486 1987C16458 1987 16431 1983 16405 1975C16353 1962 16327 1937 16327 1900V1634C16327 1548 16360 1481 16427 1433C16496 1384 16587 1359 16700 1359ZM17577 2713C17577 2817 17585 2904 17600 2973C17535 2986 17465 2992 17390 2992C17353 2992 17334 2976 17334 2944V1660C17334 1615 17326 1582 17308 1563C17293 1543 17263 1534 17218 1534C17216 1478 17230 1434 17260 1404C17292 1374 17338 1359 17396 1359C17482 1359 17536 1402 17558 1488C17612 1402 17689 1359 17788 1359C17965 1359 18054 1444 18054 1615V1939C18054 1976 18028 2000 17976 2013C17950 2022 17922 2026 17892 2026C17864 2026 17836 2023 17808 2017C17814 1969 17817 1918 17817 1864V1699C17817 1628 17785 1592 17720 1592C17690 1592 17662 1606 17636 1634C17610 1662 17590 1694 17577 1728V2713ZM18703 1706C18703 1662 18690 1629 18664 1605C18638 1579 18606 1566 18567 1566C18487 1566 18447 1600 18447 1667V2130L18602 2013C18669 1964 18703 1861 18703 1706ZM18204 2691V1676C18204 1465 18328 1359 18577 1359C18827 1359 18953 1478 18953 1715C18953 1810 18935 1898 18901 1978C18866 2058 18819 2118 18758 2159L18447 2373V2668C18447 2759 18489 2804 18573 2804C18660 2804 18703 2753 18703 2652V2577L18693 2425C18721 2419 18749 2415 18778 2415C18808 2415 18836 2420 18862 2428C18914 2441 18940 2466 18940 2503V2736C18940 2823 18905 2891 18836 2940C18769 2988 18679 3012 18567 3012C18325 3012 18204 2905 18204 2691ZM19553 2940V1151C19553 1106 19543 1075 19524 1057C19507 1038 19475 1028 19430 1028C19430 905 19499 843 19637 843C19752 843 19809 918 19809 1067V1913H20110V1177L20097 873C20171 862 20243 856 20315 856C20349 856 20366 875 20366 911V2704C20366 2749 20375 2782 20392 2801C20412 2818 20444 2827 20490 2827C20490 2950 20420 3012 20282 3012C20168 3012 20110 2937 20110 2788V2127H19809V2675L19822 2979C19749 2990 19676 2995 19605 2995C19570 2995 19553 2977 19553 2940ZM20609 2681V1702C20609 1594 20643 1510 20710 1449C20777 1389 20867 1359 20982 1359C21096 1359 21185 1387 21248 1443C21313 1499 21345 1581 21345 1689V2668C21345 2776 21310 2860 21241 2921C21174 2981 21083 3012 20969 3012C20854 3012 20766 2984 20703 2927C20641 2871 20609 2789 20609 2681ZM20852 1689V2681C20852 2718 20864 2749 20888 2775C20912 2799 20941 2811 20975 2811C21012 2811 21042 2799 21066 2775C21090 2749 21102 2718 21102 2681V1689C21102 1653 21090 1622 21066 1599C21042 1573 21012 1560 20975 1560C20941 1560 20912 1573 20888 1599C20864 1622 20852 1653 20852 1689ZM21834 2713C21834 2819 21842 2908 21857 2979C21792 2988 21722 2992 21646 2992C21610 2992 21591 2976 21591 2944V1660C21591 1615 21583 1582 21565 1563C21550 1543 21520 1534 21475 1534C21472 1478 21487 1434 21517 1404C21549 1374 21600 1359 21669 1359C21740 1359 21790 1392 21818 1459C21885 1392 21965 1359 22058 1359C22153 1359 22224 1401 22272 1485C22345 1401 22426 1359 22515 1359C22606 1359 22675 1386 22722 1440C22770 1494 22794 1570 22794 1670V2710C22794 2756 22801 2788 22816 2807C22834 2827 22865 2837 22910 2837C22913 2893 22897 2936 22865 2966C22835 2996 22789 3012 22729 3012C22668 3012 22623 2993 22593 2957C22565 2920 22551 2859 22551 2775V1689C22551 1618 22517 1582 22450 1582C22392 1582 22346 1616 22314 1683V2713C22314 2819 22322 2908 22337 2979C22272 2988 22202 2992 22126 2992C22089 2992 22071 2976 22071 2944V1689C22071 1618 22037 1582 21970 1582C21912 1582 21867 1616 21834 1683V2713ZM23530 1706C23530 1662 23517 1629 23491 1605C23465 1579 23432 1566 23393 1566C23313 1566 23274 1600 23274 1667V2130L23429 2013C23496 1964 23530 1861 23530 1706ZM23030 2691V1676C23030 1465 23155 1359 23403 1359C23654 1359 23779 1478 23779 1715C23779 1810 23762 1898 23727 1978C23693 2058 23645 2118 23585 2159L23274 2373V2668C23274 2759 23316 2804 23400 2804C23486 2804 23530 2753 23530 2652V2577L23520 2425C23548 2419 23576 2415 23604 2415C23634 2415 23662 2420 23688 2428C23740 2441 23766 2466 23766 2503V2736C23766 2823 23732 2891 23662 2940C23595 2988 23506 3012 23393 3012C23151 3012 23030 2905 23030 2691Z" fill="#225431"/>
<rect x="7453" y="3656.78" width="16402.4" height="76.5574" fill="#225431"/>
<path d="M7484 5122H7392L7657 4401H7747L8011 5122H7920L7705 4515H7699L7484 5122ZM7517 4840H7886V4918H7517V4840ZM8402 5122V4401H8646C8702 4401 8748 4412 8784 4432C8821 4452 8847 4479 8865 4514C8882 4548 8891 4587 8891 4629C8891 4672 8882 4710 8865 4745C8847 4780 8821 4807 8785 4828C8749 4849 8703 4859 8647 4859H8473V4781H8644C8683 4781 8714 4775 8738 4761C8761 4748 8778 4730 8789 4707C8799 4684 8805 4658 8805 4629C8805 4600 8799 4575 8789 4552C8778 4529 8761 4511 8737 4498C8714 4485 8682 4479 8643 4479H8490V5122H8402ZM9103 4401V5122H9020V4401H9103ZM9414 5135C9380 5135 9349 5128 9321 5115C9293 5102 9271 5083 9254 5059C9238 5034 9230 5004 9230 4969C9230 4938 9236 4912 9248 4893C9260 4874 9277 4859 9297 4847C9317 4836 9340 4828 9365 4823C9389 4817 9414 4813 9439 4809C9472 4805 9499 4802 9519 4800C9540 4798 9555 4794 9564 4788C9574 4783 9579 4774 9579 4760V4757C9579 4723 9569 4696 9550 4676C9532 4657 9503 4648 9465 4648C9425 4648 9394 4656 9372 4674C9349 4691 9333 4710 9324 4729L9245 4701C9259 4668 9278 4643 9302 4624C9325 4606 9351 4593 9379 4586C9407 4578 9435 4574 9462 4574C9479 4574 9499 4577 9522 4581C9545 4585 9566 4593 9588 4606C9609 4618 9627 4638 9641 4663C9655 4689 9662 4723 9662 4766V5122H9579V5049H9575C9569 5060 9560 5073 9546 5086C9533 5100 9516 5111 9494 5121C9472 5130 9446 5135 9414 5135ZM9427 5060C9460 5060 9487 5054 9510 5041C9533 5028 9550 5011 9561 4991C9573 4970 9579 4949 9579 4926V4850C9575 4855 9568 4858 9556 4862C9544 4865 9530 4868 9515 4871C9499 4873 9485 4875 9470 4877C9456 4879 9444 4880 9435 4881C9414 4884 9393 4889 9375 4895C9356 4901 9341 4910 9330 4923C9318 4935 9313 4952 9313 4973C9313 5002 9323 5023 9345 5038C9366 5053 9394 5060 9427 5060ZM10033 5133C9982 5133 9939 5121 9902 5097C9865 5073 9837 5040 9818 4998C9798 4956 9788 4908 9788 4855C9788 4800 9798 4751 9818 4709C9839 4667 9867 4634 9903 4610C9940 4586 9983 4574 10032 4574C10070 4574 10104 4581 10134 4596C10165 4610 10190 4629 10209 4655C10229 4680 10241 4710 10245 4743H10162C10156 4719 10142 4697 10120 4678C10099 4659 10070 4649 10033 4649C10001 4649 9972 4657 9948 4674C9924 4691 9905 4715 9891 4745C9878 4775 9871 4811 9871 4852C9871 4893 9878 4930 9891 4961C9904 4992 9923 5016 9947 5033C9971 5050 10000 5059 10033 5059C10055 5059 10074 5055 10092 5047C10109 5040 10124 5029 10136 5015C10149 5001 10157 4984 10162 4964H10245C10241 4996 10229 5025 10211 5051C10192 5076 10168 5096 10138 5111C10108 5126 10073 5133 10033 5133ZM10593 5133C10541 5133 10496 5122 10459 5099C10421 5075 10392 5043 10372 5002C10352 4960 10342 4911 10342 4856C10342 4801 10352 4752 10372 4710C10392 4667 10421 4634 10457 4610C10494 4586 10536 4574 10585 4574C10613 4574 10641 4579 10668 4589C10696 4598 10721 4613 10743 4634C10766 4655 10784 4683 10797 4717C10811 4752 10817 4794 10817 4845V4880H10401V4808H10733C10733 4778 10727 4750 10715 4726C10703 4703 10685 4684 10663 4670C10641 4656 10615 4649 10585 4649C10552 4649 10523 4657 10499 4674C10475 4690 10457 4711 10444 4737C10431 4763 10425 4791 10425 4821V4869C10425 4909 10432 4944 10446 4972C10460 5001 10480 5022 10505 5037C10530 5051 10560 5059 10593 5059C10615 5059 10635 5056 10653 5049C10670 5043 10686 5034 10699 5021C10712 5009 10722 4993 10729 4974L10809 4997C10800 5024 10786 5048 10766 5068C10746 5089 10722 5105 10692 5116C10663 5128 10630 5133 10593 5133ZM11457 4581V4652H11177V4581H11457ZM11259 4452H11342V4967C11342 4991 11345 5008 11352 5020C11359 5031 11368 5039 11379 5043C11390 5047 11401 5049 11414 5049C11423 5049 11430 5048 11436 5047C11442 5046 11447 5045 11450 5045L11467 5119C11461 5121 11454 5123 11444 5125C11433 5128 11421 5129 11405 5129C11382 5129 11359 5124 11336 5114C11314 5104 11295 5088 11281 5068C11266 5047 11259 5021 11259 4990V4452ZM11796 5133C11747 5133 11704 5122 11667 5098C11631 5075 11602 5043 11582 5001C11561 4959 11551 4910 11551 4855C11551 4798 11561 4749 11582 4707C11602 4665 11631 4633 11667 4609C11704 4586 11747 4574 11796 4574C11845 4574 11887 4586 11924 4609C11961 4633 11989 4665 12010 4707C12030 4749 12041 4798 12041 4855C12041 4910 12030 4959 12010 5001C11989 5043 11961 5075 11924 5098C11887 5122 11845 5133 11796 5133ZM11796 5059C11833 5059 11863 5049 11887 5030C11911 5011 11929 4986 11941 4955C11952 4924 11958 4891 11958 4855C11958 4818 11952 4785 11941 4754C11929 4722 11911 4697 11887 4678C11863 4659 11833 4649 11796 4649C11759 4649 11728 4659 11704 4678C11681 4697 11663 4722 11651 4754C11640 4785 11634 4818 11634 4855C11634 4891 11640 4924 11651 4955C11663 4986 11681 5011 11704 5030C11728 5049 11759 5059 11796 5059ZM12457 5122V4401H12709C12760 4401 12801 4410 12834 4427C12866 4445 12890 4468 12906 4497C12922 4526 12930 4558 12930 4593C12930 4624 12925 4649 12914 4669C12903 4690 12889 4706 12871 4717C12853 4729 12834 4738 12814 4743V4750C12836 4752 12858 4760 12880 4774C12902 4788 12921 4808 12936 4834C12951 4860 12959 4893 12959 4931C12959 4967 12950 4999 12934 5028C12917 5057 12892 5080 12856 5097C12821 5113 12775 5122 12718 5122H12457ZM12545 5045H12718C12775 5045 12815 5034 12839 5011C12863 4989 12875 4962 12875 4931C12875 4906 12869 4884 12857 4863C12844 4842 12827 4825 12804 4813C12781 4800 12754 4794 12722 4794H12545V5045ZM12545 4718H12707C12733 4718 12757 4713 12778 4703C12799 4692 12816 4678 12828 4659C12841 4640 12847 4618 12847 4593C12847 4561 12836 4534 12814 4512C12792 4490 12757 4479 12709 4479H12545V4718ZM13317 5133C13265 5133 13220 5122 13182 5099C13145 5075 13116 5043 13096 5002C13075 4960 13065 4911 13065 4856C13065 4801 13075 4752 13096 4710C13116 4667 13144 4634 13181 4610C13217 4586 13260 4574 13309 4574C13337 4574 13365 4579 13392 4589C13420 4598 13445 4613 13467 4634C13490 4655 13508 4683 13521 4717C13534 4752 13541 4794 13541 4845V4880H13124V4808H13457C13457 4778 13450 4750 13438 4726C13426 4703 13409 4684 13387 4670C13365 4656 13339 4649 13309 4649C13276 4649 13247 4657 13223 4674C13199 4690 13181 4711 13168 4737C13155 4763 13148 4791 13148 4821V4869C13148 4909 13155 4944 13169 4972C13184 5001 13204 5022 13229 5037C13254 5051 13284 5059 13317 5059C13339 5059 13359 5056 13376 5049C13394 5043 13410 5034 13422 5021C13435 5009 13445 4993 13452 4974L13533 4997C13524 5024 13510 5048 13490 5068C13470 5089 13445 5105 13416 5116C13387 5128 13354 5133 13317 5133ZM13750 4401V5122H13667V4401H13750ZM14122 5133C14073 5133 14030 5122 13994 5098C13957 5075 13928 5043 13908 5001C13887 4959 13877 4910 13877 4855C13877 4798 13887 4749 13908 4707C13928 4665 13957 4633 13994 4609C14030 4586 14073 4574 14122 4574C14171 4574 14213 4586 14250 4609C14287 4633 14316 4665 14336 4707C14357 4749 14367 4798 14367 4855C14367 4910 14357 4959 14336 5001C14316 5043 14287 5075 14250 5098C14213 5122 14171 5133 14122 5133ZM14122 5059C14159 5059 14190 5049 14213 5030C14237 5011 14255 4986 14267 4955C14278 4924 14284 4891 14284 4855C14284 4818 14278 4785 14267 4754C14255 4722 14237 4697 14213 4678C14190 4659 14159 4649 14122 4649C14085 4649 14054 4659 14031 4678C14007 4697 13989 4722 13977 4754C13966 4785 13960 4818 13960 4855C13960 4891 13966 4924 13977 4955C13989 4986 14007 5011 14031 5030C14054 5049 14085 5059 14122 5059ZM14577 4797V5122H14494V4581H14574V4666H14581C14594 4638 14613 4616 14639 4600C14664 4583 14698 4574 14739 4574C14775 4574 14807 4582 14835 4597C14862 4612 14883 4634 14899 4665C14914 4695 14921 4733 14921 4779V5122H14838V4784C14838 4742 14827 4709 14805 4685C14783 4661 14753 4649 14715 4649C14688 4649 14664 4655 14644 4666C14623 4678 14607 4695 14595 4717C14583 4739 14577 4765 14577 4797ZM15291 5336C15251 5336 15217 5331 15188 5320C15159 5310 15135 5297 15116 5280C15097 5264 15082 5246 15070 5227L15137 5181C15144 5191 15154 5202 15165 5215C15177 5228 15192 5239 15212 5248C15232 5258 15259 5263 15291 5263C15335 5263 15371 5252 15399 5231C15428 5210 15442 5177 15442 5132V5022H15435C15429 5032 15420 5044 15409 5059C15398 5073 15382 5086 15361 5097C15340 5108 15312 5113 15277 5113C15234 5113 15194 5103 15160 5083C15125 5062 15098 5032 15078 4992C15058 4953 15048 4905 15048 4849C15048 4794 15058 4745 15077 4704C15097 4663 15124 4631 15158 4609C15193 4586 15233 4574 15279 4574C15314 4574 15342 4580 15362 4592C15383 4604 15399 4617 15410 4631C15422 4646 15430 4658 15436 4667H15445V4581H15525V5137C15525 5184 15514 5222 15493 5251C15472 5280 15444 5301 15409 5315C15374 5329 15335 5336 15291 5336ZM15289 5039C15322 5039 15350 5031 15373 5016C15396 5001 15413 4979 15425 4950C15437 4922 15443 4887 15443 4847C15443 4809 15438 4774 15426 4744C15414 4715 15397 4691 15374 4674C15351 4657 15322 4649 15289 4649C15253 4649 15224 4658 15201 4676C15177 4694 15160 4718 15148 4748C15137 4778 15131 4811 15131 4847C15131 4885 15137 4918 15149 4947C15160 4976 15178 4998 15201 5015C15225 5031 15254 5039 15289 5039ZM15801 5023L15795 5061C15791 5088 15785 5117 15777 5147C15769 5178 15761 5206 15752 5233C15743 5260 15736 5282 15730 5298H15667C15670 5283 15674 5263 15679 5238C15684 5214 15689 5186 15694 5156C15699 5125 15703 5094 15707 5063L15711 5023H15801ZM16274 5122H16183L16447 4401H16537L16802 5122H16710L16495 4515H16490L16274 5122ZM16308 4840H16677V4918H16308V4840ZM17193 5122V4401H17436C17493 4401 17539 4412 17575 4432C17611 4452 17638 4479 17655 4514C17673 4548 17681 4587 17681 4629C17681 4672 17673 4710 17655 4745C17638 4780 17612 4807 17576 4828C17540 4849 17494 4859 17438 4859H17263V4781H17435C17474 4781 17505 4775 17528 4761C17552 4748 17569 4730 17579 4707C17590 4684 17595 4658 17595 4629C17595 4600 17590 4575 17579 4552C17569 4529 17552 4511 17528 4498C17504 4485 17473 4479 17434 4479H17280V5122H17193ZM17894 4401V5122H17811V4401H17894ZM18205 5135C18170 5135 18139 5128 18111 5115C18084 5102 18061 5083 18045 5059C18029 5034 18020 5004 18020 4969C18020 4938 18026 4912 18039 4893C18051 4874 18067 4859 18088 4847C18108 4836 18130 4828 18155 4823C18180 4817 18205 4813 18230 4809C18263 4805 18289 4802 18310 4800C18331 4798 18346 4794 18355 4788C18365 4783 18369 4774 18369 4760V4757C18369 4723 18360 4696 18341 4676C18322 4657 18294 4648 18255 4648C18216 4648 18185 4656 18162 4674C18140 4691 18124 4710 18115 4729L18036 4701C18050 4668 18069 4643 18092 4624C18116 4606 18142 4593 18170 4586C18198 4578 18225 4574 18253 4574C18270 4574 18290 4577 18312 4581C18335 4585 18357 4593 18378 4606C18400 4618 18417 4638 18431 4663C18445 4689 18452 4723 18452 4766V5122H18369V5049H18365C18360 5060 18350 5073 18337 5086C18324 5100 18306 5111 18285 5121C18263 5130 18236 5135 18205 5135ZM18217 5060C18250 5060 18278 5054 18300 5041C18323 5028 18340 5011 18352 4991C18363 4970 18369 4949 18369 4926V4850C18366 4855 18358 4858 18346 4862C18334 4865 18321 4868 18305 4871C18290 4873 18275 4875 18261 4877C18246 4879 18235 4880 18226 4881C18204 4884 18184 4889 18165 4895C18147 4901 18132 4910 18120 4923C18109 4935 18103 4952 18103 4973C18103 5002 18114 5023 18135 5038C18157 5053 18184 5060 18217 5060ZM18824 5133C18773 5133 18729 5121 18693 5097C18656 5073 18628 5040 18608 4998C18588 4956 18579 4908 18579 4855C18579 4800 18589 4751 18609 4709C18629 4667 18658 4634 18694 4610C18731 4586 18773 4574 18822 4574C18860 4574 18894 4581 18925 4596C18955 4610 18980 4629 19000 4655C19019 4680 19031 4710 19036 4743H18953C18947 4719 18933 4697 18911 4678C18889 4659 18860 4649 18824 4649C18791 4649 18763 4657 18738 4674C18714 4691 18695 4715 18682 4745C18668 4775 18662 4811 18662 4852C18662 4893 18668 4930 18681 4961C18695 4992 18713 5016 18738 5033C18762 5050 18791 5059 18824 5059C18845 5059 18865 5055 18882 5047C18900 5040 18915 5029 18927 5015C18939 5001 18948 4984 18953 4964H19036C19031 4996 19020 5025 19001 5051C18983 5076 18959 5096 18928 5111C18898 5126 18863 5133 18824 5133ZM19384 5133C19332 5133 19287 5122 19249 5099C19212 5075 19183 5043 19162 5002C19142 4960 19132 4911 19132 4856C19132 4801 19142 4752 19162 4710C19183 4667 19211 4634 19247 4610C19284 4586 19327 4574 19376 4574C19404 4574 19432 4579 19459 4589C19486 4598 19511 4613 19534 4634C19556 4655 19574 4683 19588 4717C19601 4752 19608 4794 19608 4845V4880H19191V4808H19523C19523 4778 19517 4750 19505 4726C19493 4703 19476 4684 19454 4670C19432 4656 19406 4649 19376 4649C19342 4649 19314 4657 19290 4674C19266 4690 19247 4711 19234 4737C19222 4763 19215 4791 19215 4821V4869C19215 4909 19222 4944 19236 4972C19251 5001 19270 5022 19296 5037C19321 5051 19350 5059 19384 5059C19406 5059 19426 5056 19443 5049C19461 5043 19476 5034 19489 5021C19502 5009 19512 4993 19519 4974L19599 4997C19591 5024 19577 5048 19557 5068C19537 5089 19512 5105 19483 5116C19454 5128 19421 5133 19384 5133ZM20248 4581V4652H19968V4581H20248ZM20049 4452H20132V4967C20132 4991 20136 5008 20143 5020C20150 5031 20159 5039 20169 5043C20180 5047 20192 5049 20204 5049C20213 5049 20221 5048 20227 5047C20233 5046 20237 5045 20241 5045L20258 5119C20252 5121 20244 5123 20234 5125C20224 5128 20211 5129 20196 5129C20172 5129 20149 5124 20127 5114C20104 5104 20086 5088 20071 5068C20057 5047 20049 5021 20049 4990V4452ZM20586 5133C20538 5133 20495 5122 20458 5098C20421 5075 20393 5043 20372 5001C20352 4959 20342 4910 20342 4855C20342 4798 20352 4749 20372 4707C20393 4665 20421 4633 20458 4609C20495 4586 20538 4574 20586 4574C20635 4574 20678 4586 20715 4609C20751 4633 20780 4665 20800 4707C20821 4749 20831 4798 20831 4855C20831 4910 20821 4959 20800 5001C20780 5043 20751 5075 20715 5098C20678 5122 20635 5133 20586 5133ZM20586 5059C20624 5059 20654 5049 20678 5030C20702 5011 20720 4986 20731 4955C20743 4924 20748 4891 20748 4855C20748 4818 20743 4785 20731 4754C20720 4722 20702 4697 20678 4678C20654 4659 20624 4649 20586 4649C20549 4649 20519 4659 20495 4678C20471 4697 20453 4722 20442 4754C20430 4785 20425 4818 20425 4855C20425 4891 20430 4924 20442 4955C20453 4986 20471 5011 20495 5030C20519 5049 20549 5059 20586 5059ZM21209 4479V4401H21749V4479H21522V5122H21435V4479H21209ZM21956 4797V5122H21872V4401H21956V4666H21963C21975 4638 21994 4616 22020 4599C22045 4583 22079 4574 22122 4574C22158 4574 22191 4582 22218 4597C22246 4611 22267 4634 22283 4664C22298 4694 22306 4732 22306 4779V5122H22223V4784C22223 4741 22212 4708 22189 4685C22167 4661 22137 4649 22098 4649C22070 4649 22046 4655 22024 4666C22003 4678 21986 4695 21974 4717C21962 4739 21956 4765 21956 4797ZM22458 5122V4581H22538V4663H22544C22554 4636 22571 4615 22597 4598C22623 4581 22652 4573 22684 4573C22691 4573 22698 4573 22707 4573C22716 4574 22723 4574 22728 4574V4659C22725 4658 22719 4657 22709 4656C22699 4654 22688 4653 22677 4653C22651 4653 22628 4659 22607 4670C22587 4681 22570 4696 22558 4715C22547 4734 22541 4756 22541 4780V5122H22458ZM22827 5122V4581H22910V5122H22827ZM22869 4491C22853 4491 22839 4486 22827 4475C22815 4464 22810 4451 22810 4435C22810 4420 22815 4406 22827 4395C22839 4384 22853 4379 22869 4379C22885 4379 22899 4384 22910 4395C22922 4406 22928 4420 22928 4435C22928 4451 22922 4464 22910 4475C22899 4486 22885 4491 22869 4491ZM23504 4581L23304 5122H23219L23019 4581H23109L23259 5012H23264L23413 4581H23504ZM23820 5133C23768 5133 23723 5122 23686 5099C23648 5075 23619 5043 23599 5002C23579 4960 23568 4911 23568 4856C23568 4801 23579 4752 23599 4710C23619 4667 23648 4634 23684 4610C23720 4586 23763 4574 23812 4574C23840 4574 23868 4579 23895 4589C23923 4598 23948 4613 23970 4634C23993 4655 24011 4683 24024 4717C24037 4752 24044 4794 24044 4845V4880H23628V4808H23960C23960 4778 23954 4750 23941 4726C23929 4703 23912 4684 23890 4670C23868 4656 23842 4649 23812 4649C23779 4649 23750 4657 23726 4674C23702 4690 23684 4711 23671 4737C23658 4763 23652 4791 23652 4821V4869C23652 4909 23659 4944 23673 4972C23687 5001 23707 5022 23732 5037C23757 5051 23787 5059 23820 5059C23842 5059 23862 5056 23880 5049C23897 5043 23913 5034 23926 5021C23939 5009 23948 4993 23956 4974L24036 4997C24027 5024 24013 5048 23993 5068C23973 5089 23949 5105 23919 5116C23890 5128 23857 5133 23820 5133Z" fill="#4B7A34"/>
<path d="M4 2668C102 4488 1914 5087 2808 5160C1752 5058 1090 3941 1009 3802C944 3691 706 3393 595 3259C727 3337 1005 3571 1145 3778C1256 3944 1551 4304 1684 4464C1641 4361 1614 4170 1606 4087C1498 3006 493 2691 4 2668Z" fill="#487731" stroke="#4F7E36" stroke-width="6.7892"/>
<path d="M3820 5146C5262 4759 6019 5055 6281 5336C5160 5038 5215 5231 3592 5543C2294 5793 1358 5146 1056 4698C1501 4997 2422 5521 3820 5146Z" fill="#4B7A34"/>
<path d="M1277 2220V3082C1125 2952 1010 2892 971 2879V2488C971 2473 959 2461 944 2461H583C532 2461 509 2397 549 2365L1555 1538V557H2088V1124L3397 87C3462 36 3553 36 3617 87L6469 2352C6515 2388 6489 2461 6431 2461H6053C6038 2461 6026 2473 6026 2488V5085C5964 5034 5812 4984 5744 4966V2234L3545 505C3523 487 3492 487 3469 505L1277 2220Z" fill="#225431" stroke="#21532E" stroke-width="6.7892"/>
<path d="M2254 3494C2200 2761 3094 2439 3524 3029C3774 2528 4930 2658 4776 3494C4655 4154 3905 4690 3555 4874C3536 4884 3512 4884 3493 4873C3354 4795 3173 4678 2993 4536V3653C2993 3628 2989 3586 2969 3549C2959 3530 2945 3512 2924 3500C2903 3487 2877 3480 2845 3480C2812 3480 2787 3487 2767 3501C2748 3514 2735 3533 2727 3552C2712 3589 2713 3632 2713 3653H2747C2747 3630 2746 3595 2758 3565C2764 3550 2773 3538 2786 3529C2799 3520 2818 3513 2845 3513C2871 3513 2891 3519 2906 3529C2921 3538 2932 3550 2940 3565C2956 3594 2959 3630 2959 3653V4509C2737 4330 2519 4113 2385 3883C2430 3708 2585 3395 2824 3435C3146 3489 3056 3346 3038 3328C3021 3310 2588 3080 2268 3594C2261 3561 2256 3527 2254 3494Z" fill="url(#paint0_linear_348_168)"/>
<ellipse cx="2869.14" cy="2306.48" rx="347.785" ry="344.408" fill="#225431"/>
<ellipse cx="2514.59" cy="2343.58" rx="121.556" ry="172.204" fill="#225431"/>
<ellipse cx="4088.07" cy="2333.48" rx="344.408" ry="344.408" fill="#225431"/>
<rect x="3242.45" y="1093.06" width="225.181" height="225.181" rx="16.4767" fill="#225431"/>
<rect x="3242.45" y="1356.72" width="225.181" height="225.181" rx="16.4767" fill="#225431"/>
<rect x="3506.07" y="1093.06" width="225.181" height="225.181" rx="16.4767" fill="#225431"/>
<rect x="3506.07" y="1356.72" width="225.181" height="225.181" rx="16.4767" fill="#225431"/>
<defs>
<linearGradient id="paint0_linear_348_168" x1="3790.94" y1="2758.98" x2="3669.38" y2="4251.41" gradientUnits="userSpaceOnUse">
<stop stop-color="#225431"/>
<stop offset="1" stop-color="#4B7A34"/>
</linearGradient>
</defs>
</svg>
